<?xml version="1.0" standalone="no"?>
<svg xmlns:xlink="http://www.w3.org/1999/xlink" id="wave" style="transform:rotate(0deg); transition: 0.3s" viewBox="0 0 1440 490" version="1.1" xmlns="http://www.w3.org/2000/svg"><defs><linearGradient id="sw-gradient-0" x1="0" x2="0" y1="1" y2="0"><stop stop-color="rgba(243, 106, 62, 1)" offset="0%"/><stop stop-color="rgba(255, 179, 11, 0)" offset="100%"/></linearGradient></defs><path style="transform:translate(0, 0px); opacity:1" fill="url(#sw-gradient-0)" d="M0,392L48,334.8C96,278,192,163,288,155.2C384,147,480,245,576,277.7C672,310,768,278,864,285.8C960,294,1056,343,1152,375.7C1248,408,1344,425,1440,432.8C1536,441,1632,441,1728,375.7C1824,310,1920,180,2016,138.8C2112,98,2208,147,2304,138.8C2400,131,2496,65,2592,40.8C2688,16,2784,33,2880,106.2C2976,180,3072,310,3168,359.3C3264,408,3360,376,3456,326.7C3552,278,3648,212,3744,179.7C3840,147,3936,147,4032,171.5C4128,196,4224,245,4320,261.3C4416,278,4512,261,4608,253.2C4704,245,4800,245,4896,236.8C4992,229,5088,212,5184,220.5C5280,229,5376,261,5472,277.7C5568,294,5664,294,5760,318.5C5856,343,5952,392,6048,400.2C6144,408,6240,376,6336,310.3C6432,245,6528,147,6624,98C6720,49,6816,49,6864,49L6912,49L6912,490L6864,490C6816,490,6720,490,6624,490C6528,490,6432,490,6336,490C6240,490,6144,490,6048,490C5952,490,5856,490,5760,490C5664,490,5568,490,5472,490C5376,490,5280,490,5184,490C5088,490,4992,490,4896,490C4800,490,4704,490,4608,490C4512,490,4416,490,4320,490C4224,490,4128,490,4032,490C3936,490,3840,490,3744,490C3648,490,3552,490,3456,490C3360,490,3264,490,3168,490C3072,490,2976,490,2880,490C2784,490,2688,490,2592,490C2496,490,2400,490,2304,490C2208,490,2112,490,2016,490C1920,490,1824,490,1728,490C1632,490,1536,490,1440,490C1344,490,1248,490,1152,490C1056,490,960,490,864,490C768,490,672,490,576,490C480,490,384,490,288,490C192,490,96,490,48,490L0,490Z"/></svg>