<?xml version="1.0" standalone="no"?>
<!DOCTYPE svg PUBLIC "-//W3C//DTD SVG 1.1//EN" "http://www.w3.org/Graphics/SVG/1.1/DTD/svg11.dtd" >
<svg xmlns="http://www.w3.org/2000/svg" xmlns:xlink="http://www.w3.org/1999/xlink" version="1.1">
<metadata>
Created by FontForge 20201107 at Tue Oct 15 06:14:03 2019
 By 
Copyright (c) 2019 by Brittney Murphy. All rights reserved.
</metadata>
<defs>
<font id="MoonbrightDemo" horiz-adv-x="335" >
  <font-face 
    font-family="Moonbright Demo"
    font-weight="400"
    font-stretch="normal"
    units-per-em="1000"
    panose-1="0 0 0 0 0 0 0 0 0 0"
    ascent="785"
    descent="-215"
    x-height="335.5"
    cap-height="556"
    bbox="-167.8 -180.722 3346 752.75"
    underline-thickness="50"
    underline-position="-100"
    unicode-range="U+0020-E983"
  />
<missing-glyph horiz-adv-x="267" 
 />
    <glyph glyph-name="b_b" unicode="bb" horiz-adv-x="724" 
d="M360 183q-5 -31 -22.5 -64.5t-45.5 -60.5t-65 -42.5t-82 -9.5l-3 -7q-4 -8 -16.5 -13t-27.5 -6t-28.5 4t-18.5 18q-5 11 -10 42.5t-9.5 76t-7 97.5t-1.5 106.5t7 103t18 87.5t32 60t49 20q24 -2 33 -17.5t7 -41t-13.5 -60.5t-27.5 -77q7 -35 14 -74t12 -78q11 38 36 62.5
t72 18.5q45 -6 72 -34l82 63q7 48 18 91.5t27 76t36 50.5t46 17q26 -2 39.5 -21.5t6.5 -52.5q-5 -21 -18.5 -42.5t-34.5 -43.5l-2 -201q14 29 37.5 45t61.5 8q29 -7 46 -28.5t22.5 -50.5t-1 -60t-23.5 -56.5t-44 -41t-64 -12.5q-28 1 -46 19q-2 -11 -3.5 -21.5t-3.5 -18.5
q-2 -9 -17.5 -13t-34 -2.5t-34.5 9t-18 21.5q-5 25 -7 59t-2 72.5t2 80.5t7 83l-64 -49q21 -35 12 -92zM594 264q-13 1 -23.5 -13t-18.5 -38t-14 -55t-10 -64q7 -19 16 -29.5t21 -9.5q16 0 27 15.5t17.5 38.5t8.5 50t0 50t-8 38.5t-16 16.5zM232 309q-18 1 -29.5 -13.5
t-19 -38.5t-11 -55.5t-6.5 -62.5q14 21 35 42.5t46 42.5q5 34 2 58t-17 27zM243 190q-26 -23 -47.5 -45.5t-33.5 -45.5q-2 -23 -4.5 -42.5t-6.5 -32.5q19 0 33 13t25 34.5t18.5 48.5t12.5 55zM134 574q-12 2 -17.5 -7t-6.5 -27t2.5 -43.5t8.5 -55.5q20 59 25 94.5t-12 38.5z
M543 542q-4 -28 -6 -73q29 35 32 67q1 11 -2.5 17.5t-8 7.5t-9.5 -4t-6 -15z" />
    <glyph glyph-name="f_f" unicode="ff" horiz-adv-x="466" 
d="M240 520q-6 -19 -25 -43.5t-42 -55.5q-4 -50 -6.5 -112t-11.5 -147q26 7 48.5 17t43.5 23q3 66 17 130.5t36.5 112.5t53.5 72t69 10q19 -8 24 -32t-2.5 -57t-26.5 -72.5t-48 -76.5q-4 -45 -6.5 -89.5t-4.5 -86.5q13 1 33 5t41 12.5t38.5 23t25.5 36.5q3 9 10.5 8.5
t4.5 -11.5q-6 -23 -22.5 -39t-36 -26t-39.5 -15.5t-34 -7.5q28 -17 40 -47.5t9 -60.5t-20.5 -51.5t-47.5 -20.5q-32 1 -54 23t-36 57.5t-20 82t-5 97.5q-19 -11 -38.5 -19t-40.5 -13q23 -15 37 -43.5t20 -62t4 -69t-11.5 -64t-25.5 -47.5t-38 -20q-32 -2 -56.5 27.5t-41 80
t-24 116t-5.5 136.5q2 57 13.5 113t28.5 104t39 85.5t45 58.5q13 12 30.5 14.5t32.5 -2.5t23.5 -19t1.5 -35zM172 -134q9 0 17.5 17.5t13 44t5 59t-5 62t-18 52t-33.5 30.5q-4 -44 -6.5 -91t-1.5 -85.5t7.5 -63.5t21.5 -25zM378 -56q12 -2 22.5 16t12 42.5t-10 49
t-43.5 37.5q-1 -62 3.5 -102.5t15.5 -42.5zM423 504q-7 5 -14 -7t-13 -36.5t-12 -59t-10 -73.5q20 30 33 59.5t19 53.5t5 41t-8 22zM195 544q-8 -12 -12.5 -35t-7.5 -54q17 22 30.5 39.5t18.5 33.5q2 7 0 14t-6.5 10.5t-10.5 2t-12 -10.5z" />
    <glyph glyph-name="l_l" unicode="ll" horiz-adv-x="430" 
d="M160 23q12 -12 38.5 7.5t57.5 60.5q-12 29 -16.5 67t-3 78.5t8.5 82t17.5 78t24 65.5t28.5 45q16 17 38.5 24t39.5 -1q16 -7 20 -41t-3.5 -82.5t-24.5 -106t-42 -111.5q0 -27 1 -51.5t3.5 -42.5t7 -29.5t11.5 -12.5q12 -3 25.5 8t26 30.5t24 45.5t19.5 53q4 11 10.5 8
t4.5 -11q-8 -28 -18 -56.5t-24.5 -51.5t-34.5 -38.5t-48 -16.5q-29 -2 -49 10t-34 33q-27 -33 -58 -52.5t-65 -20.5t-58 20t-38.5 58.5t-20 89t-1.5 111.5q6 90 22 151.5t38 99.5q19 32 45 44.5t45.5 7t25.5 -28.5t-14 -61l-42 -78l-2 -137q-2 -107 -1.5 -170t16.5 -78z
M389 502q-7 2 -14 -20t-13 -58.5t-11 -83t-7 -92.5q19 46 31 90.5t17.5 80t4.5 58t-8 25.5zM153 506q-2 -12 -3 -26.5t-2 -31.5l26 49q13 25 12.5 40t-7 18t-15 -8.5t-11.5 -40.5z" />
    <glyph glyph-name="p_p" unicode="pp" horiz-adv-x="657" 
d="M400 319q1 7 12.5 9.5t24 1t23 -6.5t10.5 -12q-1 -11 -0.5 -38.5t1.5 -64.5q12 43 35.5 66.5t62.5 13.5q32 -9 48 -31.5t18.5 -51t-7.5 -59t-30.5 -53.5t-49.5 -35t-64 -5q-4 -47 -6.5 -94.5t-5.5 -90.5q0 -9 -15 -13.5t-32.5 -4.5t-32 5t-15.5 15q-3 48 -3.5 98t1 98
t5 92t7.5 80q-22 -19 -51 -31q1 -35 -10.5 -70t-34.5 -62t-58 -42.5t-81 -10.5q-21 3 -34 13q-6 -58 -10.5 -110.5t-10.5 -86.5q-1 -8 -14.5 -12.5t-29 -4.5t-28.5 4.5t-13 13.5q0 60 2 125.5t5.5 131t8.5 127.5t12 116q1 7 13.5 11t27.5 4.5t27 -3t12 -10.5v-65.5t-1 -60.5
q8 26 19 48t25 37.5t31.5 23.5t38.5 6q44 -5 68.5 -32.5t31.5 -65.5q20 10 36 22.5t24 29.5q2 11 3.5 19t3.5 16zM223 308q-18 1 -32.5 -11t-25.5 -34.5t-19 -53.5t-14 -67q21 20 51.5 33t62.5 24q3 21 3.5 40t-2 34t-8.5 24.5t-16 10.5zM546 269q-12 4 -21.5 -8.5
t-16.5 -34t-11 -48t-5 -50t1.5 -40t8.5 -17.5q10 -2 19.5 11t17 34t12.5 46.5t6.5 48t-1 39t-10.5 19.5zM241 173q-35 -12 -66 -27.5t-49 -41.5q-2 -10 -3 -20l-2 -20q13 -17 32 -20q15 -3 28.5 7.5t24.5 28.5t20 42.5t15 50.5z" />
    <glyph glyph-name="r_r" unicode="rr" horiz-adv-x="757" 
d="M90 -1q-2 -7 -13 -11t-23.5 -4t-22.5 4.5t-11 15.5q-3 88 4 170.5t20 163.5q-14 11 -21.5 26t-7.5 35q0 17 7 29t19.5 18.5t28.5 8t33 -2.5q18 -4 30.5 -16.5t19 -30.5t9 -41.5t1.5 -49.5q27 -7 55 -12.5t52 -11t42.5 -12.5t26.5 -16q14 -16 16 -41.5t-2 -54.5t-11 -59
t-12 -54.5t-4 -42t14 -20.5q18 -5 35 22t32 71t28 97t24 101q-14 8 -21.5 19.5t-7.5 28.5q0 14 7.5 26t19.5 20t28 10t33 -3q25 -8 33 -38.5t5 -67.5q22 -3 44.5 -4.5t42 -4.5t34.5 -8t22 -13q13 -15 14 -36t-4 -45t-14 -48t-17 -44.5t-12.5 -34.5t-0.5 -18q7 -7 23 2.5
t34 33t36 58t30 76.5q2 9 9.5 8.5t5.5 -11.5q-12 -49 -32.5 -89t-45.5 -66.5t-51.5 -35.5t-49.5 5q-13 8 -17 27t-3 43.5t5.5 52t8 52.5t5 43.5t-3.5 26.5q-2 3 -21 4.5t-44 4.5q-5 -29 -12.5 -57.5t-16.5 -51.5q-18 -46 -43.5 -81t-52.5 -57.5t-53 -31.5t-45 -4
q-30 8 -46.5 30.5t-24 52.5t-8 63.5t1 63t2.5 51.5t-2 30q-6 13 -32 19t-60 13q-3 -41 -12.5 -85.5t-20.5 -85t-22 -73.5t-17 -52zM34 399q1 -19 15 -34l6 34q2 11 -1.5 15.5t-8 4t-8 -6t-3.5 -13.5zM449 329q0 -9 4 -15.5t10 -11.5l7 27q2 9 -1.5 13t-8 4t-8 -4.5
t-3.5 -12.5z" />
    <glyph glyph-name="s_s" unicode="ss" horiz-adv-x="469" 
d="M353 330q18 -1 29 -9t16.5 -19.5t4 -25.5t-8.5 -28q-4 -7 -9.5 -13.5t-12.5 -14.5q15 -17 31.5 -36.5t28.5 -41.5q24 10 42.5 21t25.5 27q5 10 11.5 7.5t3.5 -10.5q-8 -21 -28.5 -35.5t-47.5 -25.5q12 -29 8 -59q-4 -24 -19.5 -41.5t-36 -27t-43 -11t-41 4.5t-30 20.5
t-9.5 37.5q2 20 20 33t44 24q-10 12 -21 24t-21 26q-49 -31 -89 -50q2 -13 2.5 -25.5t-1.5 -24.5q-6 -32 -34 -51.5t-58.5 -24.5t-54.5 6.5t-22 42.5q1 17 16 29.5t38 23.5q-10 17 -23.5 34.5t-25.5 37.5t-20.5 42.5t-8.5 48.5q0 31 14.5 54t35.5 37t45.5 19t46 -0.5
t35.5 -20.5t15 -41q1 -12 -7 -14t-9 9q-2 19 -10.5 30t-19.5 14.5t-22.5 0.5t-17.5 -11q-11 -14 -3 -35t23 -47t33 -55.5t28 -60.5q17 9 39 21.5t45 26.5q-8 14 -12.5 29t-3.5 34q0 24 8 42.5t20.5 30t28.5 17t32 4.5zM363 52q-3 20 -18 40q-23 -10 -39 -20.5t-16 -24.5
q0 -17 12 -25t26.5 -7.5t25.5 10t9 27.5zM343 294q-10 -13 -3 -28t21 -33q18 16 22 27q5 13 2 23t-10 15.5t-16 5t-16 -9.5zM102 42q-2 12 -6 24q-17 -7 -27.5 -14.5t-12.5 -16.5q-3 -13 4.5 -19t17 -5.5t17.5 8.5t7 23z" />
    <glyph glyph-name="t_t" unicode="tt" horiz-adv-x="445" 
d="M399 383q-7 -54 -17 -115.5t-17 -114.5t-7 -89.5t13 -39.5t29 13t31 41.5t27 55.5t18 56q2 9 9.5 8.5t5.5 -11.5q-6 -24 -17 -58t-29.5 -64t-45.5 -50t-64 -17q-39 3 -64 35t-27 104q-9 -29 -21 -57.5t-26 -51t-30.5 -36.5t-34.5 -15q-41 -2 -66 19t-36.5 61t-10.5 97.5
t12 129.5q2 18 5 35.5t6 35.5l-45 -3q-6 -1 -9 1.5t-3 6.5t2.5 8t8.5 5l50 4q8 47 19 93t22 94q2 8 16.5 13t32 6.5t33 -2t19.5 -13.5q6 -16 2 -57t-19 -125l115 9q11 39 21.5 70.5t19.5 47.5q4 7 15.5 9t24 0t23 -7t12.5 -11q4 -14 3.5 -40.5t-4.5 -59.5l49 4q10 2 12.5 -8
t-8.5 -12zM157 312q-11 -56 -22 -110.5t-16 -99t-3 -72.5t16 -31q17 -3 34 17t32 52t27.5 70t21.5 70q5 35 14 79t20 87l-114 -9q-2 -13 -5 -26t-5 -27z" />
    <glyph glyph-name="z_z" unicode="zz" horiz-adv-x="539" 
d="M519 66q-8 0 -23 -7.5t-33.5 -17.5t-39 -20.5t-40 -17t-36.5 -6.5t-29 11q-19 17 -17.5 43.5t14.5 57.5q-22 -11 -47.5 -27.5t-52 -33t-53 -30.5t-50.5 -20.5t-44 -3t-34 23.5q-15 20 -10 50t20.5 63t37 66.5t40.5 62t30.5 48t7.5 24.5q-6 7 -20.5 3.5t-32 -13t-35 -24
t-29.5 -28.5q-5 -6 -9 -6.5t-6.5 1.5t-3 5t1.5 6q19 26 45.5 45t54 28.5t52.5 9t40 -13.5q18 -15 18.5 -41t-9 -56.5t-25.5 -63t-30 -60t-22.5 -48t-3.5 -27.5q6 -9 25.5 0t45.5 25t55.5 34t55.5 28q15 30 34 59t34.5 53t25.5 41t7 23t-16 5.5t-31 -5.5t-39 -13t-41 -17
q-5 -2 -8.5 -0.5t-5 4.5t-1 6t3.5 5q42 22 75 31t57.5 9.5t40.5 -6t23 -16.5q14 -19 11.5 -45t-14 -54t-28.5 -56.5t-31 -52.5t-22 -41t-2 -23q4 -4 17.5 2t30.5 15t36 16.5t34 7.5q10 0 10.5 -9t-10.5 -9z" />
    <glyph glyph-name=".notdef" horiz-adv-x="267" 
 />
    <glyph glyph-name=".null" horiz-adv-x="0" 
 />
    <glyph glyph-name="nonmarkingreturn" horiz-adv-x="267" 
 />
    <glyph glyph-name="space" unicode=" " horiz-adv-x="267" 
 />
    <glyph glyph-name="exclam" unicode="!" horiz-adv-x="201" 
d="M62 486q5 12 23 15.5t36.5 1t33.5 -8.5t14 -13q-2 -17 -6.5 -47.5t-10.5 -67.5t-12.5 -77t-13 -75.5t-13 -63.5t-10.5 -40q-3 -9 -13.5 -13t-22 -4.5t-21 2t-11.5 7.5q-4 10 -4.5 39.5t1 68.5t5 83t7.5 83.5t9 69.5t9 40zM61 12q-9 1 -13.5 7t-4.5 13t5.5 12.5t17.5 4.5
q10 -1 14.5 -7t3.5 -13t-6.5 -12.5t-16.5 -4.5z" />
    <glyph glyph-name="quotedbl" unicode="&#x22;" horiz-adv-x="284" 
d="M57 520q0 9 10 12.5t22 3t22 -5t10 -13.5q0 -14 -1.5 -35t-4 -43t-5.5 -41.5t-6 -30.5q-2 -11 -13 -10.5t-14 10.5q-2 11 -5 32.5t-6 45t-5.5 44.5t-3.5 31zM234 518q-1 -11 -3.5 -31.5t-5.5 -43t-6 -43t-5 -31.5q-2 -10 -13.5 -10.5t-13.5 9.5q-2 11 -4.5 31t-5 42
t-4.5 43t-2 35q0 9 10 13t22 3.5t21.5 -5t9.5 -12.5z" />
    <glyph glyph-name="numbersign" unicode="#" horiz-adv-x="501" 
d="M399 199q-8 -53 -15.5 -93.5t-11.5 -54.5q-2 -9 -17.5 -11.5t-33 -0.5t-31.5 9t-13 17q2 14 6 51t10 84l-108 1q-6 -42 -12 -74.5t-10 -45.5q-2 -9 -17.5 -11.5t-33 -0.5t-31 9t-12.5 17q2 13 4.5 41.5t7.5 65.5l-43 1q-7 0 -5.5 10t7.5 10l43 -1l11 90l-49 -2
q-6 0 -5 9.5t6 9.5l51 2q7 48 14 88t14 58q3 10 18 13t31 0.5t28.5 -8.5t12.5 -15q-2 -26 -4.5 -60t-7.5 -72l110 5q7 47 14 83.5t13 53.5q3 10 18 13t31 0.5t28.5 -8.5t12.5 -15q-1 -23 -4 -55t-8 -68l42 2q8 0 9.5 -9.5t-6.5 -10.5l-47 -2l-14 -105h40q8 0 8.5 -10
t-7.5 -10h-44zM188 221l108 -1l14 100l-110 -4z" />
    <glyph glyph-name="dollar" unicode="$" horiz-adv-x="261" 
d="M119 90q-16 4 -26 15.5t-10 32.5q0 8 4 11.5t8.5 3.5t7.5 -3t2 -7q-2 -13 3 -20.5t13 -11.5l7 84q-16 17 -34.5 35t-34.5 37.5t-26.5 41t-10.5 45.5q0 29 12 50.5t31 35.5t41 20t43 4l4 42q0 5 3.5 7.5t7 2t6 -3.5t2.5 -8l-3 -43q19 -6 31.5 -21t13.5 -39q1 -11 -7 -13
t-9 9q-2 19 -11 29.5t-20 14.5l-9 -115q13 -18 26.5 -37.5t24 -39.5t16.5 -41.5t4 -42.5q-2 -17 -10.5 -31t-21 -23.5t-27.5 -15.5t-29 -7l-3 -41q0 -5 -4 -7.5t-8 -2t-7 3t-3 7.5zM128 430q-11 -16 -6 -35.5t18 -41.5l8 89q-14 -2 -20 -12zM161 138q-1 16 -14 33l-5 -61
q19 5 19 28z" />
    <glyph glyph-name="percent" unicode="%" horiz-adv-x="548" 
d="M105 313q-31 5 -48.5 25.5t-23 48t0.5 56.5t22 52t41 35t59 4q29 -7 45 -27.5t21.5 -46.5t-0.5 -54.5t-21 -50.5t-39.5 -34.5t-56.5 -7.5zM168 516q-13 3 -24.5 -8.5t-20.5 -31.5t-14.5 -44.5t-6.5 -46.5t4 -38t17 -19q13 -3 24 9t19.5 31.5t13.5 44.5t6 46.5t-3.5 37.5
t-14.5 19zM387 528q7 7 21 3t27.5 -13t22 -21t4.5 -20q-13 -22 -38.5 -61.5t-58 -86t-67 -95t-65 -90t-53.5 -71.5t-31 -38q-6 -7 -21 -2t-29.5 14.5t-23.5 21.5t-4 20q7 11 30.5 45t54.5 79.5t67 96t68.5 96t58 78.5t37.5 44zM397 44q-31 5 -48.5 26t-23.5 48t0 56.5
t22 52.5t41 35t59 4q29 -7 45.5 -27.5t21.5 -46.5t-0.5 -54.5t-20.5 -51t-39.5 -35t-56.5 -7.5zM459 247q-12 3 -23.5 -8.5t-20.5 -31.5t-14.5 -44.5t-6.5 -46.5t3.5 -38t16.5 -19q13 -3 24.5 9t20 32t13.5 44.5t5.5 46.5t-4 37.5t-14.5 18.5z" />
    <glyph glyph-name="ampersand" unicode="&#x26;" horiz-adv-x="329" 
d="M274 -1q1 -6 -1.5 -9t-6.5 -3t-7.5 2.5t-4.5 7.5q-5 18 -15 44q-31 -15 -68 -20.5t-70 2.5t-57 31t-29 64q-3 28 5 54t24 49.5t36.5 45t41.5 41.5q-11 28 -17 51t-5 40q0 39 16.5 62.5t40 32.5t50 4.5t47 -20t31 -41t2.5 -59.5q-10 -38 -39.5 -75t-60.5 -73
q17 -38 35 -76.5t32 -79.5q17 14 26 33t4 42q-1 5 1.5 8t6.5 3t7.5 -2t4.5 -6q8 -30 -5 -55t-39 -43q5 -14 8 -27.5t6 -27.5zM117 101q1 -24 12.5 -37t28 -17t36 -0.5t37.5 12.5q-13 31 -30.5 68.5t-34.5 76.5q-22 -27 -36.5 -53t-12.5 -50zM124 405q1 -17 6 -36.5t13 -41.5
q25 24 43.5 45.5t23.5 41.5q7 34 -6 49t-31.5 12.5t-34.5 -20.5t-14 -50z" />
    <glyph glyph-name="quotesingle" unicode="'" horiz-adv-x="171" 
d="M57 520q0 9 10.5 12t22.5 1.5t22 -7t9 -13.5q-1 -14 -4.5 -35.5l-7 -43t-7.5 -41t-7 -30.5q-3 -9 -14 -8t-13 11q-2 11 -4 32.5t-3.5 45.5t-2.5 45t-1 31z" />
    <glyph glyph-name="parenleft" unicode="(" horiz-adv-x="242" 
d="M214 613q8 7 14.5 0t-0.5 -15q-28 -32 -47.5 -88t-32 -122.5t-17.5 -137t-3.5 -131t9.5 -104.5t22 -58q8 -8 2 -15t-14 -2q-55 26 -85 75.5t-38 111t3 130.5t36.5 135.5t64.5 124t86 96.5z" />
    <glyph glyph-name="parenright" unicode=")" horiz-adv-x="276" 
d="M102 612q-5 10 0 15t14 -3q53 -45 83.5 -110t40 -137t-0.5 -146t-37.5 -138t-71.5 -113t-103 -71q-5 -2 -9 -0.5t-6 4.5t-0.5 6.5t6.5 6.5q29 13 50.5 46t35.5 79t21.5 101t10.5 112t1 112.5t-7 102.5t-12 82t-16 51z" />
    <glyph glyph-name="asterisk" unicode="*" horiz-adv-x="419" 
d="M81 152q-4 -3 -8 -2t-6.5 5t-3 8.5t2.5 8.5q18 22 34 44.5t30 45.5q-20 3 -37 6.5t-33 8.5q-27 11 -39.5 26.5t-9.5 28.5t22 18.5t55 -3.5q17 -5 33.5 -13.5t34.5 -19.5q16 34 25 62.5t13.5 55.5t6.5 54t4 60q1 6 15 11t29.5 7t29 0t15.5 -8q1 -15 4 -43t6.5 -62.5t8 -73
t8.5 -76.5l68 30q6 3 10.5 0.5t7 -6.5t1.5 -8.5t-6 -6.5l-78 -36q5 -42 9.5 -77t6.5 -58v-2q1 -6 -9 -13t-23 -11.5t-24.5 -5.5t-14.5 5q-12 21 -22.5 54t-20.5 66q-48 -21 -82.5 -41t-62.5 -39zM201 358q-5 -16 -11 -30.5t-12 -28.5l19 -14q3 -2 7.5 -1.5t8.5 -0.5z
M160 260q-5 -11 -12.5 -23t-13.5 -22q17 9 35.5 18.5t38.5 17.5l-6 4t-5 4q-9 1 -18.5 0.5t-18.5 0.5z" />
    <glyph glyph-name="plus" unicode="+" horiz-adv-x="289" 
d="M197 287q-3 -29 -7 -56t-8 -50t-7 -40.5t-6 -27.5q-3 -9 -18.5 -11.5t-33 -0.5t-31 9t-12.5 17q2 20 7 65.5t11 95.5l-65 1q-7 0 -6 10t7 10l66 -1q5 43 11.5 80t13.5 57q4 10 18.5 12.5t31 0.5t29 -8.5t12.5 -15.5q-2 -28 -4.5 -60.5t-6.5 -67.5h59q8 0 9.5 -9.5
t-6.5 -10.5z" />
    <glyph glyph-name="comma" unicode="," horiz-adv-x="156" 
d="M62 13q-9 9 -9.5 19t4 16.5t13.5 9t19 -1.5q10 -5 14 -14.5t1.5 -22t-12 -26t-26.5 -25.5q-6 -5 -12.5 1.5t0.5 12.5q13 11 13.5 18t-5.5 13z" />
    <glyph glyph-name="hyphen" unicode="-" horiz-adv-x="190" 
d="M16 264q-6 0 -5 10t6 10l154 4q8 0 9 -10t-7 -10z" />
    <glyph glyph-name="period" unicode="." horiz-adv-x="156" 
d="M55 35q0 10 6.5 17t15.5 7q10 0 17 -7t7 -17q0 -9 -7 -15.5t-17 -6.5q-9 0 -15.5 6.5t-6.5 15.5z" />
    <glyph glyph-name="slash" unicode="/" horiz-adv-x="195" 
d="M94 553q3 9 18 12t31 1t28.5 -8.5t12.5 -15.5q-1 -26 -6.5 -72.5t-13 -102.5t-16.5 -115.5t-17.5 -110.5t-15.5 -88t-10 -48q-2 -8 -17.5 -11t-33 -0.5t-31 9t-12.5 16.5q1 13 6.5 54t13 95.5t16 115.5t17.5 116t16.5 96.5t13.5 56.5z" />
    <glyph glyph-name="zero" unicode="0" horiz-adv-x="449" 
d="M414 256q-5 -44 -21.5 -89.5t-45 -82t-68.5 -58.5t-92 -17q-39 3 -70.5 27.5t-52 63t-29 89t-0.5 106.5q11 77 31 128.5t47.5 82t61 42t72.5 9.5q52 -3 86.5 -32.5t54.5 -73.5t26 -95.5t0 -99.5zM218 27q23 -1 41 19.5t31.5 53.5t22 74.5t13.5 83.5q5 43 6.5 89
t-2.5 85.5t-16 66.5t-34 31q-24 4 -42.5 -18t-32.5 -59.5t-23 -83.5t-13 -89q-4 -39 -4.5 -83t5 -81.5t17 -62.5t31.5 -26z" />
    <glyph glyph-name="one" unicode="1" horiz-adv-x="256" 
d="M97 582q6 6 23.5 6.5t35.5 -2.5t32 -9.5t14 -14.5q0 -13 -2 -53t-4.5 -93t-6 -114t-6 -116t-5 -98.5t-3.5 -62.5l33 -1q6 0 9.5 -4.5t3.5 -9t-3.5 -8t-9.5 -3.5l-191 7q-6 1 -8.5 5t-2 8.5t4 8t9.5 3.5l34 -2l37 507l-51 -18q-11 -5 -15 2t5 14l67 48v0z" />
    <glyph glyph-name="two" unicode="2" horiz-adv-x="326" 
d="M87 413q1 -7 -2 -10t-6.5 -3t-7 3t-4.5 9q-5 48 13 85t48.5 57t67.5 20t70 -27q29 -24 28.5 -68t-18 -97.5t-46 -109.5t-54.5 -104t-44 -82t-15 -42t23.5 -9t46 0.5t49 4t32.5 1.5q12 -2 13.5 -8.5t-8.5 -8.5q-36 -5 -76 -9.5t-75 -4.5t-61 6t-34 23q-9 17 -3.5 45.5
t19.5 64.5t33.5 76.5t40 81t38.5 79t29 70t11 53.5t-15 30q-18 9 -36 0t-32 -28.5t-21.5 -46t-3.5 -51.5z" />
    <glyph glyph-name="three" unicode="3" horiz-adv-x="327" 
d="M82 467q-5 -11 -12 -7.5t-4 14.5q9 40 35 62t56 28.5t58 -1t42 -26.5q18 -26 16 -60.5t-14.5 -68t-29 -62.5t-26.5 -43q19 -18 35.5 -37.5t29.5 -41.5t20 -45.5t6 -48.5q-1 -29 -13 -52.5t-32.5 -40t-47 -24.5t-56.5 -7q-29 1 -55.5 11t-44 28.5t-22.5 46.5t9 64
q5 10 12.5 8t3.5 -13q-8 -25 -6 -44.5t10 -34t21.5 -23t28.5 -11.5q30 -7 58 9t34 53q6 43 -19 80t-84 83q-15 13 -15 29t9 28q5 7 18 23t28.5 37.5t30.5 45.5t24 46.5t9.5 40.5t-12.5 27q-8 6 -21.5 5.5t-27.5 -8.5t-28 -25t-24 -45z" />
    <glyph glyph-name="four" unicode="4" horiz-adv-x="313" 
d="M144 303l-125 -1q-6 0 -8 9.5t8 12.5q19 5 36 24t31.5 44t26 53.5t20.5 53.5t14.5 43t8.5 22q4 7 19 9.5t32.5 1t32 -5.5t17.5 -10q1 -3 1.5 -24t-0.5 -53t-3 -73.5t-4 -85.5h19q9 0 9 -9.5t-9 -9.5h-20q-3 -47 -5.5 -92.5t-5.5 -84t-5 -67.5t-3 -41q-1 -5 -16.5 -8.5
t-33.5 -4t-33 3.5t-15 14zM152 466q-17 -44 -39 -82t-51 -60l83 -1z" />
    <glyph glyph-name="five" unicode="5" horiz-adv-x="340" 
d="M301 525q8 -4 7 -10.5t-9 -4.5q-35 7 -67 13t-45 -5q-5 -4 -10.5 -20.5t-10.5 -39.5t-9 -49.5t-7 -50.5t-4.5 -43t-0.5 -27q1 -6 13 -13t29 -17t37 -22.5t36.5 -29t27 -36t8.5 -43.5q-2 -31 -24 -52t-52.5 -32t-64.5 -11t-61 12t-41.5 35t-6.5 59q4 11 13 8.5t7 -13.5
q-6 -35 15 -54t49.5 -21t53.5 12.5t27 46.5q1 19 -8.5 34t-24.5 27t-33 21.5t-35 17.5t-30.5 15t-18.5 15q-5 7 -7.5 30t-2.5 54t2.5 65t8.5 64.5t15 53t23 28.5q20 9 50 8.5t60 -5t55 -11t36 -9.5z" />
    <glyph glyph-name="six" unicode="6" horiz-adv-x="329" 
d="M159 302l-4 -28l-4 -28q26 27 55 36.5t55 -4.5q23 -12 30.5 -39.5t2.5 -60.5t-21.5 -66.5t-40.5 -58.5t-55 -36.5t-64 -0.5q-36 12 -51 48.5t-18 81.5t2 90.5t11 75.5q8 40 20.5 82.5t24.5 78t19.5 59.5t4.5 27q-4 6 1 12t15 2q21 -8 28.5 -36t7 -67t-6.5 -83.5
t-12 -84.5zM254 263q-15 12 -31.5 1.5t-31 -33t-26.5 -52.5t-17.5 -58.5t-4.5 -50t13 -27.5q13 -7 28.5 4t30.5 32.5t27 49.5t18.5 55t5.5 48.5t-12 30.5z" />
    <glyph glyph-name="seven" unicode="7" horiz-adv-x="264" 
d="M42 506q-12 -7 -18 1t5 16q17 12 48 20.5t62.5 11.5t58 -1t35.5 -17q10 -14 8.5 -53.5t-10.5 -92t-22.5 -111.5t-28.5 -112.5t-28 -95t-20 -58.5q-3 -8 -16 -9.5t-27.5 1.5t-26 9.5t-11.5 15.5q0 39 7.5 88.5t18 102t22.5 103t22 91.5t15.5 68t3.5 32q-3 8 -15 9.5
t-27 -0.5t-30.5 -7.5t-25.5 -11.5z" />
    <glyph glyph-name="eight" unicode="8" horiz-adv-x="301" 
d="M78 497q13 29 36.5 44.5t48.5 17.5t46 -8.5t29 -33.5q10 24 11 36q2 13 9.5 13.5t9.5 -10.5q5 -42 -21.5 -93.5t-63.5 -106.5q16 -35 32.5 -70.5t27 -71t11.5 -70t-14 -66.5q-10 -19 -29 -32.5t-42.5 -19t-48.5 -3.5t-45 13.5t-32 33t-11 53.5q2 29 21.5 72.5t48.5 91.5
q-9 29 -17.5 57.5t-13 55.5t-3.5 51.5t10 45.5zM132 88q14 29 5.5 72.5t-24.5 92.5q-24 -38 -40.5 -72.5t-16.5 -62.5q0 -24 9.5 -36.5t22 -15.5t25.5 3t19 19zM167 393q15 24 28.5 46.5t24.5 42.5q6 27 -5 41t-26.5 16.5t-30.5 -7t-16 -30.5q-2 -25 5.5 -52.5t19.5 -56.5z
" />
    <glyph glyph-name="nine" unicode="9" horiz-adv-x="277" 
d="M121 371q-21 -17 -41 -22.5t-37 3.5q-13 7 -18 23t-3 36t10 41.5t20 39.5t26.5 30.5t29.5 13.5q14 2 24 -7l2 32q1 10 17 13.5t34.5 1.5t33.5 -8.5t15 -16.5q-3 -53 -9 -123t-14 -143.5t-16.5 -144t-17.5 -124.5q-1 -6 -13.5 -7.5t-27 0t-26 5.5t-11.5 10zM56 372
q9 -4 18.5 4.5t18.5 25t16.5 38.5t12.5 44q3 12 2 21t-8 12q-8 3 -17.5 -5.5t-19 -23.5t-17.5 -33.5t-12.5 -36t-3.5 -30.5t10 -16z" />
    <glyph glyph-name="colon" unicode=":" horiz-adv-x="156" 
d="M55 121q0 10 6.5 17t15.5 7q10 0 17 -7t7 -17q0 -9 -7 -15.5t-17 -6.5q-9 0 -15.5 6.5t-6.5 15.5zM61 275q0 10 6.5 17t15.5 7q10 0 17 -7t7 -17q0 -9 -7 -15.5t-17 -6.5q-9 0 -15.5 6.5t-6.5 15.5z" />
    <glyph glyph-name="semicolon" unicode=";" horiz-adv-x="156" 
d="M61 275q0 10 6.5 17t15.5 7q10 0 17 -7t7 -17q0 -9 -7 -15.5t-17 -6.5q-9 0 -15.5 6.5t-6.5 15.5zM62 99q-9 9 -9.5 19t4 16.5t13.5 9t19 -1.5q10 -5 14 -14.5t1.5 -22t-12 -26t-26.5 -25.5q-6 -5 -12.5 1.5t0.5 12.5q13 11 13.5 18t-5.5 13z" />
    <glyph glyph-name="less" unicode="&#x3c;" horiz-adv-x="272" 
d="M227 472q8 7 15 0t2 -15l-127 -193q-7 -10 -6.5 -19.5t9.5 -23.5l128 -163q3 -4 2.5 -8.5t-3.5 -7.5t-7 -4t-7 2l-206 184q-3 2 -4.5 9.5t-1.5 16t1 16t4 10.5z" />
    <glyph glyph-name="equal" unicode="=" horiz-adv-x="246" 
d="M27 321q-7 0 -6 10t7 10l186 7q8 0 10 -9.5t-6 -10.5zM27 257q-7 0 -6 9.5t7 9.5h187q8 0 9.5 -9.5t-6.5 -10.5z" />
    <glyph glyph-name="greater" unicode="&#x3e;" horiz-adv-x="272" 
d="M45.0137 472q-7.99902 7 -14.999 0q-6.99902 -7 -2 -15l126.992 -193q7 -10 6.5 -19.5t-9.49902 -23.5l-127.992 -163q-3 -4 -2.5 -8.5t3.49902 -7.5q3 -3 7 -4t7 2l205.987 184q3 2 4.49902 9.5q1.5 7.5 1.5 16t-1 16t-3.99902 10.5z" />
    <glyph glyph-name="question" unicode="?" horiz-adv-x="233" 
d="M44 440q-10 -8 -16 -0.5t1 15.5q12 12 40 20.5t58 9.5t54.5 -9.5t29.5 -37.5q3 -20 -4.5 -39t-18.5 -34.5t-22 -27t-15 -17.5q-8 -9 -13 -36t-10 -59.5t-10.5 -64t-12.5 -50.5q-3 -9 -13.5 -13t-21.5 -4.5t-21 2t-11 7.5q-6 15 -9.5 46.5t-3 66.5t5 66t13.5 45
q11 16 36 30.5t50 28t43.5 26.5t15.5 27q-3 16 -22.5 21.5t-44 4t-47.5 -8.5t-31 -15zM63 12q-9 1 -13.5 7t-4 13t6 12.5t16.5 4.5q10 -1 14.5 -7t4 -13t-6.5 -12.5t-17 -4.5z" />
    <glyph glyph-name="at" unicode="@" horiz-adv-x="494" 
d="M180 138q-16 17 -14 47t17 57t39.5 41.5t54.5 1.5q1 8 2 15.5t3 14.5q1 4 14.5 4.5t30 -1t30 -5t13.5 -7.5v-1q0 -30 -0.5 -60.5t0.5 -55.5t5.5 -41.5t15.5 -18.5q9 -2 17.5 4.5t15.5 19t12 30t5 38.5q1 36 -10 66t-29 52.5t-41 36t-45 16.5q-47 6 -82 -6t-59.5 -38
t-38.5 -63.5t-18 -81.5q-6 -66 17.5 -115t64.5 -70.5t93.5 -10t104.5 66.5q9 9 17 1.5t0 -15.5q-38 -40 -83 -60.5t-90.5 -23t-87 12.5t-72.5 45t-48 74.5t-12 101.5q5 60 31.5 100t63 64t77.5 34t77 10q34 0 67.5 -12t60.5 -36.5t44 -62t18 -87.5q0 -29 -9 -52t-24 -38.5
t-34 -23.5t-37 -6q-36 3 -54.5 27.5t-24.5 58.5q-22 -50 -49 -60.5t-49 12.5zM216 142q7 -4 16 4.5t17.5 26t15.5 42.5t10 55q-14 4 -28 -13.5t-23.5 -41.5t-13 -46t5.5 -27z" />
    <glyph glyph-name="A" unicode="A" horiz-adv-x="472" 
d="M76 14q-3 -9 -14.5 -13t-24 -4t-21.5 5t-7 15q1 8 3 37.5t6.5 71.5t11.5 92.5t20 101.5t32 98.5t46 83t63.5 55t83.5 14.5q39 -4 65.5 -24.5t42.5 -52t23.5 -72t8.5 -84.5h18q8 -2 8 -12t-9 -10h-17q0 -57 -6.5 -114t-13.5 -102t-10.5 -73t1.5 -28q12 1 11.5 -7.5
t-9.5 -8.5q-49 0 -73 30t-32.5 77.5t-6.5 106.5t7 117q-45 -2 -87.5 -6.5t-86.5 -12.5q-7 -47 -11.5 -92.5t-8 -84t-6.5 -66.5t-7 -38zM244 545q-28 4 -49 -13t-37 -49t-27 -74.5t-18 -89.5q43 8 85.5 11.5t86.5 5.5q3 40 4.5 77t-2.5 65t-14 46t-29 21z" />
    <glyph glyph-name="B" unicode="B" horiz-adv-x="403" 
d="M54 555q3 12 19 16.5t34.5 3.5t33.5 -7t15 -16q0 -13 -0.5 -37t-1.5 -55q17 48 44 68q26 18 50.5 14.5t40.5 -21.5t18.5 -47t-15.5 -60q-9 -16 -19.5 -28.5t-24.5 -24.5q20 2 37 0t31 -10q32 -19 48 -49t17.5 -64t-9 -69t-31.5 -64.5t-51 -50.5t-67 -27q-57 -9 -95 11
l-4 -32q-2 -8 -17.5 -11.5t-34.5 -3t-34.5 5t-15.5 13.5q-1 11 0 50.5t2.5 94.5t4.5 117.5t7 119.5t8.5 101t9.5 62zM146 296q-4 -66 -8 -127.5t-8 -105.5q23 -11 56 -7q26 3 46 22t34 46.5t21.5 60t8 62.5t-6 53.5t-20.5 33.5t-30 8.5t-32.5 -9.5t-32 -19t-28.5 -18z
M210 510q-20 -16 -33 -52t-22 -87q30 20 57 42.5t41 45.5q10 18 11 33t-5.5 23.5t-19 8t-29.5 -13.5z" />
    <glyph glyph-name="C" unicode="C" horiz-adv-x="411" 
d="M342 402q-3 -8 -13 -5t-8 11q6 19 9 44.5t0 49.5t-12.5 41.5t-27.5 20.5q-17 3 -33 -8.5t-30.5 -33t-27 -49.5t-22 -58.5t-16.5 -60.5t-10 -54q-7 -49 -10.5 -97t0.5 -87t18 -65.5t44 -32.5q28 -6 54 11.5t48 46.5t39 64t26 65q3 10 12 9.5t6 -13.5q-6 -28 -22.5 -66.5
t-42 -71.5t-61 -53.5t-78.5 -13.5q-51 8 -85 39.5t-53 77.5t-23 101t5 111t30.5 107t54 88.5t74.5 56.5t93 11q36 -6 52 -30t20 -53.5t0 -58.5t-10 -44z" />
    <glyph glyph-name="D" unicode="D" horiz-adv-x="453" 
d="M72 567q2 9 16 12.5t30 3t28.5 -6t12.5 -15.5q-2 -27 -3.5 -55.5t-3.5 -57.5q10 32 23 58t31 43t42 24.5t54 2.5q40 -6 67.5 -34t42.5 -69t18 -91t-4.5 -101.5t-26 -101t-46.5 -88t-65.5 -62.5t-83.5 -25q-25 -1 -48.5 7.5t-40.5 25.5q-2 -16 -3 -26t-2 -15
q-2 -10 -17.5 -15t-33.5 -4.5t-32.5 7t-14.5 18.5q2 38 5.5 88.5t8.5 106t11 112t12 107t12 90t11 61.5zM255 547q-22 4 -39.5 -23t-32 -71.5t-25 -101t-18.5 -112t-13.5 -104.5t-9.5 -78q21 -27 54 -26q25 1 46 22.5t37.5 57t28 80.5t18 92.5t7.5 93.5t-4.5 82.5
t-17.5 60.5t-31 27z" />
    <glyph glyph-name="E" unicode="E" horiz-adv-x="357" 
d="M60 -2q-21 8 -30.5 49.5t-10 100t6 125.5t16.5 126.5t22 103.5t23 57q10 12 28 17t40 5t46.5 -4t47.5 -9.5t43 -11t34 -9.5q11 -3 8 -12.5t-14 -7.5q-17 3 -37.5 9t-39.5 10.5t-34 5.5t-20 -8q-7 -12 -13 -35t-11.5 -54t-9.5 -68t-7 -75q38 7 76 11.5t76 8.5
q10 -2 10.5 -10.5t-9.5 -10.5q-39 -5 -77.5 -9.5t-77.5 -11.5q-3 -46 -4.5 -89.5t-0.5 -78.5t4 -57.5t9 -26.5q11 -7 33 -2.5t46.5 13.5t47 21t35.5 20q9 6 15.5 -2.5t-3.5 -15.5q-30 -19 -67.5 -36.5t-75 -29t-71 -15t-54.5 5.5z" />
    <glyph glyph-name="F" unicode="F" horiz-adv-x="360" 
d="M335 535q6 -4 1 -10t-10 -2q-16 9 -37.5 17t-42 12.5t-36.5 5t-22 -5.5q-5 -6 -9.5 -25t-8.5 -47t-7.5 -63.5t-6.5 -74.5q44 2 85.5 2h77.5q9 0 9 -9.5t-9 -9.5q-43 -2 -83.5 -3.5t-81.5 -3.5q-4 -45 -7 -90.5t-6.5 -87.5t-7 -77.5t-7.5 -58.5q-2 -9 -18 -12.5
t-34.5 -2.5t-33.5 6t-16 13q-3 22 -3 68t3 103t9.5 119t17.5 116.5t26.5 95t37.5 54.5q18 12 45.5 16t58 0t61 -15.5t55.5 -29.5z" />
    <glyph glyph-name="G" unicode="G" horiz-adv-x="451" 
d="M225 305q-8 -2 -9.5 6t4.5 10q21 8 50.5 14t59.5 10t57.5 6t43.5 2q8 0 8.5 -8t-7.5 -8l-30 -3q-3 -19 -6.5 -48t-7 -62.5t-8 -68t-8 -64t-6.5 -51t-4 -28.5q-1 -8 -13.5 -12t-27 -3.5t-27 5t-12.5 13.5v20t0.5 40t2 53t3.5 61q-12 -38 -27.5 -71t-36.5 -55.5t-47 -33
t-59 -2.5q-41 9 -64 40.5t-30 75.5t-0.5 96.5t24.5 103.5t46.5 97.5t64.5 78t78 44t88 -2.5q23 -8 35 -25.5t16.5 -39.5t2.5 -43.5t-7 -36.5q-2 -8 -11 -6.5t-7 9.5q3 14 4.5 33t-1 37t-11.5 32t-28 20q-28 8 -53 -8t-46.5 -48t-39 -76t-29.5 -91.5t-17.5 -94t-3.5 -84
t12 -61t29 -25.5q22 -2 43 27.5t38.5 72.5t29.5 89.5t17 78.5q-22 -4 -41 -7.5t-32 -7.5z" />
    <glyph glyph-name="H" unicode="H" horiz-adv-x="485" 
d="M348 558q2 7 15 11t29 3.5t29.5 -4.5t16.5 -13q8 -32 6.5 -90t-8.5 -125h17q8 0 7.5 -10t-7.5 -10h-19q-6 -55 -13 -110t-13 -101.5t-9 -80.5t0 -47q1 -9 -7 -14t-20 -6t-23.5 3t-17.5 13q-14 24 -21.5 60.5t-9 81.5t1 95.5t7.5 101.5q-40 -2 -81 -5t-79 -6
q-2 -41 -5 -81t-7 -75.5t-8.5 -64.5t-10.5 -46q-2 -8 -18 -11.5t-34 -3t-33 5t-15 12.5q0 20 1 48t3.5 61t5 69.5t5.5 72.5l-15 -2q-3 -1 -5.5 2t-3.5 6.5t0.5 7t4.5 4.5l20 3q3 39 6.5 76t6.5 68t5 53t3 31q1 7 16.5 9.5t34 2t34 -4.5t15.5 -10q1 -30 0 -87.5t-4 -123.5
q40 4 81 6t80 4q8 64 17.5 121.5t18.5 99.5z" />
    <glyph glyph-name="I" unicode="I" horiz-adv-x="312" 
d="M11 11q-9 0 -9 9.5t8 9.5q16 0 34.5 0.5t38.5 0.5q-1 14 2 50.5t8 85t11 104t12 106t11.5 92t9.5 62.5l-67 -4q-5 0 -7 3t-2 7t2 7.5t6 3.5q26 2 56 3.5t59.5 2.5t57 1.5t49.5 0.5q8 0 8.5 -9.5t-7.5 -9.5h-29t-31 -1q-1 -19 -4 -58.5t-7.5 -89t-9.5 -104t-9.5 -104
t-8.5 -89.5t-6 -59q21 1 38.5 1t29.5 1q8 0 8.5 -9.5t-7.5 -9.5q-46 -1 -111 -2.5t-134 -1.5z" />
    <glyph glyph-name="J" unicode="J" 
d="M220 559q7 7 20 8.5t25 -1t19 -7t3 -10.5q-5 -7 -7 -31t-3 -58.5t-1.5 -77t-2.5 -87.5q35 8 55 21q8 5 11.5 -1.5t-2.5 -12.5q-19 -16 -65 -27q-2 -46 -7 -89.5t-14 -79.5t-22.5 -60t-34.5 -31q-28 -9 -54.5 -3.5t-49 20.5t-39.5 37t-27.5 46t-13 47t4.5 41q6 15 20.5 26
t34.5 19t44.5 14t50.5 11q1 44 3.5 88t8 82.5t16 69t27.5 46.5zM134 49q10 4 15.5 22t8.5 45.5t4 62t2 72.5q-24 -5 -45.5 -10.5t-39.5 -12t-30 -13.5t-16 -16q-5 -11 -3 -28t9 -35.5t17.5 -36.5t23.5 -31t27 -19t27 0z" />
    <glyph glyph-name="K" unicode="K" horiz-adv-x="426" 
d="M123 18q-3 -12 -19 -17t-34.5 -4.5t-33.5 6.5t-16 16q-1 20 0.5 63.5t4.5 98.5t6.5 116t7.5 115t7.5 95.5t6.5 58.5q1 7 16.5 11t34.5 4t34.5 -4t16.5 -13v-27.5t-1 -50.5t-2 -67t-3 -77q36 22 61.5 53.5t42 63t24 57.5t7.5 38q0 7 6.5 7.5t8.5 -4.5q14 -39 14 -67
t-9 -50q-8 -19 -23.5 -35.5t-41.5 -33.5q9 0 18 -2.5t19 -6.5q32 -14 51 -46t29.5 -71.5t15 -81t8 -75t8 -53.5t15.5 -17q4 1 7 -1t4 -5.5t0 -7t-5 -4.5q-50 -14 -78 4t-42 53.5t-17.5 81t-5 88.5t-4 75t-14.5 41q-17 12 -44.5 2t-56.5 -33q-2 -47 -5 -94t-6 -87t-6.5 -70
t-6.5 -43z" />
    <glyph glyph-name="L" unicode="L" horiz-adv-x="331" 
d="M77 572q1 6 17.5 8.5t35.5 2t34.5 -4t15.5 -9.5q-2 -26 -6 -74.5t-9 -105.5t-9 -117.5t-6 -111t-0.5 -85.5t7.5 -41q7 -8 23 -7t36 7t43 15t44 18q4 2 7.5 0t4.5 -5.5t0 -7.5t-4 -6q-20 -11 -57.5 -24t-77.5 -20.5t-74.5 -7.5t-49.5 14q-13 12 -19.5 45.5t-7.5 80.5
t3 103.5t11 115t17 115t21 102.5z" />
    <glyph glyph-name="M" unicode="M" horiz-adv-x="713" 
d="M69 571q2 7 16.5 10.5t31 2.5t30 -5.5t13.5 -12.5v-139q17 58 43.5 88t71.5 26q33 -3 56 -20t38 -46.5t23 -70t10 -89.5q10 55 26 105t38.5 86t53 53.5t71.5 8.5q30 -7 46 -34.5t22.5 -68t5 -90t-5 -100.5t-7 -99t-3 -86t7.5 -61.5t26 -25.5q9 -1 9 -9t-9 -9
q-47 -3 -74 18.5t-41 59t-17 86.5t-0.5 101t7 102.5t6 91t-3 67t-20.5 29.5q-23 4 -45 -30.5t-41.5 -103.5t-37 -169.5t-31.5 -226.5q0 -7 -16 -9t-35 0.5t-34.5 8t-15.5 12.5q0 28 3.5 74.5t7.5 100.5t7 109.5t0.5 101.5t-11.5 76.5t-28 34.5q-32 6 -52 -24t-32 -81
t-18.5 -114t-10.5 -122.5t-8.5 -107t-13.5 -66.5q-4 -9 -22 -12.5t-37.5 -2.5t-36 5t-17.5 12q-1 6 0 31t3.5 61.5t6.5 82.5t8 94.5t9 96t9.5 88t9 70t8.5 41.5z" />
    <glyph glyph-name="N" unicode="N" horiz-adv-x="535" 
d="M66 568q1 10 17.5 14.5t35.5 3t34 -9t14 -20.5l-16 -196q12 43 29 80.5t39 65.5t51 43t65 12q39 -3 65 -27.5t42 -63t24 -86.5t12 -97.5t5 -96.5t3.5 -83.5t7.5 -59t17 -21.5q7 0 9 -7t-6 -9q-51 -12 -81 4.5t-46 51t-21 82.5t-5 100t1 103.5t-3 92t-16.5 66t-40.5 25.5
q-34 1 -62 -39.5t-50 -111.5t-39 -168.5t-28 -210.5q-1 -9 -19 -12.5t-39.5 -3t-39 6.5t-16.5 17q0 5 2.5 30t6 63t8.5 85.5t10 97t10 97t9 86t7 64.5t4 32z" />
    <glyph glyph-name="O" unicode="O" horiz-adv-x="556" 
d="M239 -5q-67 6 -113.5 36t-73 75.5t-34.5 100.5t0.5 110t33.5 105.5t64.5 86.5t92 52.5t117.5 4.5q35 -7 63.5 -25t50.5 -44.5t37.5 -59.5t24.5 -69q8 3 15 6t15 7q9 3 13.5 -6t-3.5 -14l-35 -16q11 -63 1 -128.5t-43 -117t-89 -81.5t-137 -23zM419 317
q-63 -13 -108.5 -2.5t-74 35t-40.5 57.5t-8 65q-20 -36 -31.5 -83t-15 -96.5t1 -98.5t18 -87.5t35 -63.5t51.5 -28q42 -4 74 22t54 69.5t33 99t11 111.5zM311 543q-31 6 -55 -4q-23 -10 -35 -31.5t-12 -47t12 -51.5t38 -45t65.5 -26.5t93.5 3.5q-2 37 -9.5 71.5t-20.5 61.5
t-32.5 45t-44.5 24z" />
    <glyph glyph-name="P" unicode="P" horiz-adv-x="403" 
d="M124 11q-1 -7 -16.5 -10t-34 -2t-34 5t-15.5 10q-1 22 -1 66t2 99t5 115t7.5 114.5t10 98t12.5 65.5q3 7 19 10.5t34 3t32.5 -4.5t14.5 -12q0 -35 -3 -90q18 46 47 71t73 19t68.5 -34.5t32.5 -67t-0.5 -81t-31.5 -77t-59.5 -55t-84.5 -15.5q-17 2 -31.5 10t-25.5 19
q-2 -18 -4 -39t-4 -50t-5.5 -69.5t-7.5 -98.5zM263 551q-26 3 -45 -16t-32.5 -54.5t-22.5 -84.5t-15 -105q10 -14 21 -23t23 -11q24 -3 43.5 17t33 52t21 70.5t7.5 72t-8.5 57t-25.5 25.5z" />
    <glyph glyph-name="Q" unicode="Q" horiz-adv-x="524" 
d="M348 38q-55 -32 -117.5 -29.5t-113.5 37t-80.5 101t-19.5 163.5q6 52 23 101t47.5 86t75 58.5t103.5 18.5q58 -2 99.5 -26t68 -63t38 -89t9.5 -105q-4 -89 -35.5 -149t-79.5 -93l22 -37q3 -4 1.5 -8.5t-4.5 -7t-7 -2.5t-7 5zM387 287q1 45 -3.5 91.5t-18 85t-37.5 63
t-61 26.5q-32 2 -56.5 -21.5t-41 -62t-25 -87t-9.5 -95.5q-2 -65 5.5 -112.5t21.5 -79t34 -47.5t43 -17q23 -2 44.5 11t40.5 37l-87 152q-3 4 -1.5 8t5 6t7.5 1t7 -5l83 -143q20 33 33.5 81t15.5 108z" />
    <glyph glyph-name="R" unicode="R" horiz-adv-x="415" 
d="M66 569q1 10 17 15.5t35 5.5t34 -7.5t15 -23.5q0 -53 -3 -108q26 61 65.5 95t85.5 26q31 -6 40 -30.5t2.5 -56t-25 -65t-42.5 -55.5q27 -17 42 -50t22 -73t8.5 -81.5t1 -75.5t-0.5 -57t5 -24q10 -3 7 -11.5t-12 -6.5q-28 6 -45.5 33.5t-28 65.5t-16 81.5t-9.5 82t-9 66
t-14 33.5q-17 11 -39 7t-45 -16q-8 -95 -18.5 -182.5t-19.5 -152.5q-2 -13 -18 -18t-35 -3t-34 10.5t-15 21.5q2 60 6.5 134t11.5 150t15 146.5t16 123.5zM302 553q-10 7 -30 -1.5t-42 -32t-42 -63t-30 -94.5q40 19 71 49t50.5 59t25.5 52.5t-3 30.5z" />
    <glyph glyph-name="S" unicode="S" horiz-adv-x="363" 
d="M281 456q-3 -10 -12 -8t-7 13q9 41 -2.5 60t-29 20.5t-34 -12.5t-16.5 -39q-1 -23 11 -47t30 -50.5t38.5 -55t37.5 -59t26.5 -64.5t6.5 -70q-5 -51 -34.5 -82.5t-69 -43.5t-82 -6t-73.5 31t-43.5 68t7.5 104q2 5 6 6t7.5 -1t5 -6t-0.5 -9q-14 -40 -9 -71.5t21 -52.5
t38.5 -30t44.5 -3t39 28t22 63q4 40 -13.5 81.5t-40 84t-40 86t-13.5 86.5q3 28 19.5 48t39.5 30.5t47.5 10.5t43.5 -11.5t28 -36t1 -62.5z" />
    <glyph glyph-name="T" unicode="T" horiz-adv-x="349" 
d="M22 534q-11 1 -11.5 11t11.5 11q30 1 67.5 2.5t78 2.5t82 2.5t79.5 3.5q10 -3 10 -11.5t-10 -10.5q-24 -1 -50 -2t-53 -3q-1 -32 -4 -76t-7 -94t-9 -102.5t-10 -100.5t-9 -88.5t-7 -66.5q-1 -8 -17.5 -11t-35.5 -2t-34.5 6t-15.5 14q1 24 4.5 82.5t9 133t12 154.5
t15.5 146q-29 -2 -53 -2t-43 1z" />
    <glyph glyph-name="U" unicode="U" horiz-adv-x="447" 
d="M100 557q4 7 16.5 9t26 -0.5t23.5 -8t10 -13.5q-1 -31 -8 -80.5t-14 -106t-12.5 -114.5t-3.5 -106t13 -79.5t36 -35.5q27 -5 47.5 21t35.5 70.5t26 102.5t19 118.5t14.5 117.5t12.5 100q1 6 8.5 7.5t16 0t16 -5.5t8.5 -9q10 -73 12 -142.5t-6 -131t-25.5 -112.5
t-45.5 -87t-66 -54.5t-87 -14.5q-48 4 -80 33.5t-49.5 75.5t-21.5 104t4 118.5t27 118.5t47 104z" />
    <glyph glyph-name="V" unicode="V" horiz-adv-x="341" 
d="M120 9q-34 1 -53.5 25t-29.5 61.5t-12 86t0 98.5t6 98t6.5 86t1 61.5t-10.5 25.5q-7 1 -6.5 9t11.5 8q36 1 58 -21.5t33 -60t14 -85.5t1.5 -99t-6 -99.5t-8 -86.5t-3.5 -61.5t6 -24.5q17 -2 35 28t36 77.5t34 106.5t29.5 115.5t22 103.5t11.5 72q1 5 7.5 5.5t6.5 -7.5
q0 -30 -5.5 -80.5t-16 -109t-26 -118.5t-36.5 -108t-47.5 -78t-58.5 -28z" />
    <glyph glyph-name="W" unicode="W" horiz-adv-x="570" 
d="M97 -9q-34 4 -51.5 30t-23.5 66t-2.5 89.5t11.5 101.5t18.5 102t19.5 90t13.5 66t0.5 31q-6 6 -2.5 13t14.5 3q29 -13 44 -44t20 -73t1.5 -91t-10.5 -98.5t-15.5 -95.5t-14.5 -82.5t-7.5 -59t6.5 -24.5q9 -2 19.5 13t20.5 42.5t19.5 63.5t18.5 76q15 70 25 115t19.5 71.5
t21 38t31.5 14.5q29 5 51 -24.5t39 -75.5t31.5 -100t27.5 -98.5t27 -71t31 -17.5q15 8 12.5 43.5t-13 85t-24 106.5t-21.5 107.5t-5.5 89t24.5 50.5q8 4 11 -0.5t-1 -9.5q-18 -22 -15.5 -65.5t14 -96.5t27 -110t23 -106.5t1.5 -86t-36 -47.5q-32 -12 -57.5 -2t-45.5 34.5
t-35.5 59.5t-27.5 73.5t-21 77t-16 68.5t-12.5 48t-11.5 17t-11.5 -18t-11.5 -44t-13 -61.5t-15 -70.5q-9 -41 -19.5 -80t-25 -70t-33.5 -48.5t-45 -14.5z" />
    <glyph glyph-name="X" unicode="X" horiz-adv-x="343" 
d="M290 506q4 5 9 6t8.5 -1t5.5 -6t0 -9l-91 -156q17 -44 32.5 -87.5t28 -81.5t22.5 -70t16 -53q2 -8 -7.5 -18t-23 -17.5t-28 -10.5t-21.5 3q-10 7 -21.5 25.5t-24.5 45t-27 58.5t-27 68l-110 -186q-2 -4 -6 -4.5t-8 2t-5.5 6t0.5 8.5q1 4 11.5 22t26.5 46.5t36.5 64
t43.5 73.5q-17 46 -32.5 92t-28 85.5t-21.5 70.5t-13 46q0 10 12.5 18t28 12.5t30 4.5t17.5 -5q22 -39 44.5 -87t42.5 -100l80 135v0z" />
    <glyph glyph-name="Y" unicode="Y" horiz-adv-x="367" 
d="M20 485q1 4 11 7.5t22 4.5t22.5 -1t12.5 -7q15 -39 19.5 -82.5t6.5 -80.5t4.5 -62t13.5 -27q10 -4 21 13.5t21.5 47t20.5 67t19.5 76t18 72.5t16.5 57q3 8 16 10.5t27 1t26 -6.5t12 -11q7 -72 2.5 -142.5t-18 -134.5t-34.5 -118t-47 -93.5t-56.5 -61.5t-61.5 -20
q-10 1 -9 11.5t10 9.5q24 -5 38.5 18t23 64t13.5 96t11 115q-8 -22 -18 -41.5t-22 -33t-26.5 -20.5t-31.5 -5q-32 3 -52.5 31t-30.5 68.5t-10 88t9 89.5z" />
    <glyph glyph-name="Z" unicode="Z" horiz-adv-x="349" 
d="M33 517q-7 -3 -11 4.5t5 12.5q20 11 58.5 21t81.5 12t82 -6t60 -33q24 -29 19 -72t-25.5 -91.5t-51.5 -98.5t-58.5 -93t-46 -75t-14.5 -44q3 -12 19.5 -13t37.5 3t41.5 11t31.5 13q11 3 15.5 -3.5t-4.5 -12.5q-16 -8 -48.5 -19t-68.5 -16.5t-68.5 -2t-48.5 23.5
q-20 27 -11 69.5t34 92t58.5 101.5t62 97.5t45 80.5t7.5 50q-6 10 -28 14t-51.5 2.5t-62.5 -8.5t-60 -20z" />
    <glyph glyph-name="bracketleft" unicode="[" horiz-adv-x="285" 
d="M194 573q-8 -8 -17 -38t-18 -73t-17 -95.5t-15 -106t-12 -104.5t-8 -91t-4 -65.5t2 -28.5q4 -5 13.5 -3.5t20 5.5t21 9t18.5 9q10 5 15.5 -3t-4.5 -14q-52 -26 -88.5 -28t-47.5 7q-17 13 -25 60t-8.5 111.5t6.5 139t20 143t32 121.5t43 76q8 8 28 8.5t43 -4t45 -13
t35 -19.5q6 -5 1 -11t-11 -3q-27 17 -43 19t-25 -8z" />
    <glyph glyph-name="backslash" unicode="\" horiz-adv-x="195" 
d="M101 558q5 -15 13 -56.5t16.5 -96t17.5 -116t16.5 -116t12.5 -95t7 -53.5q1 -10 -12.5 -17.5t-31 -11t-33 -1.5t-18.5 10q-3 11 -10 48t-15 88t-17 110.5t-16.5 115.5t-13 102.5t-6.5 72.5q0 9 12.5 16.5t28.5 10.5t30.5 1t18.5 -12z" />
    <glyph glyph-name="bracketright" unicode="]" horiz-adv-x="295" 
d="M15 -34q-8 4 -3 11.5t13 4.5q18 -8 36.5 -15.5t29.5 0.5q8 6 16.5 35.5t16 73t15 97t13 109t9.5 108t5.5 94.5t0.5 68t-5 29q-8 5 -18.5 4t-21 -5.5t-20.5 -10.5t-16 -11q-7 -5 -13.5 1.5t1.5 12.5q22 15 45 23.5t43 11.5t34.5 2t19.5 -5q18 -12 28.5 -46t15 -81.5
t2.5 -104t-9 -114t-18 -112t-26 -98t-32.5 -71.5t-36.5 -32q-24 -5 -58.5 -1t-66.5 22z" />
    <glyph glyph-name="asciicircum" unicode="^" horiz-adv-x="198" 
d="M11 405q13 55 28.5 86t32 46t32 17.5t27.5 0.5q15 -3 25.5 -21t17 -42t9.5 -49.5t4 -44.5q0 -4 -3.5 -7t-8.5 -3.5t-9.5 1.5t-4.5 8q-2 26 -5.5 49.5t-8 41t-9.5 28t-11 10.5q-10 1 -18 -18.5t-14 -44.5t-10.5 -48.5t-8.5 -29.5q-3 -5 -14.5 -5t-23.5 3t-20.5 9t-6.5 13z
" />
    <glyph glyph-name="underscore" unicode="_" horiz-adv-x="266" 
d="M16 3q-6 0 -5 10t6 10l229 6q8 0 9 -10t-7 -10z" />
    <glyph glyph-name="grave" unicode="`" horiz-adv-x="103" 
d="M12 475q-3 4 1.5 10.5t12.5 11t16 5t11 -6.5l38 -94q4 -8 -4 -12t-13 1z" />
    <glyph glyph-name="a" unicode="a" horiz-adv-x="434" 
d="M378 344q4 -25 2.5 -58t-5.5 -68.5t-8.5 -70.5t-6.5 -63t0.5 -46t12.5 -20q12 -2 26.5 17.5t28 47.5t24 58t14.5 49q1 4 3.5 5.5t5.5 1t5 -3t1 -6.5q-5 -25 -16.5 -60.5t-29 -68.5t-41 -56t-53.5 -21q-42 2 -66 39t-29 98q-17 -53 -41.5 -88t-62.5 -33q-50 2 -79.5 30
t-40.5 68.5t-3.5 86.5t30.5 83t60.5 59t88.5 15q39 -6 67 -34q2 11 5 21t6 21q3 8 18 14t33 7t33.5 -4t17.5 -20zM161 29q12 -3 22.5 8t20 31t18 47.5t15.5 56.5t12.5 58t9.5 53q-14 21 -35 22q-20 1 -36 -17.5t-27.5 -48t-18 -64.5t-7 -66t5.5 -53.5t20 -26.5z" />
    <glyph glyph-name="b" unicode="b" horiz-adv-x="385" 
d="M360 183q-5 -31 -22.5 -64.5t-45.5 -60.5t-65 -42.5t-82 -9.5l-3 -7q-4 -8 -16.5 -13t-27.5 -6t-28.5 4t-18.5 18q-5 11 -10 42.5t-9.5 76t-7 97.5t-1.5 106.5t7 103t18 87.5t32 60t49 20q24 -2 33 -17.5t7 -41t-13.5 -60.5t-27.5 -77q7 -35 14 -74t12 -78q11 38 36 62.5
t72 18.5q55 -8 82 -45t16 -100zM232 309q-19 2 -30.5 -14t-19 -42t-11 -59t-6.5 -65t-6 -60t-8 -45q19 0 33 13t25 34.5t18.5 48.5t12.5 55q4 25 7 48t3 41.5t-4 30.5t-14 14zM134 574q-12 2 -17.5 -7t-6.5 -27t2.5 -43.5t8.5 -55.5q20 59 25 94.5t-12 38.5z" />
    <glyph glyph-name="c" unicode="c" horiz-adv-x="332" 
d="M281 253q-3 -11 -13 -9.5t-8 12.5q7 35 -3 59t-39 26q-22 1 -39 -22.5t-27.5 -59.5t-13.5 -78.5t3.5 -79.5t23.5 -62.5t46 -27.5q25 -2 48.5 13t43.5 40.5t35.5 58.5t24.5 67q3 9 10.5 8.5t4.5 -11.5q-9 -39 -26.5 -77.5t-43.5 -68t-61.5 -46.5t-80.5 -14
q-58 4 -92.5 35.5t-47.5 76t-6.5 94.5t28.5 92.5t58.5 69t84.5 24.5q31 -2 50 -14t29.5 -30t12.5 -38.5t-2 -37.5z" />
    <glyph glyph-name="d" unicode="d" horiz-adv-x="389" 
d="M178 305q12 -5 20 -12q3 59 13.5 116t28.5 100.5t44.5 67.5t60.5 18q22 -4 29 -27.5t2.5 -60t-18 -82.5t-31.5 -95q-1 -60 -5.5 -111t-6.5 -89t0 -61.5t13 -27.5q10 -4 24 10t27.5 36.5t24.5 50.5t16 52q2 9 9.5 8t5.5 -11q-5 -26 -17.5 -60t-32.5 -63t-47.5 -47.5
t-62.5 -13.5q-22 2 -37 27t-25 64q-32 -44 -68 -62.5t-76 1.5q-30 16 -43 46t-12.5 64t13.5 68.5t35 59t51.5 35.5t64.5 -1zM126 52q15 -5 36 16t44 59q-9 52 -9 116q-2 20 -8 32t-17 13q-14 1 -25.5 -15.5t-20 -42t-13.5 -55.5t-5.5 -56.5t4 -45t14.5 -21.5zM345 569
q-5 0 -8 -12.5t-4.5 -35t-2.5 -52.5t-2 -65q10 34 17.5 63.5t10 52t0 35.5t-10.5 14z" />
    <glyph glyph-name="e" unicode="e" horiz-adv-x="314" 
d="M226 261q-17 -10 -37 -15.5t-41 -10.5q-6 -32 -7 -66.5t4.5 -64t16.5 -50t29 -24.5q15 -3 35 3.5t41 25t41.5 51t36.5 80.5q3 9 10 8.5t5 -11.5q-17 -63 -44.5 -102.5t-59.5 -59.5t-65 -25t-61 1q-48 10 -74.5 41.5t-34 73t1 87t30.5 83t55.5 61t75.5 21.5
q27 -2 45.5 -14t25 -28.5t0 -34t-28.5 -30.5zM177 314q-8 -11 -14 -26t-11 -32q18 5 34.5 10t30.5 14q19 12 20.5 26t-7.5 22t-24 6.5t-29 -20.5z" />
    <glyph glyph-name="f" unicode="f" horiz-adv-x="246" 
d="M240 520q-6 -19 -25 -43.5t-42 -55.5q-4 -51 -5.5 -109.5t-6.5 -115.5l-7 -91q11 3 27.5 9t34.5 16t34 24.5t27 35.5q5 8 12.5 7.5t2.5 -10.5q-10 -22 -25.5 -38t-33 -27.5t-33.5 -19t-28 -10.5q20 -11 32.5 -34t18 -50.5t4.5 -56.5t-10 -53t-25 -40t-39 -17
q-32 -2 -56.5 27.5t-41 80t-24 116t-5.5 136.5q2 57 13.5 113t28.5 104t39 85.5t45 58.5q13 12 30.5 14.5t32.5 -2.5t23.5 -19t1.5 -35zM172 -134q9 0 17.5 13.5t13 35t5 47t-5 49.5t-18 43t-33.5 27q-4 -44 -6.5 -83t-1.5 -68.5t7.5 -46.5t21.5 -17zM195 544
q-8 -12 -12.5 -35t-7.5 -54q17 22 30.5 39.5t18.5 33.5q2 7 0 14t-6.5 10.5t-10.5 2t-12 -10.5z" />
    <glyph glyph-name="g" unicode="g" horiz-adv-x="400" 
d="M357 347q5 -66 -0.5 -140.5t-22.5 -145.5q34 26 60 57t37 72q2 10 9.5 8.5t5.5 -11.5q-9 -49 -42.5 -87t-76.5 -69q-20 -72 -53 -127.5t-80 -77.5q-24 -11 -45 -4t-32.5 23.5t-10 39t22.5 42.5q14 14 35 28t46 28q11 61 20 132q-22 -50 -54.5 -76.5t-78.5 -14.5
q-40 10 -60 40t-22.5 68t11.5 77.5t41.5 70t68 45.5t91.5 4q18 -4 32 -17l9 43q2 10 16 13.5t30 1.5t29 -8t14 -15zM255 290q-8 10 -18 12q-17 2 -33.5 -14.5t-30.5 -42.5t-24 -57.5t-13.5 -59.5t0 -47.5t17.5 -22.5t28 15t27 50t25 75.5t22 91.5zM166 -144q11 8 21 35
t18 65q-21 -13 -37.5 -24t-26.5 -22q-14 -14 -16 -27t3.5 -21.5t15.5 -11t22 5.5z" />
    <glyph glyph-name="h" unicode="h" horiz-adv-x="444" 
d="M299 325q36 -6 53.5 -32.5t24 -63t5.5 -77t-3 -75.5t-1 -58t12 -24q7 0 15 10.5t16.5 28.5t16.5 40t15 44t12.5 41t9.5 31q2 9 10 8t5 -11q-11 -42 -23 -84t-28.5 -75t-39 -52.5t-55.5 -15.5q-45 6 -61 32t-16.5 63t8.5 78.5t15.5 77.5t4 62t-26.5 31q-23 5 -41 -10
t-31 -42.5t-22 -63.5t-15 -71.5t-9 -67.5t-5 -52q-1 -9 -12.5 -14t-25.5 -5.5t-27.5 4.5t-18.5 15q-9 20 -17 57t-13 84.5t-6.5 100.5t1.5 103.5t12 95t24 75t38 43t55 -1.5q17 -8 21.5 -24t0 -38.5t-16 -51t-26.5 -60.5q2 -48 4.5 -102t4.5 -106q9 37 21.5 67.5t31 51.5
t44 30.5t59.5 3.5zM155 537q-13 7 -17 -24t-4 -83q18 45 24.5 73.5t-3.5 33.5z" />
    <glyph glyph-name="i" unicode="i" horiz-adv-x="203" 
d="M35 310q4 15 19 23t32.5 9t32.5 -5.5t19 -21.5q6 -25 6.5 -55.5t-2 -61.5t-6 -60t-6 -52.5t-2 -39t6.5 -17.5q10 -4 24 9.5t28.5 37t27 54t19.5 60.5q3 9 10.5 8.5t4.5 -11.5q-7 -26 -18.5 -58.5t-28.5 -61t-39 -48.5t-49 -20q-38 0 -59.5 30t-30 76.5t-5 101.5t15.5 103
zM89 457q11 0 17.5 -6.5t8 -15t-3.5 -16.5t-17 -11t-19 4t-8 17t4.5 19t17.5 9z" />
    <glyph glyph-name="j" unicode="j" horiz-adv-x="190" 
d="M52 352q2 8 15.5 12.5t29 4t28.5 -5.5t13 -15q3 -62 2 -136t-9 -146q31 31 56 62t34 62q3 9 10.5 8.5t5.5 -11.5q-4 -18 -14.5 -37t-25.5 -38.5t-33 -39t-37 -38.5q-7 -51 -18 -94.5t-27 -72.5q-14 -26 -37 -36t-43 -6t-31.5 20.5t-1.5 44.5q5 16 18 33t30 35v76.5t3 93
t10.5 107t21.5 117.5zM73 431q0 10 6.5 15t15 5.5t15 -4.5t6.5 -16q0 -12 -6.5 -16.5t-15 -4t-15 6t-6.5 14.5zM15 -127q2 9 2 22.5v29.5q-23 -24 -29 -43q-4 -10 -0.5 -17.5t9 -10t11 1.5t7.5 17z" />
    <glyph glyph-name="k" unicode="k" horiz-adv-x="370" 
d="M243 468q-15 -29 -39 -59.5t-51 -65.5q-4 -43 -6.5 -86.5t-4.5 -85.5q18 43 40.5 77.5t44.5 54.5q21 19 41.5 18.5t33 -13.5t14 -34t-14.5 -42q-9 -12 -22 -23.5t-30 -22.5q12 -5 24 -19q12 -15 17.5 -36.5t8.5 -42.5t6 -37.5t11 -20.5q12 -6 24 9t23 40.5t20.5 56
t17.5 54.5q3 11 10 8.5t5 -11.5q-9 -33 -20.5 -69.5t-26.5 -66.5t-35.5 -47.5t-47.5 -11.5q-30 6 -47 27.5t-27 47t-17 48.5t-17 33l-19 -8q-11 -35 -14.5 -68t-10.5 -68q-2 -9 -17 -14t-33.5 -5.5t-34 4t-17.5 16.5q-8 62 -8 139.5t9 152.5t28 139.5t49 101.5q21 26 52 32
t55.5 -4.5t34.5 -35.5t-9 -62zM184 519q-9 -23 -16 -60.5t-12 -82.5q23 32 42.5 59.5t30.5 48.5q10 18 7 33.5t-12 22.5t-20.5 3.5t-19.5 -24.5zM245 295q-15 -14 -34 -42t-36 -70q5 2 10.5 4t10.5 3q24 20 44.5 43t31.5 41q9 16 -1 25t-26 -4z" />
    <glyph glyph-name="l" unicode="l" horiz-adv-x="215" 
d="M147 408l-2 -137q-1 -53 -2.5 -97.5t-1 -77t4 -51.5t14.5 -22q12 -3 24 12.5t23 41t21 56t18 57.5q4 11 10.5 8t4.5 -11q-8 -28 -16.5 -61.5t-21 -62.5t-31.5 -49t-47 -20q-34 -1 -58 20t-38.5 58.5t-20 89t-1.5 111.5q6 90 22 151.5t38 99.5q19 32 45 44.5t45.5 7
t25.5 -28.5t-14 -61zM153 506q-2 -12 -3 -26.5t-2 -31.5l26 49q13 25 12.5 40t-7 18t-15 -8.5t-11.5 -40.5z" />
    <glyph glyph-name="m" unicode="m" horiz-adv-x="664" 
d="M39 352q3 12 18 14.5t32.5 -0.5t32.5 -10.5t17 -16.5q9 -51 12 -101q7 30 17.5 57t27 45.5t39 27.5t52.5 3q31 -6 52 -20.5t34 -34t19 -44t7 -49.5q9 26 20.5 49t26 40t32 26t38.5 7q44 -5 65 -30t27 -60t2 -74.5t-8.5 -73t-5.5 -57t11 -26.5q9 -2 21.5 12.5t25 38.5
t24 54.5t18.5 60.5q1 4 3.5 6t5.5 2t5 -2.5t1 -8.5q-4 -32 -17 -70.5t-33.5 -70.5t-49 -51t-62.5 -13q-33 6 -45 31.5t-12 61.5t7.5 76.5t13.5 76t7 60.5t-13 30q-17 6 -31.5 -5t-27 -34.5t-23.5 -56t-21.5 -69.5t-20 -75t-19.5 -72q-2 -6 -16.5 -11t-32 -6t-34 3.5
t-20.5 17.5q-6 18 -2.5 50t10 68.5t13 74.5t7.5 69.5t-6.5 52t-29.5 22.5q-26 2 -42.5 -20t-27 -58t-16.5 -80t-10.5 -85t-9 -74t-12.5 -47q-6 -11 -20.5 -12.5t-30 2t-28.5 12t-15 17.5q-11 43 -14 98t-1.5 106.5t6 92t7.5 53.5z" />
    <glyph glyph-name="n" unicode="n" horiz-adv-x="443" 
d="M53 351q2 10 15.5 13.5t29 2t29 -8t16.5 -17.5q7 -26 7 -60t-2 -70q17 60 45 92.5t80 26.5q36 -4 59 -19t36.5 -37.5t18.5 -50t4 -56.5q-1 -31 -6 -59t-9 -50.5t-5 -37.5t5 -18q10 -6 22.5 5.5t25.5 37t26 62.5t24 83q2 10 9.5 8.5t5.5 -11.5q-3 -13 -8.5 -36t-14 -49
t-20 -52t-27 -45.5t-35 -28.5t-43.5 -2q-26 8 -40 28t-19 47.5t-4.5 59t3.5 62.5q2 26 3.5 50.5t-0.5 43t-10.5 30.5t-26.5 14q-20 2 -34 -14t-24.5 -43t-18.5 -61t-14.5 -68t-13 -64t-14.5 -48q-5 -12 -17.5 -17t-27 -4.5t-27 6.5t-18.5 16q-12 20 -15 58.5t0 85.5t11 98.5
t19 96.5z" />
    <glyph glyph-name="o" unicode="o" 
d="M23 197q7 36 28 67t51 49.5t67 22t76 -15.5q41 -20 52.5 -65t2.5 -108q-3 -17 -9 -34q24 6 44.5 25t31.5 52q3 9 10.5 8.5t4.5 -11.5q-15 -45 -42 -66.5t-56 -26.5q-20 -46 -61.5 -74t-98.5 -17q-38 7 -60.5 26.5t-34 46t-12 58t5.5 63.5zM175 267q-13 -23 -12 -49.5
t13 -49.5t33 -39t49 -19q3 8 5.5 17t4.5 19q4 24 6 47.5t0 43t-9 34t-19 22.5q-19 11 -39.5 2t-31.5 -28zM251 93q-24 2 -43.5 13t-33.5 28t-22 38.5t-8 45.5q-7 -17 -14 -47.5t-7.5 -61t9.5 -55.5t37 -29q25 -4 46.5 16t35.5 52z" />
    <glyph glyph-name="p" unicode="p" horiz-adv-x="358" 
d="M40 339q1 7 13.5 11t27.5 4.5t27 -3t12 -10.5v-65.5t-1 -60.5q8 26 19 48t25 37.5t31.5 23.5t38.5 6q42 -4 67 -30t33 -62t0 -76.5t-31 -73t-61 -52.5t-89 -14q-21 3 -34 13q-6 -58 -10.5 -110.5t-10.5 -86.5q-1 -8 -14.5 -12.5t-29 -4.5t-28.5 4.5t-13 13.5
q0 60 2 125.5t5.5 131t8.5 127.5t12 116zM223 308q-23 2 -40 -18t-29 -54.5t-19.5 -79t-13.5 -92.5q13 -17 32 -20t36 14.5t30 46.5t21 63.5t9.5 65t-5 51.5t-21.5 23z" />
    <glyph glyph-name="q" unicode="q" horiz-adv-x="409" 
d="M344 354q-2 -80 -7.5 -148t-13.5 -125q51 17 78.5 45.5t38.5 63.5q2 9 9.5 7.5t5.5 -10.5q-8 -29 -23 -50.5t-33 -36t-38.5 -24t-40.5 -14.5v-1q18 -10 30 -24t17 -26q12 -28 8 -62t-18.5 -63.5t-37 -48t-47.5 -15.5q-29 4 -45 30.5t-22 67.5t-5 92.5t7 105.5
q-18 -36 -44 -60.5t-61 -23.5q-27 1 -45.5 13.5t-29 33t-13 45.5t2.5 51q6 31 20.5 57.5t34.5 45.5t45 30t53 11q38 1 64 -13l9 53q4 10 20.5 15.5t34.5 4.5t32 -7.5t14 -19.5zM130 65q23 -5 49 54.5t52 169.5q-9 6 -21 6q-15 0 -29 -16.5t-26 -41.5t-20.5 -54.5t-12.5 -55
t-2.5 -43.5t10.5 -19zM353 -2q-3 11 -13 20.5t-24 17.5q-13 -83 -20 -129.5t7 -51.5q9 -3 20.5 11.5t19.5 37.5t12 48.5t-2 45.5z" />
    <glyph glyph-name="r" unicode="r" horiz-adv-x="397" 
d="M90 -1q-2 -7 -13 -11t-23.5 -4t-22.5 4.5t-11 15.5q-3 88 4 170.5t20 163.5q-14 11 -21.5 26t-7.5 35q0 17 7 29t19.5 18.5t28.5 8t33 -2.5q18 -4 30.5 -16.5t19 -30.5t9 -41.5t1.5 -49.5q27 -7 55 -12.5t52 -11t42.5 -12.5t26.5 -16q14 -16 14.5 -40.5t-6.5 -52.5
t-18 -56.5t-19.5 -53.5t-11.5 -43t6 -24q10 -7 27 11t35.5 48.5t35.5 68t26 70.5q2 9 9.5 8.5t5.5 -11.5q-9 -36 -26 -79t-39.5 -77t-49 -51t-54.5 -2q-24 12 -33.5 36t-10.5 53.5t3.5 60.5t10.5 58.5t9.5 48t0.5 28.5q-6 13 -32 19t-60 13q-3 -41 -12.5 -85.5t-20.5 -85
t-22 -73.5t-17 -52zM34 399q1 -19 15 -34l6 34q2 11 -1.5 15.5t-8 4t-8 -6t-3.5 -13.5z" />
    <glyph glyph-name="s" unicode="s" horiz-adv-x="251" 
d="M201 294q1 -12 -7 -14t-9 9q-2 19 -10.5 30t-19.5 14.5t-22.5 0.5t-17.5 -11q-11 -14 -3 -35t23 -47t33 -55.5t28 -60.5q28 12 51 27t35 38q5 10 11.5 7.5t3.5 -10.5q-12 -28 -38 -47t-58 -33q2 -13 2.5 -25.5t-1.5 -24.5q-6 -32 -34 -51.5t-58.5 -24.5t-54.5 6.5
t-22 42.5q1 17 16 29.5t38 23.5q-10 17 -23.5 34.5t-25.5 37.5t-20.5 42.5t-8.5 48.5q0 31 14.5 54t35.5 37t45.5 19t46 -0.5t35.5 -20.5t15 -41zM102 42q-2 12 -6 24q-17 -7 -27.5 -14.5t-12.5 -16.5q-3 -13 4.5 -19t17 -5.5t17.5 8.5t7 23z" />
    <glyph glyph-name="t" unicode="t" horiz-adv-x="255" 
d="M171 382q-11 -62 -23 -128.5t-19 -122t-6 -92.5t18 -40q22 -4 45 17t43 52.5t35.5 65.5t21.5 56q2 9 9.5 8.5t5.5 -11.5q-5 -22 -19.5 -57t-35.5 -69t-48 -58.5t-57 -25.5q-47 -2 -73.5 24.5t-36 77.5t-5.5 124t19 164l-43 -5q-6 -1 -9 2t-3 7t2.5 8t8.5 5l48 6
q7 41 15.5 83.5t18.5 89.5q1 8 15.5 13.5t32 7t33.5 -1.5t20 -13q8 -19 3.5 -63t-13.5 -101l59 7q5 1 8.5 -2t4.5 -7t-0.5 -8t-6.5 -5z" />
    <glyph glyph-name="u" unicode="u" horiz-adv-x="415" 
d="M56 332q3 10 15 15.5t25.5 7t25 -1.5t13.5 -10q7 -25 5.5 -57t-6.5 -66.5t-11.5 -68t-9.5 -60.5t-0.5 -45t14.5 -21q11 -3 23 13t24.5 44t24.5 64t22.5 72.5t19.5 69.5l15 55q3 10 18.5 16t34 6t33.5 -5.5t17 -18.5q3 -21 0 -51.5t-8.5 -63.5t-10.5 -66t-6.5 -60t2.5 -46
t17 -23q9 -3 22 10.5t26.5 36.5t25.5 52.5t19 59.5q2 10 9.5 8.5t5.5 -11.5q-6 -27 -16.5 -60t-27 -61.5t-39 -47.5t-50.5 -18t-46.5 12.5t-30.5 30.5t-17.5 43.5t-6.5 52.5q-12 -36 -25.5 -64.5t-29.5 -48t-35.5 -27.5t-42.5 -3q-27 6 -43 25.5t-23.5 47.5t-7 62t5 69.5
t13 69.5t17.5 62z" />
    <glyph glyph-name="v" unicode="v" horiz-adv-x="325" 
d="M145 327q4 -28 2 -60t-6 -64t-9 -61.5t-7.5 -52.5t0 -37t12.5 -15q11 -1 22.5 15.5t23 43.5t23 62t22.5 71t20.5 69.5t18.5 58.5q2 8 11 6.5t8 -9.5q-2 -17 -8.5 -48t-8.5 -63t4 -57.5t29 -29.5q21 -4 35 7t19 27q2 9 10 8.5t5 -11.5q-8 -29 -27 -39t-43 -9q-35 2 -53 29
q-12 -37 -26.5 -67.5t-31.5 -53t-35.5 -34.5t-38.5 -11q-30 1 -52.5 24.5t-32.5 66.5t-5.5 103t28.5 134q2 7 16 12t30 6t29.5 -3.5t15.5 -17.5z" />
    <glyph glyph-name="w" unicode="w" horiz-adv-x="538" 
d="M253 282q2 13 16 18.5t29.5 4.5t29.5 -8t16 -19q9 -42 9.5 -91t1.5 -90.5t7.5 -67t26.5 -19.5q15 4 28 26.5t21.5 54.5t11.5 70.5t-1 74t-16 65.5t-34 45q-8 6 -2.5 15t16.5 2q23 -15 37.5 -38.5t24.5 -52.5q5 -15 17.5 -40t27 -43t28 -22t21.5 23q2 9 10 8.5t5 -11.5
q-6 -21 -17 -29.5t-24.5 -7.5t-28 10t-27.5 24q0 -33 -6 -65.5t-17.5 -58.5t-28 -44.5t-37.5 -24.5q-30 -9 -56 -1t-45.5 29t-32.5 53t-18 72q-14 -33 -31.5 -64t-38 -54.5t-42.5 -36t-45 -7.5q-29 6 -44 29.5t-20.5 57t-3.5 72.5t8 75.5t13.5 66t13.5 44.5q4 12 19 18
t30.5 5.5t28.5 -7.5t13 -19q1 -17 -4.5 -46t-13.5 -63.5t-15.5 -70t-11.5 -65t-2.5 -49.5t12.5 -22q13 -3 27.5 10.5t29 36.5t28 53.5t24.5 62t19.5 60.5t12.5 51z" />
    <glyph glyph-name="x" unicode="x" horiz-adv-x="294" 
d="M255 343q3 8 10 4t5 -12q-5 -18 -15 -42.5t-23.5 -53t-30 -60t-35.5 -62.5q10 -38 22 -63t33 -24t49.5 42t54.5 118q4 11 10.5 8t4.5 -11q-23 -78 -53 -126t-66 -55q-55 -9 -106 34q-35 -47 -69 -78q-3 -3 -6.5 -2t-6 4t-3 6.5t1.5 6.5q10 12 25 34t34 51q-21 22 -37 52
t-25.5 65.5t-11 75.5t7.5 83q1 7 8 11.5t16 5t18 -2.5t15 -10q30 -37 46 -84.5t27 -92.5q31 51 58 99t42 79z" />
    <glyph glyph-name="y" unicode="y" horiz-adv-x="421" 
d="M372 318q3 -27 0.5 -60.5t-9 -70t-16.5 -75t-22 -75.5q44 35 80 73t48 80q3 11 10 9t5 -12q-4 -23 -18.5 -46.5t-36 -46.5t-47.5 -45t-53 -43q-19 -52 -41 -94.5t-45 -65.5q-15 -15 -35.5 -16.5t-35.5 7.5t-20 25.5t11 36.5q8 11 21.5 22t30.5 24q5 31 10.5 67.5
t10.5 74.5q-17 -34 -39.5 -55t-54.5 -19q-38 2 -62 27.5t-34.5 66t-7 90.5t20.5 101q4 10 21.5 17t37 8t35 -4t14.5 -18q-2 -41 -10 -85.5t-13 -82t-4 -64t16 -30.5q15 -5 28 8t23.5 37t19.5 55.5t17.5 64t17 63t18.5 52.5q7 15 24 21t35.5 5.5t33 -8t15.5 -19.5zM183 -129
l5 20t6 26q-11 -9 -19.5 -17t-13.5 -15t-3.5 -13.5t6 -10t10.5 -2t9 11.5z" />
    <glyph glyph-name="z" unicode="z" horiz-adv-x="269" 
d="M315 187q-7 -26 -28 -54.5t-48.5 -54t-59 -46t-60.5 -30.5t-52.5 -7.5t-35.5 23.5q-13 22 -7 52.5t22 63.5t37.5 66t40 60.5t29.5 47t7 24.5q-6 7 -20.5 3.5t-32 -13t-35 -24t-29.5 -28.5q-5 -6 -9 -6.5t-6.5 1.5t-3 5t1.5 6q19 26 45.5 45t54 28.5t52.5 9t40 -13.5
q18 -15 18 -40.5t-10 -55.5t-26 -62t-30.5 -59t-23.5 -47t-4 -27q7 -11 29.5 -0.5t48 32.5t48.5 50.5t32 53.5q3 9 10.5 8.5t4.5 -11.5z" />
    <glyph glyph-name="braceleft" unicode="{" horiz-adv-x="300" 
d="M284 588q7 -2 5.5 -12t-8.5 -9q-9 1 -20.5 4.5t-23.5 6.5t-23 3.5t-18 -3.5q-13 -7 -16 -27t-1.5 -47t5.5 -58t6.5 -61t0.5 -55.5t-13 -41.5q-13 -19 -30 -29q23 -11 36 -34q10 -20 9.5 -43t-7.5 -46t-17.5 -45.5t-19.5 -41t-13 -32t1 -18.5q4 -4 15 -4.5t23.5 1t25 4.5
t18.5 6q5 2 8.5 0t5.5 -6t1.5 -7.5t-3.5 -4.5q-16 -5 -38.5 -10t-45.5 -5.5t-42.5 4t-28.5 17.5q-11 15 -13 34.5t0 41.5t6 45t7 44.5t2.5 39.5t-8.5 30q-5 8 -11.5 11.5t-14 4.5t-15.5 1t-17 1q-8 0 -7 8.5t7 10.5q34 5 43.5 9t13.5 9q13 15 16 42.5t1.5 60t-4 67t-0.5 65
t12 53t34 31.5q14 5 34 5t42 -2.5t43 -7.5t37 -10z" />
    <glyph glyph-name="bar" unicode="|" horiz-adv-x="3444" 
d="M972 645q4 0 4 -5v-7q0 -5 -4 -5h-54q-4 0 -4 -4v-31q0 -4 4 -4h54q4 0 4 -4v-7q0 -5 -4 -5h-54q-4 0 -4 -4v-42q0 -5 -4 -5h-7q-5 0 -5 5v113q0 5 5 5h69zM1011 556q-4 0 -4 -4v-25q0 -5 -5 -5h-7q-5 0 -5 5v113q0 5 5 5h20q26 0 44 -9.5t18 -34.5t-17 -34q-6 -4 -2 -10
l13 -30q2 -5 -3 -5h-9q-4 0 -5 3l-15 31q0 2 -5 2q-5 -1 -9.5 -1.5t-9.5 -0.5h-4zM1011 628q-4 0 -4 -4v-46q0 -5 4 -5h4q20 0 33 6t13 22q0 15 -13 21t-33 6h-4zM1165 645q5 0 5 -5v-7q0 -5 -5 -5h-54q-3 0 -3 -4v-30q0 -5 3 -5h54q5 0 5 -4v-7q0 -5 -5 -5h-54q-3 0 -3 -4
v-28q0 -3 3 -3h54q5 0 5 -3v-8q0 -5 -5 -5h-70q-4 0 -4 5v113q0 5 4 5h70zM1257 645q5 0 5 -5v-7q0 -5 -5 -5h-54q-3 0 -3 -4v-30q0 -5 3 -5h54q5 0 5 -4v-7q0 -5 -5 -5h-54q-3 0 -3 -4v-28q0 -3 3 -3h54q5 0 5 -3v-8q0 -5 -5 -5h-69q-4 0 -4 5v113q0 5 4 5h69zM1404 645
q5 0 5 -5v-7q0 -5 -5 -5h-53q-3 0 -3 -4v-31q0 -4 3 -4h53q5 0 5 -4v-7q0 -5 -5 -5h-53q-3 0 -3 -4v-42q0 -5 -5 -5h-9q-3 0 -3 5v113q0 5 3 5h70zM1419 583q0 26 18.5 45t45.5 19q25 0 43.5 -19t18.5 -45t-18.5 -44.5t-43.5 -18.5q-27 0 -45.5 18.5t-18.5 44.5zM1436 583
q0 -19 13.5 -32.5t33.5 -13.5q19 0 32.5 13.5t13.5 32.5q0 20 -13.5 33.5t-32.5 13.5q-20 0 -33.5 -13.5t-13.5 -33.5zM1578 556q-3 0 -3 -4v-25q0 -5 -4 -5h-7q-5 0 -5 5v113q0 5 5 5h19q26 0 44.5 -9.5t18.5 -34.5t-17 -34q-6 -3 -3 -10l15 -30q2 -5 -3 -5h-10q-4 0 -5 3
l-15 31q0 2 -6 2q-5 -1 -9 -1.5t-10 -0.5h-5zM1579 628q-4 0 -4 -4v-46q0 -5 3 -5h5q20 0 33 6t13 22q0 15 -13 21t-33 6h-4zM2595 645q5 0 5 -5v-69q0 -18 5.5 -26t22.5 -8t23 8t6 26v69q0 5 5 5h7q4 0 4 -5v-69q0 -51 -45 -51t-45 51v69q0 5 4 5h8zM2750 611q0 7 -6 13
t-17 6q-14 0 -19 -6t-5 -13q0 -9 10.5 -12.5t23 -7t23 -10t10.5 -22.5q0 -19 -13.5 -29t-30.5 -10t-30 10.5t-13 28.5q0 5 5 5h7q4 0 4 -5q0 -7 7 -14.5t21 -7.5q15 0 21 7.5t6 14.5q0 9 -10.5 12.5t-23.5 7t-23.5 10t-10.5 22.5q0 20 13.5 28t27.5 8t26.5 -9t12.5 -27
q0 -5 -4 -5h-7q-5 0 -5 5zM2857 645q5 0 5 -5v-7q0 -5 -5 -5h-53q-4 0 -4 -4v-30q0 -5 4 -5h53q5 0 5 -4v-7q0 -5 -5 -5h-53q-4 0 -4 -4v-28q0 -3 4 -3h53q5 0 5 -3v-8q0 -5 -5 -5h-69q-5 0 -5 5v113q0 5 5 5h69zM2936 583q0 26 18.5 45t44.5 19t44 -19t18 -45t-18 -44.5
t-44 -18.5t-44.5 18.5t-18.5 44.5zM2953 583q0 -19 13 -32.5t33 -13.5t33.5 13.5t13.5 32.5q0 20 -13.5 33.5t-33.5 13.5t-33 -13.5t-13 -33.5zM3164 645q3 0 3 -5v-113q0 -5 -3 -5h-7q-4 0 -6 2l-54 82q-1 1 -2.5 0.5t-1.5 -3.5v-76q0 -5 -5 -5h-8q-5 0 -5 5v113q0 5 5 5h8
q2 0 2.5 -1t2.5 -1l54 -82q1 -2 2.5 -2t1.5 5v76q0 5 4 5h9zM3197 645q4 0 4 -5v-97q0 -5 4 -5h53q5 0 5 -3v-8q0 -5 -5 -5h-70q-3 0 -3 5v113q0 5 3 5h9zM3254 639q-1 2 0 4t3 2h7q6 0 8 -2l24 -52q2 -6 5 -3l24 55q3 2 8 2h7q2 0 3 -2t-1 -4l-34 -75q-1 -1 -1 -4v-33
q0 -5 -5 -5h-7q-5 0 -5 5v33v4zM1228 454q4 0 4 -4v-8q0 -5 -4 -5h-54q-4 0 -4 -3v-31q0 -4 4 -4h54q4 0 4 -4v-9q0 -4 -4 -4h-54q-4 0 -4 -3v-43q0 -4 -4 -4h-7q-5 0 -5 4v114q0 4 5 4h69zM1242 393q0 26 19 44.5t45 18.5t44 -18.5t18 -44.5t-18 -44.5t-44 -18.5t-45 18.5
t-19 44.5zM1259 393q0 -20 13.5 -33.5t33.5 -13.5q19 0 32.5 13.5t13.5 33.5t-13.5 33t-32.5 13q-20 0 -33.5 -13t-13.5 -33zM1402 367q-3 0 -3 -4v-27q0 -4 -4 -4h-8q-5 0 -5 4v114q0 4 5 4h20q26 0 44.5 -9.5t18.5 -34.5q0 -23 -18 -33q-5 -5 -3 -10l15 -30q2 -5 -4 -5h-9
q-3 0 -5 2l-15 33h-5h-19h-5zM1403 437q-4 0 -4 -3v-48q0 -4 4 -4h4q19 0 32.5 6.5t13.5 21.5t-13.5 21t-32.5 6h-4zM1556 393q0 26 18.5 44.5t44.5 18.5t44 -18q3 -3 0 -5l-6 -6q-2 -2 -6 0q-12 12 -32 12t-33.5 -13t-13.5 -33t13.5 -33.5t33.5 -13.5q19 0 32 13q3 3 6 0
l6 -6q3 -2 0 -5q-20 -18 -44 -18q-26 0 -44.5 18.5t-18.5 44.5zM1676 393q0 26 18.5 44.5t44.5 18.5t44.5 -18.5t18.5 -44.5t-18.5 -44.5t-44.5 -18.5t-44.5 18.5t-18.5 44.5zM1693 393q0 -20 13 -33.5t33 -13.5t33.5 13.5t13.5 33.5t-13.5 33t-33.5 13t-33 -13t-13 -33z
M1830 336q0 -4 -4 -4h-7q-4 0 -4 4l2 114q0 4 5 4h8q4 0 4 -3l36 -84q2 -5 3 -4.5t2 1.5l36 87q1 3 4 3h8q5 0 5 -4l3 -114q0 -4 -4 -4h-9q-4 0 -4 4l-2 62q0 4 -1.5 4t-3.5 -4l-26 -64q-2 -2 -6 -2h-5q-5 0 -5 2l-27 66q-6 6 -6 -4zM1961 336q0 -4 -4 -4h-8q-5 0 -5 4
l4 114q0 4 4 4h9q2 0 4 -3l35 -84q2 -5 3 -4.5l3 1.5l35 87q1 3 5 3h7q5 0 5 -4l4 -114q0 -4 -5 -4h-7q-5 0 -5 4l-2 62q0 4 -2 4t-4 -4l-26 -64q-2 -2 -5 -2h-6q-3 0 -5 2l-28 66q0 2 -2 1.5t-2 -5.5zM2151 454q4 0 4 -4v-8q0 -5 -4 -5h-54q-4 0 -4 -4v-30q0 -4 4 -4h54
q4 0 4 -4v-9q0 -4 -4 -4h-54q-4 0 -4 -3v-27q0 -4 4 -4h54q4 0 4 -4v-8q0 -4 -4 -4h-69q-5 0 -5 4v114q0 4 5 4h69zM2188 367q-2 0 -2 -4v-27q0 -4 -5 -4h-8q-4 0 -4 4v114q0 4 4 4h20q26 0 44.5 -9.5t18.5 -34.5q0 -24 -17 -33q-5 -5 -3 -10l15 -30q0 -5 -4 -5h-10
q-2 0 -4 2l-15 33h-5h-20h-5zM2189 437q-3 0 -3 -3v-48q0 -4 3 -4h4q20 0 33.5 6.5t13.5 21.5t-13.5 21t-33.5 6h-4zM2266 393q0 26 18.5 44.5t45.5 18.5q12 0 23.5 -5t19.5 -13q5 -3 0 -5l-4 -6q-3 -2 -8 0q-12 12 -31 12q-20 0 -33 -13t-13 -33t13 -33.5t33 -13.5
q18 0 31 13q5 2 8 0l4 -6q5 -3 0 -5q-18 -18 -43 -18q-27 0 -45.5 18.5t-18.5 44.5zM2404 454q4 0 4 -4v-114q0 -4 -4 -4h-8q-4 0 -4 4v114q0 4 4 4h8zM2453 360q-2 0 -5 -3l-6 -23q-2 -3 -4 -2.5t-4 0.5h-7q-4 0 -2 5l40 114q0 3 4 3h10q3 0 5 -2l40 -115q0 -5 -3 -5h-7
q-2 0 -3.5 -0.5t-3.5 2.5l-7 22q-4 4 -6 4h-41zM2476 422q-1 1 -2.5 1t-1.5 -2l-14 -40q-1 -1 0 -2.5t4 -1.5h26q2 0 2.5 1.5t-0.5 2.5zM2551 454q3 0 3 -4v-97q0 -5 3 -5h55q1 0 3 -1t2 -3v-8q0 -2 -2 -3t-3 -1h-70q-5 0 -5 4v114q0 4 5 4h9zM2715 454q4 0 4 -4v-69
q0 -18 6 -26.5t23 -8.5t23 8.5t6 26.5v69q0 4 4 4h8q5 0 5 -4v-69q0 -51 -46 -51q-24 0 -34.5 13t-10.5 38v69q0 4 4 4h8zM2869 420q0 8 -6 14t-17 6q-12 0 -17.5 -6.5t-5.5 -13.5q0 -9 10.5 -12.5t23 -7t23 -10t10.5 -21.5q0 -19 -13.5 -29t-30.5 -10t-30 10t-13 29
q0 4 4 4h7q5 0 5 -4q0 -8 6.5 -15.5t20.5 -7.5q16 0 22 8t6 15q0 9 -10.5 12.5t-23.5 7t-23.5 10t-10.5 21.5q0 20 14 28t26 8q14 0 27 -8t13 -28q0 -4 -4 -4h-8q-5 0 -5 4zM2977 454q5 0 5 -4v-8q0 -5 -5 -5h-54q-3 0 -3 -4v-30q0 -4 3 -4h54q5 0 5 -4v-9q0 -4 -5 -4h-54
q-3 0 -3 -3v-27q0 -4 3 -4h54q5 0 5 -4v-8q0 -4 -5 -4h-70q-4 0 -4 4v114q0 4 4 4h70zM1108 175q-4 0 -4 -3v-26q0 -4 -4 -4h-8q-4 0 -4 4v114q0 4 4 4h21q26 0 44.5 -9.5t18.5 -34.5t-18.5 -35t-44.5 -10h-5zM1108 248q-1 0 -3 -2l-1 -1v-48q0 -5 4 -5h5q19 0 32.5 6.5
t13.5 21.5t-13.5 21.5t-32.5 6.5h-5zM1199 264q5 0 5 -4v-69q0 -18 6 -26.5t22 -8.5q17 0 23.5 8.5t6.5 26.5v69q0 4 4 4h8q4 0 4 -4v-69q0 -51 -46 -51q-45 0 -45 51v69q0 4 6 4h6zM1314 175q-3 0 -3 -3v-26q0 -4 -5 -4h-8q-4 0 -4 4v114q0 4 4 4h20q26 0 44.5 -9.5
t18.5 -34.5q0 -22 -17 -34q-3 -2 -4 -3.5t1 -6.5l15 -29q0 -5 -4 -5h-9q-5 0 -5 3l-15 30q0 2 -5 2q-5 -1 -10 -1.5t-10 -0.5h-4zM1314 248q-2 0 -2 -2l-1 -1v-48q0 -5 3 -5h4q20 0 33 6.5t13 21.5t-13 21.5t-33 6.5h-4zM1392 203q0 26 18.5 44t44.5 18q13 0 24 -4t19 -13
q4 -4 0 -6l-5 -6q-3 -2 -6 0q-12 13 -32 13t-33 -13.5t-13 -32.5q0 -20 13 -33.5t33 -13.5q19 0 32 13q2 4 6 0l5 -5q4 -3 0 -7q-8 -8 -19 -12.5t-24 -4.5q-26 0 -44.5 18.5t-18.5 44.5zM1526 264q4 0 4 -4v-47q0 -5 4 -5h55q3 0 3 5v47q0 4 5 4h8q4 0 4 -4v-114q0 -4 -4 -4
h-8q-5 0 -5 4v42q0 4 -3 4h-54q-5 0 -5 -4v-42q0 -4 -4 -4h-8q-5 0 -5 4v114q0 4 5 4h8zM1652 171q-4 0 -4 -5l-8 -21q-2 -3 -3.5 -3h-3.5h-7q-3 0 -3 5l40 114q1 3 5 3h9q5 0 5 -3l40 -114q2 -5 -2 -5h-7h-4t-3 3l-7 21q-3 5 -6 5h-41zM1676 231q-1 2 -3 2t-3 -2l-13 -40
q0 -4 3 -4h26q4 0 4 4zM1800 230q0 8 -6 14t-18 6t-17.5 -6t-5.5 -14q0 -9 10.5 -12.5t23 -7t23 -10t10.5 -21.5q0 -20 -13.5 -29.5t-30.5 -9.5t-30 10t-13 29q0 5 4 5h8q5 0 5 -5q0 -8 6 -15.5t20 -7.5q15 0 21 8.5t6 14.5q0 9 -10.5 12.5t-23 7t-23 10t-10.5 21.5
q0 19 14 27.5t26 8.5q14 0 27 -8.5t13 -27.5q0 -4 -4 -4h-8q-4 0 -4 4zM1908 264q4 0 4 -4v-7q0 -5 -4 -5h-54q-5 0 -5 -5v-30q0 -5 5 -5h54q4 0 4 -4v-7q0 -5 -4 -5h-54q-5 0 -5 -3v-27q0 -4 5 -4h54q4 0 4 -5v-7q0 -4 -4 -4h-70q-4 0 -4 4v114q0 4 4 4h70zM2028 171
q-5 0 -5 -5l-8 -21q-1 -3 -3 -3h-4h-8q-1 0 -2 1.5t1 3.5l40 114q1 3 4 3h10q4 0 4 -3l41 -114q2 -5 -2 -5h-7h-4t-4 3l-7 21q-2 5 -6 5h-40zM2050 231q0 2 -2 2t-2 -2l-14 -40q-2 -4 4 -4h26q3 0 3 4zM2197 264q4 0 4 -4v-98q0 -4 4 -4h53q5 0 5 -5v-7q0 -4 -5 -4h-70
q-3 0 -3 4v114q0 4 3 4h9zM2290 264q4 0 4 -4v-114q0 -4 -4 -4h-7q-5 0 -5 4v114q0 4 5 4h7zM2310 203q0 26 18.5 44t44.5 18q12 0 23.5 -4t19.5 -13q4 -3 0 -6l-5 -6q-3 -3 -5 0q-13 13 -33 13t-33.5 -13.5t-13.5 -32.5q0 -20 13.5 -33.5t33.5 -13.5q18 0 33 13q0 2 2 2
t3 -2l5 -5q5 -4 0 -7q-8 -8 -19.5 -12.5t-23.5 -4.5q-26 0 -44.5 18.5t-18.5 44.5zM2505 264q5 0 5 -4v-7q0 -5 -5 -5h-53q-4 0 -4 -5v-30q0 -5 4 -5h53q5 0 5 -4v-7q0 -5 -5 -5h-53q-4 0 -4 -3v-27q0 -4 4 -4h53q5 0 5 -5v-7q0 -4 -5 -4h-69q-4 0 -4 4v114q0 4 4 4h69z
M2611 264q5 0 5 -4v-114q0 -4 -5 -4h-7q-4 0 -4 1l-55 82q-1 2 -2.5 1.5t-1.5 -4.5v-76q0 -4 -4 -4h-9q-4 0 -4 4v114q0 4 4 4h9h1l3 -3l54 -81l3 -1.5t1 4.5v77q0 4 4 4h8zM2696 230q0 8 -6 14t-17 6q-13 0 -18.5 -6t-5.5 -14q0 -9 10.5 -12.5t23 -7t23 -10t10.5 -21.5
q0 -20 -13 -29.5t-30 -9.5q-18 0 -30.5 10t-12.5 29q0 5 3 5h9q4 0 4 -5q0 -8 6.5 -15.5t20.5 -7.5q15 0 21 8.5t6 14.5q0 9 -10.5 12.5t-23 7t-23 10t-10.5 21.5q0 19 13.5 27.5t26.5 8.5q14 0 27 -8.5t13 -27.5q0 -4 -4 -4h-8q-5 0 -5 4zM2804 264q5 0 5 -4v-7q0 -5 -5 -5
h-54q-3 0 -3 -5v-30q0 -5 3 -5h54q5 0 5 -4v-7q0 -5 -5 -5h-54q-3 0 -3 -3v-27q0 -4 3 -4h54q5 0 5 -5v-7q0 -4 -5 -4h-69q-5 0 -5 4v114q0 4 5 4h69zM2925 171q-5 0 -5 -5l-8 -21q-2 -3 -3.5 -3h-3.5h-7q-6 0 -3 5l40 114q1 3 5 3h9q5 0 5 -3l41 -114q2 -5 -3 -5h-7h-4
t-4 3l-6 21q-3 5 -7 5h-39zM2948 231q-2 2 -3.5 2t-1.5 -2l-14 -40q-2 -2 -0.5 -3t3.5 -1h26q2 0 3.5 1t-0.5 3zM2991 260q0 4 5 4h77q5 0 5 -4v-7q0 -5 -5 -5h-27q-2 0 -2 -2l-1 -1v-99q0 -4 -5 -4h-8q-5 0 -5 4v97q0 5 -3 5h-26q-5 0 -5 5v7zM1752 615q1 5 7 5t7 -5
q1 -11 1 -17.5t1 -18.5q4 10 11.5 19t16.5 14.5t18.5 5.5t16.5 -9q5 -6 6 -14q1 -9 -4 -16.5t-14.5 -13.5t-21 -9t-21.5 -3q-2 -12 1 -33t3 -41q0 -5 -3 -5.5t-6 2.5q-6 32 -11 68t-8 71zM1780 572q-2 -4 -2 -10q8 -1 18 2.5t17.5 9t11 12.5t-1.5 14t-12 5.5t-13.5 -7.5
t-11.5 -13.5t-6 -12.5zM1864 581q-10 5 -7.5 8.5t12.5 -1.5q11 14 25 24.5t25 2.5q9 -8 9 -15.5t-7 -13.5t-17.5 -9t-22.5 -1q-4 -10 2 -16q3 -4 13 -4.5t21 1.5t22 5.5t17 8.5q5 3 7 0t-1 -6q-7 -6 -24 -12t-35 -8t-31 2t-13 18q0 2 1 6.5t4 9.5zM1915 596q3 5 0.5 8
t-8.5 1t-11 -8l-10 -12q8 -2 16.5 1.5t12.5 9.5zM1979 613q-1 4 5 5.5t9 -3.5q2 -5 3 -12t1 -15q12 26 47 30q5 0 5.5 -4t-4.5 -4q-15 -2 -23.5 -9.5t-13 -18.5t-5.5 -22.5t-1 -20.5q0 -5 -4 -5.5t-7 2.5q-3 9 -5 20.5t-3 22.5t-2 20t-2 14zM2113 606q-4 -1 -4.5 2.5
t1.5 6.5q-3 3 -8 2t-9.5 -3.5t-8 -6t-3.5 -6.5q0 -5 8 -10.5t17.5 -11.5t17 -11.5t7.5 -9.5v-4q-2 -8 -11.5 -14t-21 -7.5t-21 2.5t-10.5 17q0 5 4 5t4 -5q1 -8 7 -10t12.5 -1t12.5 5t7 9q0 4 -8 8.5t-17 10t-16 12.5t-5 16q2 11 11.5 16.5t19.5 6t17.5 -3t4.5 -11.5
q-1 -2 -8 -4zM2166 601q17 20 35 2q17 -14 11.5 -29.5t-20.5 -19.5q-12 -3 -19.5 1t-11 12t-2.5 17.5t7 16.5zM2196 595q-3 5 -9.5 4.5t-10.5 -6.5q-2 -3 -2.5 -8.5t1 -10.5t5.5 -8t10 -1q12 5 12 14.5t-6 15.5zM2243 610q2 4 9 3t7 -5q-2 -11 -1 -22.5t2 -19.5q5 9 10.5 22
t15.5 17q6 1 11 -5t9.5 -14.5t8 -17.5t7.5 -13q3 -5 -2 -7t-8 1t-6 10t-5.5 14t-5.5 11.5t-6 3.5q-5 -1 -8.5 -7.5t-7.5 -14.5t-8 -15t-8 -9q-3 0 -5 2q-8 11 -10 32t1 34zM2407 598q3 -23 5.5 -40t4.5 -19q3 -3 -0.5 -6t-6.5 1q-6 5 -8 14t-4 20q-7 -12 -15 -19t-21 -7
q-3 1 -7 4t-6 5q-6 8 -3.5 18.5t9 19.5t15.5 15.5t18 6.5v13q1 4 6.5 3.5t7.5 -3.5q5 -12 5 -26zM2360 555q8 -6 17 5t12 31q-10 2 -17.5 -2t-11 -10.5t-4 -13.5t3.5 -10zM2453 690q1 5 7.5 5.5t7.5 -3.5v-34t1 -43t3 -42t6 -31q8 -2 13 -1t13 3q5 0 6 -3t-3 -6
q-18 -6 -27 -7.5t-13.5 3t-5.5 16t-3 31.5q-2 28 -3 56zM988 137q1 4 7 3t7 -5v-21.5t0.5 -28.5t1.5 -30t2 -26q5 11 14.5 11.5t19 -5t16.5 -15t8 -18.5q1 -17 -18 -26.5t-38 -10.5q0 -4 0.5 -7t0.5 -8q-1 -4 -5 -4t-6 4l-3 18q-8 0 -8 6q0 2 3 2.5t5 0.5q-5 38 -7 82.5
t0 77.5zM1008 -5q-1 -10 0 -18q14 0 25.5 4t15.5 8q7 8 1.5 18.5t-14.5 15t-18 -0.5t-10 -27zM1081 34q0 4 6 5.5t9 -2.5q3 -6 3.5 -13t0.5 -15q6 12 17 20t30 10q5 0 5.5 -4t-4.5 -5q-15 -1 -24 -9t-13.5 -18.5t-5.5 -22t-1 -20.5q0 -5 -4 -6t-6 4q-3 9 -4.5 20l-3 22
t-2.5 20t-3 14zM1178 31q1 5 7 5t8 -4q0 -20 -0.5 -33.5t0.5 -24.5q0 -5 -5.5 -5t-7.5 5q0 10 -0.5 16.5t-1 12t-0.5 12v16.5zM1189 49q-5 -3 -9 1.5t-1 9.5l1 3q7 4 11.5 -0.5t-1.5 -10.5zM1254 108q0 5 9 5.5t9 -4.5q-3 -37 -4.5 -77t0.5 -79q-2 -4 -5.5 -4.5t-3.5 3.5
q-4 29 -5 70t0 86zM1226 34q-4 0 -4 5.5t4 7.5q10 0 53 1t108 3q5 0 5.5 -4t-4.5 -5zM1328 103q1 5 9.5 5t7.5 -5q-2 -37 -3 -70.5t1 -72.5q-2 -4 -6 -4.5t-5 3.5q-2 29 -3 64t-1 80zM1398 30q2 4 8.5 3.5t6.5 -5.5v-22t2 -19q5 10 11 22.5t16 14.5q6 2 10.5 -3.5t8.5 -14
t8 -17.5t8 -13q5 -4 0 -7t-10 2q-3 3 -5.5 9.5t-5.5 13t-6.5 10.5t-6.5 3q-4 -1 -7.5 -7t-7 -13.5t-7.5 -14.5t-8 -9q-3 0 -6 2q-8 11 -9.5 32t0.5 33zM1502 2q-9 5 -7 8.5t13 -3.5q10 15 24.5 25.5t24.5 2.5q9 -8 9 -15.5t-6.5 -13.5t-17.5 -8.5t-22 -0.5q-7 -11 1 -16
q3 -4 13 -4.5t21 1t22.5 5t17.5 8.5q5 3 7 0.5t-2 -7.5q-7 -6 -24 -11.5t-34.5 -7.5t-30.5 2t-13 17q0 9 4 18zM1554 17q3 5 0 7.5t-9 0.5q-5 -1 -10.5 -7t-9.5 -13q8 -1 16.5 2.5t12.5 9.5zM1615 12q-2 5 1.5 6t6.5 -4q0 -3 3 -9t7 -12t8 -10t7 -4t4.5 7.5t2.5 17.5t1.5 20
t2.5 15q2 3 7.5 2.5t7.5 -4.5q0 -17 2.5 -42.5t2 -52.5t-7.5 -51t-25 -36q-14 -10 -32 -11t-36.5 3.5t-36.5 11.5t-32 14q-4 3 -2.5 6.5t5.5 2.5q10 -5 26.5 -11.5t34.5 -10.5t35.5 -3.5t31.5 9.5q10 7 15 21t7.5 30.5t2 33t-0.5 30.5q-3 -11 -9.5 -14.5t-14.5 1.5
q-9 7 -16 20t-9 24zM1714 -38q0 15 2.5 36t5.5 36q-2 4 3 6q2 1 5 2q6 0 6 -6v-2q1 2 3 1t4 -3q3 -8 5 -13.5t5 -14.5q1 -4 3.5 -10t5 -11.5t5.5 -8t6 -0.5q6 8 11.5 22t7.5 23q0 1 0.5 1.5t0.5 1.5v2q0 5 1 14t7 11q2 1 6 1t5 -2q3 -8 6 -22.5t6.5 -29t8.5 -26t13 -12.5
q4 -2 3 -5.5t-5 -5.5q-7 1 -13 8t-10.5 17t-7.5 20.5t-4 19.5q-3 -11 -6.5 -21.5t-9 -18.5t-11.5 -12t-13 -1q-11 5 -16 13t-8 19q-2 5 -3 10.5t-3 10.5q-2 -12 -4.5 -25.5t-6.5 -25.5l-1 -1q-2 -4 -6.5 -3t-6.5 5zM1861 17q1 5 6.5 5t7.5 -5q0 -14 6 -23.5t13.5 -11t14 6
t7.5 28.5q2 5 7 4.5t5 -5.5q-2 -11 -2.5 -18.5t-7.5 -16.5q-9 -14 -24 -13.5t-23 13.5q-7 8 -8 17t-2 19zM1949 34q-1 4 5.5 5.5t8.5 -2.5q4 -11 4 -28q6 12 17 20t30 10q5 0 5.5 -4t-4.5 -5q-15 -1 -24 -9t-13.5 -18.5t-5.5 -22t-1 -20.5q0 -5 -3.5 -6t-6.5 4q-3 9 -4.5 20
t-2.5 22t-2.5 20t-2.5 14zM2036 35q1 5 6.5 5.5t7.5 -3.5q0 -12 0.5 -19t2.5 -18q4 10 11.5 19t16.5 14.5t18 5.5t17 -9q4 -8 4 -15q1 -8 -4 -15.5t-14 -13.5t-20 -9t-22 -3q-3 -21 -1.5 -43t1.5 -42q0 -4 -3 -5t-6 1q-1 4 -2 13t-2 20t-2 21.5t-2 18.5q-2 19 -4.5 38
t-2.5 39zM2064 -8q-1 -3 -1 -4.5t-1 -4.5q8 -1 18 2.5t17.5 9t11 12.5t-1.5 14t-12 5.5t-13.5 -7.5t-11.5 -13.5t-6 -13.5zM2142 115q-2 5 2.5 7t7.5 -3q4 -9 6.5 -26.5t4 -36t1.5 -36v-26.5q1 3 3.5 9t6 11.5t8 8.5t9.5 1q4 -1 8.5 -6.5t9 -11.5t9.5 -12t10 -7q5 -2 4.5 -6
t-5.5 -2q-6 1 -12 6.5t-11.5 11.5t-10 10.5t-7.5 4.5q-8 -11 -11.5 -23.5t-9.5 -24.5q-2 -3 -7.5 -2.5t-6.5 5.5q-3 41 -5 75t-4 73zM2244 12q0 5 4 6t6 -4q0 -3 3 -9t7 -12t7.5 -10t5.5 -4q4 0 5.5 7.5t2.5 17.5t1.5 20t2.5 15q3 3 8.5 2.5t6.5 -4.5q0 -17 3 -42.5t2 -52.5
t-7.5 -51t-25.5 -36q-14 -10 -31.5 -11t-36 3.5t-36.5 11.5t-33 14q-4 3 -2 6.5t6 2.5q10 -5 26 -11.5t34 -10.5t35.5 -3.5t31.5 9.5q10 7 15.5 21t7.5 30.5t2 33t-1 30.5q-3 -11 -9.5 -14.5t-14.5 1.5q-8 7 -16 20t-10 24zM2350 19q4 4 18.5 9.5t23.5 1.5q0 40 -2 58.5
t5 30.5q2 4 6 4.5t6 -1.5q5 -13 4 -40t-5 -53q2 -29 4 -56.5t10 -51.5q0 -4 -3.5 -6t-6.5 -2q-1 0 -4 6q-4 14 -7 35.5t-5 42.5q-3 -6 -7 -13.5t-9.5 -13.5t-11.5 -8t-13 3q-5 3 -8.5 10t-4.5 15t1.5 15.5t8.5 13.5zM2367 -23q7 2 14.5 15.5t9.5 25.5q-1 0 -1 2q0 1 -1 1
q-1 1 -6.5 0.5t-12 -3.5t-12 -8t-5.5 -12q0 -5 2 -13.5t12 -7.5zM2443 2q-9 5 -6.5 8.5t12.5 -3.5q10 15 24.5 25.5t24.5 2.5t9.5 -15.5t-6.5 -13.5t-17 -8.5t-22 -0.5q-6 -11 0 -16q4 -4 13.5 -4.5t21 1t22.5 5t17 8.5q5 3 7 0.5t-2 -7.5q-8 -6 -24.5 -11.5t-34 -7.5
t-30.5 2t-13 17q0 4 1 8.5t3 9.5zM2495 17q2 5 0 7.5t-7 0.5q-7 -1 -12 -7t-10 -13q7 -1 16 2.5t13 9.5zM2598 27q-4 -1 -5 2t2 6q-3 3 -8 2.5t-9.5 -3.5t-8 -6.5t-3.5 -6.5q0 -5 7.5 -11t17.5 -11.5t17.5 -10.5t7.5 -9q-1 -2 -0.5 -2.5t-0.5 -2.5q-1 -7 -11 -13t-21.5 -7.5
t-21 2.5t-10.5 16q0 5 4.5 5.5t4.5 -4.5q1 -8 6.5 -10t12.5 -1t13 5t7 9q0 3 -8 7t-17.5 10t-17 13.5t-5.5 17.5t12 15.5t20 6t17.5 -3.5t5.5 -12q-2 -1 -3 -1t-5 -2zM2640 31q2 5 8 5t8 -4q0 -20 -1 -33.5t0 -24.5q0 -5 -5 -5t-6 5q0 10 -0.5 16.5t-1 12t-1.5 12t-1 16.5z
M2653 49q-6 -3 -10.5 1.5t-0.5 9.5l2 3q7 4 11 -0.5t-1 -10.5zM2686 -15q-4 10 6 22q8 11 21 18t24 7v9t1 9q3 3 8.5 3t6.5 -4q4 -17 0 -32q1 -14 4 -36t5 -45.5t0.5 -44t-8.5 -31.5q-7 -12 -27.5 -15.5t-42.5 -0.5t-40.5 11.5t-22.5 20.5q0 5 3 6.5t6 -2.5q3 -9 19 -15.5
t35.5 -9t37 0.5t22.5 12t5.5 24t-1 32t-4 35.5t-4.5 34.5q-13 -18 -37 -18q-6 0 -11 2t-6 7zM2736 11q2 2 2 12q-3 1 -10 -2t-13 -7.5t-10.5 -10t-3.5 -10.5q2 -3 7.5 -3t11 3t10 7.5t6.5 10.5zM2791 30q3 4 10 3.5t7 -5.5q-2 -11 -1 -22t2 -19q4 10 10.5 22.5t16.5 14.5
q6 2 10.5 -3.5t8.5 -14t8 -17.5t8 -13q3 -4 -2 -7t-8 2q-3 3 -6 9.5l-6 13t-6 10.5t-6 3q-4 -1 -7.5 -7t-7.5 -13.5t-8 -14.5t-8 -9q-3 0 -6 2q-8 11 -9.5 32t0.5 33zM2912 -39q-2 -6 -7.5 -6t-6.5 6v4q1 7 7.5 6.5t6.5 -8.5v-2zM2988 22q0 -5 -3.5 -5t-6.5 4q-1 2 -5 5
q-6 0 -10.5 -5.5t-6.5 -13t-0.5 -15t7.5 -11.5q5 -5 12.5 -4.5t16 3.5t16 7t12.5 7q5 2 7 -2t-2 -7q-9 -4 -18 -8.5t-19 -8.5q-8 -2 -21 -4t-20 6q-11 15 -7 31t13.5 26.5t20.5 11t14 -16.5zM3045 22q16 19 35 2q17 -14 11.5 -29.5t-20.5 -20.5q-12 -3 -20 1.5t-11 12.5
t-2 17.5t7 16.5zM3075 16q-3 4 -9 4t-11 -6q-2 -3 -2.5 -9t1.5 -10.5t6 -7.5t10 0q11 4 11.5 13t-6.5 16zM3118 -38q0 15 2 36t4 36q-1 2 0.5 3.5t3.5 2.5t5 2q5 0 5 -6v-2q5 3 8 -2q3 -8 4.5 -13.5t5.5 -14.5q1 -4 3.5 -10t5 -11.5t5.5 -8t5 -0.5q8 8 13 22t6 23q2 2 2 3v2
q1 5 2 14t6 11q7 2 12 -1q3 -8 6 -22.5t6.5 -29t8.5 -26t12 -12.5q4 -2 3 -5.5t-6 -5.5q-7 1 -12.5 8t-9.5 17t-7.5 20.5t-5.5 19.5q-2 -11 -5.5 -21.5t-8.5 -18.5t-11.5 -12t-13.5 -1q-11 5 -16 13t-8 19q-2 5 -3.5 10.5t-3.5 10.5q-2 -12 -4 -25.5t-6 -25.5v-1
q-3 -4 -8 -3t-5 5zM3328 528q0 -8 9 -8t9 8t-9 8t-9 -8zM3000 337q0 -5 3 -6.5t2 -6.5l-1 -7q-2 -3 2 -3h3q2 -2 2 -1t1 2q1 3 3 10t2 12q0 7 -8 7q-9 0 -9 -7zM543 43q16 0 30 6.5t25 17.5t17.5 25t6.5 29v5q0 35 -23.5 56.5t-55.5 21.5q-11 0 -18.5 -0.5t-14.5 -3.5v-5
q0 -30 -9.5 -57.5t-28.5 -47.5q8 -22 27 -34.5t44 -12.5zM270 335q10 7 19.5 10t16.5 3v113v5v148q0 9 13 9h61q9 0 9 -9v-6q25 15 65 15q32 0 58.5 -13.5t43.5 -33.5q22 20 47.5 33.5t60.5 13.5q33 0 59.5 -12t45.5 -34t29 -51.5t10 -64.5v-441q48 56 74.5 123.5
t26.5 144.5q0 84 -31.5 157.5t-86.5 128.5t-128 87t-157 32q-66 0 -127 -20t-109 -54v-284zM729 461q0 35 -17 59.5t-48 24.5q-32 0 -48.5 -24t-16.5 -55v-5v-153q0 -4 -3 -7.5t-7 -3.5h-60q-4 0 -7 3.5t-3 7.5v153v5q-3 31 -18 55t-47 24q-30 0 -47.5 -24t-17.5 -55v-113
q32 -11 56 -28t41 -46q15 3 29 6t28 3q21 0 41.5 -6t37.5 -17v154q0 13 9 13h60q9 0 9 -13v-446q0 -9 -9 -9h-60q-9 0 -9 9v9q-17 -7 -37.5 -12.5t-41.5 -5.5q-46 0 -82 22t-58 57q-14 -7 -27.5 -8t-27.5 -1q-22 0 -41.5 3.5t-36.5 14.5v-9q0 -4 -3 -6.5t-6 -2.5h-61
q-3 0 -6 2.5t-3 6.5v502q-42 -53 -66 -118t-24 -139q0 -84 32 -157t87 -128t128.5 -86.5t157.5 -31.5q63 0 118.5 16.5t104.5 48.5v511zM348 274q-32 0 -55 -22t-23 -57q0 -34 23 -58.5t55 -24.5q11 0 18 3l14 6v5q0 64 43 107q-12 17 -31.5 29t-43.5 12z" />
    <glyph glyph-name="braceright" unicode="}" horiz-adv-x="300" 
d="M11 -13q-4 1 -5.5 5t-0.5 7.5t3 6.5t6 3q9 -2 20 -6t23 -7t23 -3.5t19 4.5q18 11 17 37.5t-6.5 58t-7.5 63.5t14 56q12 18 30 29q-11 5 -20 13.5t-15 20.5q-11 20 -10 48.5t8 60t18 63.5t19.5 59t12.5 46t-1 24q-8 9 -30 13.5t-55 1.5q-5 0 -8 2.5t-4 6.5t0.5 7.5
t4.5 3.5q21 2 44 0.5t44 -6t38 -13t26 -21.5q11 -15 13.5 -38t0.5 -50.5t-6.5 -57t-7 -57t-2 -51.5t8.5 -40q7 -15 21 -19.5t37 -4.5q7 0 6 -9t-6 -10q-10 -2 -20.5 -2.5t-20 -3.5t-17.5 -8.5t-12 -17.5q-6 -15 -5.5 -36t2 -44t3 -46.5t-1.5 -44t-13 -36t-31 -23.5
q-14 -5 -34 -5t-42 2.5t-43 7.5t-37 10z" />
    <glyph glyph-name="asciitilde" unicode="~" horiz-adv-x="267" 
d="M39 272q-1 -5 -4 -7t-6 -2t-5.5 2t-1.5 7q3 30 13 54t25 39.5t33 21t37 -2.5q17 -8 24.5 -28.5t11.5 -42.5t8 -39.5t15 -17.5q9 0 16 6.5t11.5 16.5t7 20.5t4.5 19.5q1 11 9 10t8 -9q0 -16 -6 -33.5t-16.5 -31.5t-26 -22t-34.5 -5q-33 4 -47.5 24.5t-19.5 43.5t-6 41.5
t-8 19.5t-13.5 -7t-11.5 -21t-9.5 -28.5t-7.5 -28.5z" />
    <glyph glyph-name="exclamdown" unicode="&#xa1;" horiz-adv-x="190" 
d="M115.004 32.0293q-5 -11.999 -22.999 -15.499q-17.999 -3.49902 -36.4971 -1q-18.499 2.5 -33.498 8.5q-14.999 5.99902 -13.999 12.999q1.99902 16.999 6.49902 47.4971t10.5 67.4961q5.99902 36.998 12.499 76.9951q6.49902 39.998 12.999 75.4951
q6.5 35.498 12.999 63.4961q6.5 27.999 10.499 39.998q3 8.99902 13.5 12.999q10.499 4 21.998 4.5q11.5 0.5 20.999 -2t11.499 -7.5q4 -9.99902 4.5 -39.4971t-1 -68.4961q-1.5 -38.9971 -5 -82.9951q-3.5 -43.9971 -7.49902 -83.4941q-4 -39.498 -9 -69.4961
q-4.99902 -29.998 -8.99902 -39.998zM116.004 506.001q8.99902 -1 13.499 -7q4.5 -5.99902 4.5 -12.999t-5.5 -12.499q-5.5 -5.5 -17.499 -4.5q-9.99902 1 -14.499 7q-4.5 5.99902 -3.5 12.999q1 6.99902 6.5 12.499q5.49902 5.5 16.499 4.5z" />
    <glyph glyph-name="cent" unicode="&#xa2;" horiz-adv-x="289" 
d="M254 347q0 -5 -3.5 -7.5t-7.5 -2.5t-6.5 2.5t-2.5 7.5q2 27 -7 49t-28 22q-13 0 -25 -20t-20 -50t-11.5 -65t-1.5 -66t11.5 -52t27.5 -22q20 -2 37.5 19.5t21.5 54.5q1 11 9.5 10.5t8.5 -9.5q0 -42 -26 -70t-65 -30l-5 -71q0 -5 -3.5 -7.5t-7.5 -2t-7 3t-3 7.5l5 71
q-44 6 -70 32t-36 62t-5 76.5t23 74.5t47 57t67 24l5 61q0 5 3.5 7.5t7 2t6.5 -3.5t3 -8l-5 -60q21 -3 33.5 -13.5t19.5 -24.5t9 -30t1 -29z" />
    <glyph glyph-name="sterling" unicode="&#xa3;" horiz-adv-x="371" 
d="M333 438q0 -11 -8.5 -13t-9.5 9q-3 35 -20 49t-39 11q-21 -3 -32.5 -21.5t-17 -46.5t-6 -64t0.5 -74h110q7 0 8.5 -9t-6.5 -9l-112 -1q1 -40 0 -79t-6 -72q23 -10 44.5 -19.5t40 -16.5t33.5 -9.5t24 2.5t12.5 -4t-7.5 -14q-18 -8 -36 -7t-37 7.5t-39 16t-41 20.5l-6 -20
q-15 -38 -47 -53t-62.5 -10t-50.5 27.5t-10 60.5q7 24 31.5 39t55.5 10q1 28 0 58.5t-1 62.5h-39q-6 0 -5.5 9.5t5.5 9.5h40q1 40 6 79t18.5 70t37 52t62.5 26q19 2 38 -1t34.5 -12t25.5 -24.5t11 -39.5zM95 84q1 5 2.5 19t-0.5 25q-23 5 -41.5 -5.5t-23.5 -27.5
q-5 -18 2.5 -33t19 -19.5t23.5 4.5t18 37z" />
    <glyph glyph-name="currency" unicode="&#xa4;" horiz-adv-x="312" 
d="M176 445q25 -1 46 -16l27 59q2 4 6 5t7 -1t5 -6t0 -8l-30 -62q22 -23 32.5 -59.5t9 -75.5t-14 -75.5t-36.5 -59.5l28 -80q3 -10 -7 -14t-14 6l-26 73q-24 -14 -54 -13q-29 1 -51 12l-31 -67q-2 -5 -6 -5.5t-7.5 1t-5.5 5t0 8.5l32 68q-32 23 -44.5 62.5t-8 82t23.5 81.5
t51 60l-22 65q-3 9 6 13.5t12 -5.5l22 -63q11 5 23.5 7.5t26.5 1.5zM178 146q16 -2 30 8t24.5 27.5t17 41t8.5 48.5q1 27 -2 53t-11 46t-20 32t-27 11q-23 -2 -39 -36.5t-21 -91.5t4 -96t36 -43z" />
    <glyph glyph-name="yen" unicode="&#xa5;" horiz-adv-x="298" 
d="M151 19q-6 -12 -21 -14.5t-30 1t-26.5 11t-11.5 15.5q0 7 3.5 27t9.5 49.5t13 65t15 73.5h-64q-7 0 -6.5 10t6.5 10h68l10 45h-78q-7 0 -6.5 9.5t6.5 9.5h50q-10 11 -16.5 29t-11 38.5t-6.5 41t-3 36.5q0 4 3.5 7t8 4t9 -1.5t4.5 -8.5q2 -26 6 -49.5t8.5 -41.5t9.5 -28.5
t11 -9.5q7 1 13.5 20.5t12.5 44.5t11.5 47.5t11.5 30.5q5 9 20 11t30.5 -1.5t26.5 -11.5t10 -18q-2 -10 -9 -49t-18 -91h36q8 0 9 -9t-7 -9h-42q-2 -11 -4.5 -23t-5.5 -23h50q8 0 9 -9.5t-7 -9.5h-56q-9 -41 -17.5 -80t-15.5 -70.5t-12 -52.5t-7 -26z" />
    <glyph glyph-name="brokenbar" unicode="&#xa6;" horiz-adv-x="203" 
d="M89 623q1 7 15.5 10.5t32 2.5t31.5 -5.5t14 -12.5q0 -30 -4 -76t-9.5 -96t-12 -99.5t-12.5 -85.5q-1 -6 -14.5 -8.5t-30 -1.5t-29.5 6t-12 14q4 55 8.5 109t8.5 101.5t7.5 84t6.5 57.5zM48 202q2 8 16 11t30.5 2t30 -6t13.5 -13q0 -5 -1.5 -24t-4.5 -45t-6.5 -56
t-6.5 -57.5t-6 -48.5t-4 -30q-2 -6 -15.5 -9t-29.5 -2t-29 5.5t-13 13.5q0 18 3 56t7.5 79t8.5 76.5t7 47.5z" />
    <glyph glyph-name="section" unicode="&#xa7;" horiz-adv-x="308" 
d="M275 299q0 -20 -8 -40t-25 -37q18 -17 30.5 -40t13.5 -55q1 -42 -20.5 -70.5t-53.5 -43t-69 -16.5t-66 9q-23 8 -39 23.5t-23 36.5t-2.5 45.5t24.5 51.5q3 4 7 4t6.5 -3t2.5 -7.5t-4 -8.5q-11 -18 -13.5 -35.5t1 -32.5t12 -26t19.5 -16q19 -9 37.5 -6t32.5 15t21.5 31.5
t5.5 42.5q-4 36 -23.5 59t-40.5 43t-37 42.5t-12 57.5q2 24 15 42t32 29q-18 18 -30 40t-12 54q0 28 15.5 48t38.5 30.5t48.5 10.5t45 -11.5t29.5 -36t1 -62.5q-1 -5 -4.5 -6.5t-7 -1t-5.5 4t-1 8.5q9 41 -2.5 60t-29.5 20.5t-34.5 -12.5t-16.5 -39q0 -18 10 -32t26 -28
t34 -28t34 -30.5t26.5 -37t10.5 -46.5zM189 264q5 32 -12.5 54.5t-40.5 42.5q-3 -6 -5 -12t-2 -14q-1 -23 17.5 -38.5t42.5 -32.5z" />
    <glyph glyph-name="dieresis" unicode="&#xa8;" horiz-adv-x="123" 
d="M11 432q0 8 5 13.5t13 5.5t13 -5.5t5 -13.5q0 -7 -5 -12.5t-13 -5.5t-13 5.5t-5 12.5zM75 432q0 8 5.5 13.5t13.5 5.5q7 0 12.5 -5.5t5.5 -13.5q0 -7 -5.5 -12.5t-12.5 -5.5q-8 0 -13.5 5.5t-5.5 12.5z" />
    <glyph glyph-name="copyright" unicode="&#xa9;" horiz-adv-x="3444" 
d="M972 645q4 0 4 -5v-7q0 -5 -4 -5h-54q-4 0 -4 -4v-31q0 -4 4 -4h54q4 0 4 -4v-7q0 -5 -4 -5h-54q-4 0 -4 -4v-42q0 -5 -4 -5h-7q-5 0 -5 5v113q0 5 5 5h69zM1011 556q-4 0 -4 -4v-25q0 -5 -5 -5h-7q-5 0 -5 5v113q0 5 5 5h20q26 0 44 -9.5t18 -34.5t-17 -34q-6 -4 -2 -10
l13 -30q2 -5 -3 -5h-9q-4 0 -5 3l-15 31q0 2 -5 2q-5 -1 -9.5 -1.5t-9.5 -0.5h-4zM1011 628q-4 0 -4 -4v-46q0 -5 4 -5h4q20 0 33 6t13 22q0 15 -13 21t-33 6h-4zM1165 645q5 0 5 -5v-7q0 -5 -5 -5h-54q-3 0 -3 -4v-30q0 -5 3 -5h54q5 0 5 -4v-7q0 -5 -5 -5h-54q-3 0 -3 -4
v-28q0 -3 3 -3h54q5 0 5 -3v-8q0 -5 -5 -5h-70q-4 0 -4 5v113q0 5 4 5h70zM1257 645q5 0 5 -5v-7q0 -5 -5 -5h-54q-3 0 -3 -4v-30q0 -5 3 -5h54q5 0 5 -4v-7q0 -5 -5 -5h-54q-3 0 -3 -4v-28q0 -3 3 -3h54q5 0 5 -3v-8q0 -5 -5 -5h-69q-4 0 -4 5v113q0 5 4 5h69zM1404 645
q5 0 5 -5v-7q0 -5 -5 -5h-53q-3 0 -3 -4v-31q0 -4 3 -4h53q5 0 5 -4v-7q0 -5 -5 -5h-53q-3 0 -3 -4v-42q0 -5 -5 -5h-9q-3 0 -3 5v113q0 5 3 5h70zM1419 583q0 26 18.5 45t45.5 19q25 0 43.5 -19t18.5 -45t-18.5 -44.5t-43.5 -18.5q-27 0 -45.5 18.5t-18.5 44.5zM1436 583
q0 -19 13.5 -32.5t33.5 -13.5q19 0 32.5 13.5t13.5 32.5q0 20 -13.5 33.5t-32.5 13.5q-20 0 -33.5 -13.5t-13.5 -33.5zM1578 556q-3 0 -3 -4v-25q0 -5 -4 -5h-7q-5 0 -5 5v113q0 5 5 5h19q26 0 44.5 -9.5t18.5 -34.5t-17 -34q-6 -3 -3 -10l15 -30q2 -5 -3 -5h-10q-4 0 -5 3
l-15 31q0 2 -6 2q-5 -1 -9 -1.5t-10 -0.5h-5zM1579 628q-4 0 -4 -4v-46q0 -5 3 -5h5q20 0 33 6t13 22q0 15 -13 21t-33 6h-4zM2595 645q5 0 5 -5v-69q0 -18 5.5 -26t22.5 -8t23 8t6 26v69q0 5 5 5h7q4 0 4 -5v-69q0 -51 -45 -51t-45 51v69q0 5 4 5h8zM2750 611q0 7 -6 13
t-17 6q-14 0 -19 -6t-5 -13q0 -9 10.5 -12.5t23 -7t23 -10t10.5 -22.5q0 -19 -13.5 -29t-30.5 -10t-30 10.5t-13 28.5q0 5 5 5h7q4 0 4 -5q0 -7 7 -14.5t21 -7.5q15 0 21 7.5t6 14.5q0 9 -10.5 12.5t-23.5 7t-23.5 10t-10.5 22.5q0 20 13.5 28t27.5 8t26.5 -9t12.5 -27
q0 -5 -4 -5h-7q-5 0 -5 5zM2857 645q5 0 5 -5v-7q0 -5 -5 -5h-53q-4 0 -4 -4v-30q0 -5 4 -5h53q5 0 5 -4v-7q0 -5 -5 -5h-53q-4 0 -4 -4v-28q0 -3 4 -3h53q5 0 5 -3v-8q0 -5 -5 -5h-69q-5 0 -5 5v113q0 5 5 5h69zM2936 583q0 26 18.5 45t44.5 19t44 -19t18 -45t-18 -44.5
t-44 -18.5t-44.5 18.5t-18.5 44.5zM2953 583q0 -19 13 -32.5t33 -13.5t33.5 13.5t13.5 32.5q0 20 -13.5 33.5t-33.5 13.5t-33 -13.5t-13 -33.5zM3164 645q3 0 3 -5v-113q0 -5 -3 -5h-7q-4 0 -6 2l-54 82q-1 1 -2.5 0.5t-1.5 -3.5v-76q0 -5 -5 -5h-8q-5 0 -5 5v113q0 5 5 5h8
q2 0 2.5 -1t2.5 -1l54 -82q1 -2 2.5 -2t1.5 5v76q0 5 4 5h9zM3197 645q4 0 4 -5v-97q0 -5 4 -5h53q5 0 5 -3v-8q0 -5 -5 -5h-70q-3 0 -3 5v113q0 5 3 5h9zM3254 639q-1 2 0 4t3 2h7q6 0 8 -2l24 -52q2 -6 5 -3l24 55q3 2 8 2h7q2 0 3 -2t-1 -4l-34 -75q-1 -1 -1 -4v-33
q0 -5 -5 -5h-7q-5 0 -5 5v33v4zM1228 454q4 0 4 -4v-8q0 -5 -4 -5h-54q-4 0 -4 -3v-31q0 -4 4 -4h54q4 0 4 -4v-9q0 -4 -4 -4h-54q-4 0 -4 -3v-43q0 -4 -4 -4h-7q-5 0 -5 4v114q0 4 5 4h69zM1242 393q0 26 19 44.5t45 18.5t44 -18.5t18 -44.5t-18 -44.5t-44 -18.5t-45 18.5
t-19 44.5zM1259 393q0 -20 13.5 -33.5t33.5 -13.5q19 0 32.5 13.5t13.5 33.5t-13.5 33t-32.5 13q-20 0 -33.5 -13t-13.5 -33zM1402 367q-3 0 -3 -4v-27q0 -4 -4 -4h-8q-5 0 -5 4v114q0 4 5 4h20q26 0 44.5 -9.5t18.5 -34.5q0 -23 -18 -33q-5 -5 -3 -10l15 -30q2 -5 -4 -5h-9
q-3 0 -5 2l-15 33h-5h-19h-5zM1403 437q-4 0 -4 -3v-48q0 -4 4 -4h4q19 0 32.5 6.5t13.5 21.5t-13.5 21t-32.5 6h-4zM1556 393q0 26 18.5 44.5t44.5 18.5t44 -18q3 -3 0 -5l-6 -6q-2 -2 -6 0q-12 12 -32 12t-33.5 -13t-13.5 -33t13.5 -33.5t33.5 -13.5q19 0 32 13q3 3 6 0
l6 -6q3 -2 0 -5q-20 -18 -44 -18q-26 0 -44.5 18.5t-18.5 44.5zM1676 393q0 26 18.5 44.5t44.5 18.5t44.5 -18.5t18.5 -44.5t-18.5 -44.5t-44.5 -18.5t-44.5 18.5t-18.5 44.5zM1693 393q0 -20 13 -33.5t33 -13.5t33.5 13.5t13.5 33.5t-13.5 33t-33.5 13t-33 -13t-13 -33z
M1830 336q0 -4 -4 -4h-7q-4 0 -4 4l2 114q0 4 5 4h8q4 0 4 -3l36 -84q2 -5 3 -4.5t2 1.5l36 87q1 3 4 3h8q5 0 5 -4l3 -114q0 -4 -4 -4h-9q-4 0 -4 4l-2 62q0 4 -1.5 4t-3.5 -4l-26 -64q-2 -2 -6 -2h-5q-5 0 -5 2l-27 66q-6 6 -6 -4zM1961 336q0 -4 -4 -4h-8q-5 0 -5 4
l4 114q0 4 4 4h9q2 0 4 -3l35 -84q2 -5 3 -4.5l3 1.5l35 87q1 3 5 3h7q5 0 5 -4l4 -114q0 -4 -5 -4h-7q-5 0 -5 4l-2 62q0 4 -2 4t-4 -4l-26 -64q-2 -2 -5 -2h-6q-3 0 -5 2l-28 66q0 2 -2 1.5t-2 -5.5zM2151 454q4 0 4 -4v-8q0 -5 -4 -5h-54q-4 0 -4 -4v-30q0 -4 4 -4h54
q4 0 4 -4v-9q0 -4 -4 -4h-54q-4 0 -4 -3v-27q0 -4 4 -4h54q4 0 4 -4v-8q0 -4 -4 -4h-69q-5 0 -5 4v114q0 4 5 4h69zM2188 367q-2 0 -2 -4v-27q0 -4 -5 -4h-8q-4 0 -4 4v114q0 4 4 4h20q26 0 44.5 -9.5t18.5 -34.5q0 -24 -17 -33q-5 -5 -3 -10l15 -30q0 -5 -4 -5h-10
q-2 0 -4 2l-15 33h-5h-20h-5zM2189 437q-3 0 -3 -3v-48q0 -4 3 -4h4q20 0 33.5 6.5t13.5 21.5t-13.5 21t-33.5 6h-4zM2266 393q0 26 18.5 44.5t45.5 18.5q12 0 23.5 -5t19.5 -13q5 -3 0 -5l-4 -6q-3 -2 -8 0q-12 12 -31 12q-20 0 -33 -13t-13 -33t13 -33.5t33 -13.5
q18 0 31 13q5 2 8 0l4 -6q5 -3 0 -5q-18 -18 -43 -18q-27 0 -45.5 18.5t-18.5 44.5zM2404 454q4 0 4 -4v-114q0 -4 -4 -4h-8q-4 0 -4 4v114q0 4 4 4h8zM2453 360q-2 0 -5 -3l-6 -23q-2 -3 -4 -2.5t-4 0.5h-7q-4 0 -2 5l40 114q0 3 4 3h10q3 0 5 -2l40 -115q0 -5 -3 -5h-7
q-2 0 -3.5 -0.5t-3.5 2.5l-7 22q-4 4 -6 4h-41zM2476 422q-1 1 -2.5 1t-1.5 -2l-14 -40q-1 -1 0 -2.5t4 -1.5h26q2 0 2.5 1.5t-0.5 2.5zM2551 454q3 0 3 -4v-97q0 -5 3 -5h55q1 0 3 -1t2 -3v-8q0 -2 -2 -3t-3 -1h-70q-5 0 -5 4v114q0 4 5 4h9zM2715 454q4 0 4 -4v-69
q0 -18 6 -26.5t23 -8.5t23 8.5t6 26.5v69q0 4 4 4h8q5 0 5 -4v-69q0 -51 -46 -51q-24 0 -34.5 13t-10.5 38v69q0 4 4 4h8zM2869 420q0 8 -6 14t-17 6q-12 0 -17.5 -6.5t-5.5 -13.5q0 -9 10.5 -12.5t23 -7t23 -10t10.5 -21.5q0 -19 -13.5 -29t-30.5 -10t-30 10t-13 29
q0 4 4 4h7q5 0 5 -4q0 -8 6.5 -15.5t20.5 -7.5q16 0 22 8t6 15q0 9 -10.5 12.5t-23.5 7t-23.5 10t-10.5 21.5q0 20 14 28t26 8q14 0 27 -8t13 -28q0 -4 -4 -4h-8q-5 0 -5 4zM2977 454q5 0 5 -4v-8q0 -5 -5 -5h-54q-3 0 -3 -4v-30q0 -4 3 -4h54q5 0 5 -4v-9q0 -4 -5 -4h-54
q-3 0 -3 -3v-27q0 -4 3 -4h54q5 0 5 -4v-8q0 -4 -5 -4h-70q-4 0 -4 4v114q0 4 4 4h70zM1108 175q-4 0 -4 -3v-26q0 -4 -4 -4h-8q-4 0 -4 4v114q0 4 4 4h21q26 0 44.5 -9.5t18.5 -34.5t-18.5 -35t-44.5 -10h-5zM1108 248q-1 0 -3 -2l-1 -1v-48q0 -5 4 -5h5q19 0 32.5 6.5
t13.5 21.5t-13.5 21.5t-32.5 6.5h-5zM1199 264q5 0 5 -4v-69q0 -18 6 -26.5t22 -8.5q17 0 23.5 8.5t6.5 26.5v69q0 4 4 4h8q4 0 4 -4v-69q0 -51 -46 -51q-45 0 -45 51v69q0 4 6 4h6zM1314 175q-3 0 -3 -3v-26q0 -4 -5 -4h-8q-4 0 -4 4v114q0 4 4 4h20q26 0 44.5 -9.5
t18.5 -34.5q0 -22 -17 -34q-3 -2 -4 -3.5t1 -6.5l15 -29q0 -5 -4 -5h-9q-5 0 -5 3l-15 30q0 2 -5 2q-5 -1 -10 -1.5t-10 -0.5h-4zM1314 248q-2 0 -2 -2l-1 -1v-48q0 -5 3 -5h4q20 0 33 6.5t13 21.5t-13 21.5t-33 6.5h-4zM1392 203q0 26 18.5 44t44.5 18q13 0 24 -4t19 -13
q4 -4 0 -6l-5 -6q-3 -2 -6 0q-12 13 -32 13t-33 -13.5t-13 -32.5q0 -20 13 -33.5t33 -13.5q19 0 32 13q2 4 6 0l5 -5q4 -3 0 -7q-8 -8 -19 -12.5t-24 -4.5q-26 0 -44.5 18.5t-18.5 44.5zM1526 264q4 0 4 -4v-47q0 -5 4 -5h55q3 0 3 5v47q0 4 5 4h8q4 0 4 -4v-114q0 -4 -4 -4
h-8q-5 0 -5 4v42q0 4 -3 4h-54q-5 0 -5 -4v-42q0 -4 -4 -4h-8q-5 0 -5 4v114q0 4 5 4h8zM1652 171q-4 0 -4 -5l-8 -21q-2 -3 -3.5 -3h-3.5h-7q-3 0 -3 5l40 114q1 3 5 3h9q5 0 5 -3l40 -114q2 -5 -2 -5h-7h-4t-3 3l-7 21q-3 5 -6 5h-41zM1676 231q-1 2 -3 2t-3 -2l-13 -40
q0 -4 3 -4h26q4 0 4 4zM1800 230q0 8 -6 14t-18 6t-17.5 -6t-5.5 -14q0 -9 10.5 -12.5t23 -7t23 -10t10.5 -21.5q0 -20 -13.5 -29.5t-30.5 -9.5t-30 10t-13 29q0 5 4 5h8q5 0 5 -5q0 -8 6 -15.5t20 -7.5q15 0 21 8.5t6 14.5q0 9 -10.5 12.5t-23 7t-23 10t-10.5 21.5
q0 19 14 27.5t26 8.5q14 0 27 -8.5t13 -27.5q0 -4 -4 -4h-8q-4 0 -4 4zM1908 264q4 0 4 -4v-7q0 -5 -4 -5h-54q-5 0 -5 -5v-30q0 -5 5 -5h54q4 0 4 -4v-7q0 -5 -4 -5h-54q-5 0 -5 -3v-27q0 -4 5 -4h54q4 0 4 -5v-7q0 -4 -4 -4h-70q-4 0 -4 4v114q0 4 4 4h70zM2028 171
q-5 0 -5 -5l-8 -21q-1 -3 -3 -3h-4h-8q-1 0 -2 1.5t1 3.5l40 114q1 3 4 3h10q4 0 4 -3l41 -114q2 -5 -2 -5h-7h-4t-4 3l-7 21q-2 5 -6 5h-40zM2050 231q0 2 -2 2t-2 -2l-14 -40q-2 -4 4 -4h26q3 0 3 4zM2197 264q4 0 4 -4v-98q0 -4 4 -4h53q5 0 5 -5v-7q0 -4 -5 -4h-70
q-3 0 -3 4v114q0 4 3 4h9zM2290 264q4 0 4 -4v-114q0 -4 -4 -4h-7q-5 0 -5 4v114q0 4 5 4h7zM2310 203q0 26 18.5 44t44.5 18q12 0 23.5 -4t19.5 -13q4 -3 0 -6l-5 -6q-3 -3 -5 0q-13 13 -33 13t-33.5 -13.5t-13.5 -32.5q0 -20 13.5 -33.5t33.5 -13.5q18 0 33 13q0 2 2 2
t3 -2l5 -5q5 -4 0 -7q-8 -8 -19.5 -12.5t-23.5 -4.5q-26 0 -44.5 18.5t-18.5 44.5zM2505 264q5 0 5 -4v-7q0 -5 -5 -5h-53q-4 0 -4 -5v-30q0 -5 4 -5h53q5 0 5 -4v-7q0 -5 -5 -5h-53q-4 0 -4 -3v-27q0 -4 4 -4h53q5 0 5 -5v-7q0 -4 -5 -4h-69q-4 0 -4 4v114q0 4 4 4h69z
M2611 264q5 0 5 -4v-114q0 -4 -5 -4h-7q-4 0 -4 1l-55 82q-1 2 -2.5 1.5t-1.5 -4.5v-76q0 -4 -4 -4h-9q-4 0 -4 4v114q0 4 4 4h9h1l3 -3l54 -81l3 -1.5t1 4.5v77q0 4 4 4h8zM2696 230q0 8 -6 14t-17 6q-13 0 -18.5 -6t-5.5 -14q0 -9 10.5 -12.5t23 -7t23 -10t10.5 -21.5
q0 -20 -13 -29.5t-30 -9.5q-18 0 -30.5 10t-12.5 29q0 5 3 5h9q4 0 4 -5q0 -8 6.5 -15.5t20.5 -7.5q15 0 21 8.5t6 14.5q0 9 -10.5 12.5t-23 7t-23 10t-10.5 21.5q0 19 13.5 27.5t26.5 8.5q14 0 27 -8.5t13 -27.5q0 -4 -4 -4h-8q-5 0 -5 4zM2804 264q5 0 5 -4v-7q0 -5 -5 -5
h-54q-3 0 -3 -5v-30q0 -5 3 -5h54q5 0 5 -4v-7q0 -5 -5 -5h-54q-3 0 -3 -3v-27q0 -4 3 -4h54q5 0 5 -5v-7q0 -4 -5 -4h-69q-5 0 -5 4v114q0 4 5 4h69zM2925 171q-5 0 -5 -5l-8 -21q-2 -3 -3.5 -3h-3.5h-7q-6 0 -3 5l40 114q1 3 5 3h9q5 0 5 -3l41 -114q2 -5 -3 -5h-7h-4
t-4 3l-6 21q-3 5 -7 5h-39zM2948 231q-2 2 -3.5 2t-1.5 -2l-14 -40q-2 -2 -0.5 -3t3.5 -1h26q2 0 3.5 1t-0.5 3zM2991 260q0 4 5 4h77q5 0 5 -4v-7q0 -5 -5 -5h-27q-2 0 -2 -2l-1 -1v-99q0 -4 -5 -4h-8q-5 0 -5 4v97q0 5 -3 5h-26q-5 0 -5 5v7zM1752 615q1 5 7 5t7 -5
q1 -11 1 -17.5t1 -18.5q4 10 11.5 19t16.5 14.5t18.5 5.5t16.5 -9q5 -6 6 -14q1 -9 -4 -16.5t-14.5 -13.5t-21 -9t-21.5 -3q-2 -12 1 -33t3 -41q0 -5 -3 -5.5t-6 2.5q-6 32 -11 68t-8 71zM1780 572q-2 -4 -2 -10q8 -1 18 2.5t17.5 9t11 12.5t-1.5 14t-12 5.5t-13.5 -7.5
t-11.5 -13.5t-6 -12.5zM1864 581q-10 5 -7.5 8.5t12.5 -1.5q11 14 25 24.5t25 2.5q9 -8 9 -15.5t-7 -13.5t-17.5 -9t-22.5 -1q-4 -10 2 -16q3 -4 13 -4.5t21 1.5t22 5.5t17 8.5q5 3 7 0t-1 -6q-7 -6 -24 -12t-35 -8t-31 2t-13 18q0 2 1 6.5t4 9.5zM1915 596q3 5 0.5 8
t-8.5 1t-11 -8l-10 -12q8 -2 16.5 1.5t12.5 9.5zM1979 613q-1 4 5 5.5t9 -3.5q2 -5 3 -12t1 -15q12 26 47 30q5 0 5.5 -4t-4.5 -4q-15 -2 -23.5 -9.5t-13 -18.5t-5.5 -22.5t-1 -20.5q0 -5 -4 -5.5t-7 2.5q-3 9 -5 20.5t-3 22.5t-2 20t-2 14zM2113 606q-4 -1 -4.5 2.5
t1.5 6.5q-3 3 -8 2t-9.5 -3.5t-8 -6t-3.5 -6.5q0 -5 8 -10.5t17.5 -11.5t17 -11.5t7.5 -9.5v-4q-2 -8 -11.5 -14t-21 -7.5t-21 2.5t-10.5 17q0 5 4 5t4 -5q1 -8 7 -10t12.5 -1t12.5 5t7 9q0 4 -8 8.5t-17 10t-16 12.5t-5 16q2 11 11.5 16.5t19.5 6t17.5 -3t4.5 -11.5
q-1 -2 -8 -4zM2166 601q17 20 35 2q17 -14 11.5 -29.5t-20.5 -19.5q-12 -3 -19.5 1t-11 12t-2.5 17.5t7 16.5zM2196 595q-3 5 -9.5 4.5t-10.5 -6.5q-2 -3 -2.5 -8.5t1 -10.5t5.5 -8t10 -1q12 5 12 14.5t-6 15.5zM2243 610q2 4 9 3t7 -5q-2 -11 -1 -22.5t2 -19.5q5 9 10.5 22
t15.5 17q6 1 11 -5t9.5 -14.5t8 -17.5t7.5 -13q3 -5 -2 -7t-8 1t-6 10t-5.5 14t-5.5 11.5t-6 3.5q-5 -1 -8.5 -7.5t-7.5 -14.5t-8 -15t-8 -9q-3 0 -5 2q-8 11 -10 32t1 34zM2407 598q3 -23 5.5 -40t4.5 -19q3 -3 -0.5 -6t-6.5 1q-6 5 -8 14t-4 20q-7 -12 -15 -19t-21 -7
q-3 1 -7 4t-6 5q-6 8 -3.5 18.5t9 19.5t15.5 15.5t18 6.5v13q1 4 6.5 3.5t7.5 -3.5q5 -12 5 -26zM2360 555q8 -6 17 5t12 31q-10 2 -17.5 -2t-11 -10.5t-4 -13.5t3.5 -10zM2453 690q1 5 7.5 5.5t7.5 -3.5v-34t1 -43t3 -42t6 -31q8 -2 13 -1t13 3q5 0 6 -3t-3 -6
q-18 -6 -27 -7.5t-13.5 3t-5.5 16t-3 31.5q-2 28 -3 56zM988 137q1 4 7 3t7 -5v-21.5t0.5 -28.5t1.5 -30t2 -26q5 11 14.5 11.5t19 -5t16.5 -15t8 -18.5q1 -17 -18 -26.5t-38 -10.5q0 -4 0.5 -7t0.5 -8q-1 -4 -5 -4t-6 4l-3 18q-8 0 -8 6q0 2 3 2.5t5 0.5q-5 38 -7 82.5
t0 77.5zM1008 -5q-1 -10 0 -18q14 0 25.5 4t15.5 8q7 8 1.5 18.5t-14.5 15t-18 -0.5t-10 -27zM1081 34q0 4 6 5.5t9 -2.5q3 -6 3.5 -13t0.5 -15q6 12 17 20t30 10q5 0 5.5 -4t-4.5 -5q-15 -1 -24 -9t-13.5 -18.5t-5.5 -22t-1 -20.5q0 -5 -4 -6t-6 4q-3 9 -4.5 20l-3 22
t-2.5 20t-3 14zM1178 31q1 5 7 5t8 -4q0 -20 -0.5 -33.5t0.5 -24.5q0 -5 -5.5 -5t-7.5 5q0 10 -0.5 16.5t-1 12t-0.5 12v16.5zM1189 49q-5 -3 -9 1.5t-1 9.5l1 3q7 4 11.5 -0.5t-1.5 -10.5zM1254 108q0 5 9 5.5t9 -4.5q-3 -37 -4.5 -77t0.5 -79q-2 -4 -5.5 -4.5t-3.5 3.5
q-4 29 -5 70t0 86zM1226 34q-4 0 -4 5.5t4 7.5q10 0 53 1t108 3q5 0 5.5 -4t-4.5 -5zM1328 103q1 5 9.5 5t7.5 -5q-2 -37 -3 -70.5t1 -72.5q-2 -4 -6 -4.5t-5 3.5q-2 29 -3 64t-1 80zM1398 30q2 4 8.5 3.5t6.5 -5.5v-22t2 -19q5 10 11 22.5t16 14.5q6 2 10.5 -3.5t8.5 -14
t8 -17.5t8 -13q5 -4 0 -7t-10 2q-3 3 -5.5 9.5t-5.5 13t-6.5 10.5t-6.5 3q-4 -1 -7.5 -7t-7 -13.5t-7.5 -14.5t-8 -9q-3 0 -6 2q-8 11 -9.5 32t0.5 33zM1502 2q-9 5 -7 8.5t13 -3.5q10 15 24.5 25.5t24.5 2.5q9 -8 9 -15.5t-6.5 -13.5t-17.5 -8.5t-22 -0.5q-7 -11 1 -16
q3 -4 13 -4.5t21 1t22.5 5t17.5 8.5q5 3 7 0.5t-2 -7.5q-7 -6 -24 -11.5t-34.5 -7.5t-30.5 2t-13 17q0 9 4 18zM1554 17q3 5 0 7.5t-9 0.5q-5 -1 -10.5 -7t-9.5 -13q8 -1 16.5 2.5t12.5 9.5zM1615 12q-2 5 1.5 6t6.5 -4q0 -3 3 -9t7 -12t8 -10t7 -4t4.5 7.5t2.5 17.5t1.5 20
t2.5 15q2 3 7.5 2.5t7.5 -4.5q0 -17 2.5 -42.5t2 -52.5t-7.5 -51t-25 -36q-14 -10 -32 -11t-36.5 3.5t-36.5 11.5t-32 14q-4 3 -2.5 6.5t5.5 2.5q10 -5 26.5 -11.5t34.5 -10.5t35.5 -3.5t31.5 9.5q10 7 15 21t7.5 30.5t2 33t-0.5 30.5q-3 -11 -9.5 -14.5t-14.5 1.5
q-9 7 -16 20t-9 24zM1714 -38q0 15 2.5 36t5.5 36q-2 4 3 6q2 1 5 2q6 0 6 -6v-2q1 2 3 1t4 -3q3 -8 5 -13.5t5 -14.5q1 -4 3.5 -10t5 -11.5t5.5 -8t6 -0.5q6 8 11.5 22t7.5 23q0 1 0.5 1.5t0.5 1.5v2q0 5 1 14t7 11q2 1 6 1t5 -2q3 -8 6 -22.5t6.5 -29t8.5 -26t13 -12.5
q4 -2 3 -5.5t-5 -5.5q-7 1 -13 8t-10.5 17t-7.5 20.5t-4 19.5q-3 -11 -6.5 -21.5t-9 -18.5t-11.5 -12t-13 -1q-11 5 -16 13t-8 19q-2 5 -3 10.5t-3 10.5q-2 -12 -4.5 -25.5t-6.5 -25.5l-1 -1q-2 -4 -6.5 -3t-6.5 5zM1861 17q1 5 6.5 5t7.5 -5q0 -14 6 -23.5t13.5 -11t14 6
t7.5 28.5q2 5 7 4.5t5 -5.5q-2 -11 -2.5 -18.5t-7.5 -16.5q-9 -14 -24 -13.5t-23 13.5q-7 8 -8 17t-2 19zM1949 34q-1 4 5.5 5.5t8.5 -2.5q4 -11 4 -28q6 12 17 20t30 10q5 0 5.5 -4t-4.5 -5q-15 -1 -24 -9t-13.5 -18.5t-5.5 -22t-1 -20.5q0 -5 -3.5 -6t-6.5 4q-3 9 -4.5 20
t-2.5 22t-2.5 20t-2.5 14zM2036 35q1 5 6.5 5.5t7.5 -3.5q0 -12 0.5 -19t2.5 -18q4 10 11.5 19t16.5 14.5t18 5.5t17 -9q4 -8 4 -15q1 -8 -4 -15.5t-14 -13.5t-20 -9t-22 -3q-3 -21 -1.5 -43t1.5 -42q0 -4 -3 -5t-6 1q-1 4 -2 13t-2 20t-2 21.5t-2 18.5q-2 19 -4.5 38
t-2.5 39zM2064 -8q-1 -3 -1 -4.5t-1 -4.5q8 -1 18 2.5t17.5 9t11 12.5t-1.5 14t-12 5.5t-13.5 -7.5t-11.5 -13.5t-6 -13.5zM2142 115q-2 5 2.5 7t7.5 -3q4 -9 6.5 -26.5t4 -36t1.5 -36v-26.5q1 3 3.5 9t6 11.5t8 8.5t9.5 1q4 -1 8.5 -6.5t9 -11.5t9.5 -12t10 -7q5 -2 4.5 -6
t-5.5 -2q-6 1 -12 6.5t-11.5 11.5t-10 10.5t-7.5 4.5q-8 -11 -11.5 -23.5t-9.5 -24.5q-2 -3 -7.5 -2.5t-6.5 5.5q-3 41 -5 75t-4 73zM2244 12q0 5 4 6t6 -4q0 -3 3 -9t7 -12t7.5 -10t5.5 -4q4 0 5.5 7.5t2.5 17.5t1.5 20t2.5 15q3 3 8.5 2.5t6.5 -4.5q0 -17 3 -42.5t2 -52.5
t-7.5 -51t-25.5 -36q-14 -10 -31.5 -11t-36 3.5t-36.5 11.5t-33 14q-4 3 -2 6.5t6 2.5q10 -5 26 -11.5t34 -10.5t35.5 -3.5t31.5 9.5q10 7 15.5 21t7.5 30.5t2 33t-1 30.5q-3 -11 -9.5 -14.5t-14.5 1.5q-8 7 -16 20t-10 24zM2350 19q4 4 18.5 9.5t23.5 1.5q0 40 -2 58.5
t5 30.5q2 4 6 4.5t6 -1.5q5 -13 4 -40t-5 -53q2 -29 4 -56.5t10 -51.5q0 -4 -3.5 -6t-6.5 -2q-1 0 -4 6q-4 14 -7 35.5t-5 42.5q-3 -6 -7 -13.5t-9.5 -13.5t-11.5 -8t-13 3q-5 3 -8.5 10t-4.5 15t1.5 15.5t8.5 13.5zM2367 -23q7 2 14.5 15.5t9.5 25.5q-1 0 -1 2q0 1 -1 1
q-1 1 -6.5 0.5t-12 -3.5t-12 -8t-5.5 -12q0 -5 2 -13.5t12 -7.5zM2443 2q-9 5 -6.5 8.5t12.5 -3.5q10 15 24.5 25.5t24.5 2.5t9.5 -15.5t-6.5 -13.5t-17 -8.5t-22 -0.5q-6 -11 0 -16q4 -4 13.5 -4.5t21 1t22.5 5t17 8.5q5 3 7 0.5t-2 -7.5q-8 -6 -24.5 -11.5t-34 -7.5
t-30.5 2t-13 17q0 4 1 8.5t3 9.5zM2495 17q2 5 0 7.5t-7 0.5q-7 -1 -12 -7t-10 -13q7 -1 16 2.5t13 9.5zM2598 27q-4 -1 -5 2t2 6q-3 3 -8 2.5t-9.5 -3.5t-8 -6.5t-3.5 -6.5q0 -5 7.5 -11t17.5 -11.5t17.5 -10.5t7.5 -9q-1 -2 -0.5 -2.5t-0.5 -2.5q-1 -7 -11 -13t-21.5 -7.5
t-21 2.5t-10.5 16q0 5 4.5 5.5t4.5 -4.5q1 -8 6.5 -10t12.5 -1t13 5t7 9q0 3 -8 7t-17.5 10t-17 13.5t-5.5 17.5t12 15.5t20 6t17.5 -3.5t5.5 -12q-2 -1 -3 -1t-5 -2zM2640 31q2 5 8 5t8 -4q0 -20 -1 -33.5t0 -24.5q0 -5 -5 -5t-6 5q0 10 -0.5 16.5t-1 12t-1.5 12t-1 16.5z
M2653 49q-6 -3 -10.5 1.5t-0.5 9.5l2 3q7 4 11 -0.5t-1 -10.5zM2686 -15q-4 10 6 22q8 11 21 18t24 7v9t1 9q3 3 8.5 3t6.5 -4q4 -17 0 -32q1 -14 4 -36t5 -45.5t0.5 -44t-8.5 -31.5q-7 -12 -27.5 -15.5t-42.5 -0.5t-40.5 11.5t-22.5 20.5q0 5 3 6.5t6 -2.5q3 -9 19 -15.5
t35.5 -9t37 0.5t22.5 12t5.5 24t-1 32t-4 35.5t-4.5 34.5q-13 -18 -37 -18q-6 0 -11 2t-6 7zM2736 11q2 2 2 12q-3 1 -10 -2t-13 -7.5t-10.5 -10t-3.5 -10.5q2 -3 7.5 -3t11 3t10 7.5t6.5 10.5zM2791 30q3 4 10 3.5t7 -5.5q-2 -11 -1 -22t2 -19q4 10 10.5 22.5t16.5 14.5
q6 2 10.5 -3.5t8.5 -14t8 -17.5t8 -13q3 -4 -2 -7t-8 2q-3 3 -6 9.5l-6 13t-6 10.5t-6 3q-4 -1 -7.5 -7t-7.5 -13.5t-8 -14.5t-8 -9q-3 0 -6 2q-8 11 -9.5 32t0.5 33zM2912 -39q-2 -6 -7.5 -6t-6.5 6v4q1 7 7.5 6.5t6.5 -8.5v-2zM2988 22q0 -5 -3.5 -5t-6.5 4q-1 2 -5 5
q-6 0 -10.5 -5.5t-6.5 -13t-0.5 -15t7.5 -11.5q5 -5 12.5 -4.5t16 3.5t16 7t12.5 7q5 2 7 -2t-2 -7q-9 -4 -18 -8.5t-19 -8.5q-8 -2 -21 -4t-20 6q-11 15 -7 31t13.5 26.5t20.5 11t14 -16.5zM3045 22q16 19 35 2q17 -14 11.5 -29.5t-20.5 -20.5q-12 -3 -20 1.5t-11 12.5
t-2 17.5t7 16.5zM3075 16q-3 4 -9 4t-11 -6q-2 -3 -2.5 -9t1.5 -10.5t6 -7.5t10 0q11 4 11.5 13t-6.5 16zM3118 -38q0 15 2 36t4 36q-1 2 0.5 3.5t3.5 2.5t5 2q5 0 5 -6v-2q5 3 8 -2q3 -8 4.5 -13.5t5.5 -14.5q1 -4 3.5 -10t5 -11.5t5.5 -8t5 -0.5q8 8 13 22t6 23q2 2 2 3v2
q1 5 2 14t6 11q7 2 12 -1q3 -8 6 -22.5t6.5 -29t8.5 -26t12 -12.5q4 -2 3 -5.5t-6 -5.5q-7 1 -12.5 8t-9.5 17t-7.5 20.5t-5.5 19.5q-2 -11 -5.5 -21.5t-8.5 -18.5t-11.5 -12t-13.5 -1q-11 5 -16 13t-8 19q-2 5 -3.5 10.5t-3.5 10.5q-2 -12 -4 -25.5t-6 -25.5v-1
q-3 -4 -8 -3t-5 5zM3328 528q0 -8 9 -8t9 8t-9 8t-9 -8zM3000 337q0 -5 3 -6.5t2 -6.5l-1 -7q-2 -3 2 -3h3q2 -2 2 -1t1 2q1 3 3 10t2 12q0 7 -8 7q-9 0 -9 -7zM543 43q16 0 30 6.5t25 17.5t17.5 25t6.5 29v5q0 35 -23.5 56.5t-55.5 21.5q-11 0 -18.5 -0.5t-14.5 -3.5v-5
q0 -30 -9.5 -57.5t-28.5 -47.5q8 -22 27 -34.5t44 -12.5zM270 335q10 7 19.5 10t16.5 3v113v5v148q0 9 13 9h61q9 0 9 -9v-6q25 15 65 15q32 0 58.5 -13.5t43.5 -33.5q22 20 47.5 33.5t60.5 13.5q33 0 59.5 -12t45.5 -34t29 -51.5t10 -64.5v-441q48 56 74.5 123.5
t26.5 144.5q0 84 -31.5 157.5t-86.5 128.5t-128 87t-157 32q-66 0 -127 -20t-109 -54v-284zM729 461q0 35 -17 59.5t-48 24.5q-32 0 -48.5 -24t-16.5 -55v-5v-153q0 -4 -3 -7.5t-7 -3.5h-60q-4 0 -7 3.5t-3 7.5v153v5q-3 31 -18 55t-47 24q-30 0 -47.5 -24t-17.5 -55v-113
q32 -11 56 -28t41 -46q15 3 29 6t28 3q21 0 41.5 -6t37.5 -17v154q0 13 9 13h60q9 0 9 -13v-446q0 -9 -9 -9h-60q-9 0 -9 9v9q-17 -7 -37.5 -12.5t-41.5 -5.5q-46 0 -82 22t-58 57q-14 -7 -27.5 -8t-27.5 -1q-22 0 -41.5 3.5t-36.5 14.5v-9q0 -4 -3 -6.5t-6 -2.5h-61
q-3 0 -6 2.5t-3 6.5v502q-42 -53 -66 -118t-24 -139q0 -84 32 -157t87 -128t128.5 -86.5t157.5 -31.5q63 0 118.5 16.5t104.5 48.5v511zM348 274q-32 0 -55 -22t-23 -57q0 -34 23 -58.5t55 -24.5q11 0 18 3l14 6v5q0 64 43 107q-12 17 -31.5 29t-43.5 12z" />
    <glyph glyph-name="uni00AA" unicode="&#xaa;" horiz-adv-x="259" 
d="M120 550q1 6 2.5 16t1.5 11q1 7 17.5 9.5t35.5 1t34.5 -6t15.5 -10.5q-1 -21 -3.5 -55.5t-5.5 -70t-6 -67t-6 -46.5q-1 -7 -12.5 -10.5t-24.5 -4t-24 3t-11 11.5l-3 68q-38 -50 -77 -31q-22 10 -29 40.5t-0.5 63t25.5 58t49 24.5q8 0 21 -5zM71 381q3 -2 8 3.5t10.5 22
t12.5 46.5t15 78q-4 6 -7 7q-11 3 -21.5 -19.5t-17 -52t-7.5 -55.5t7 -30z" />
    <glyph glyph-name="uni00AB" unicode="&#xab;" horiz-adv-x="318" 
d="M154 296q9 6 14 -2.5t0 -16.5q-8 -9 -22.5 -25.5t-28 -33.5t-23 -31.5t-8.5 -20.5q1 -5 11.5 -15.5t24.5 -22.5t28.5 -23.5t22.5 -17.5q4 -3 4.5 -7t-1.5 -7t-5.5 -5t-7.5 0q-5 3 -22 12.5t-38 22l-42 25t-34 21.5q-3 2 -4.5 9.5t-1 16.5t2 16.5t4.5 10.5q14 13 33 27.5
t37.5 28t34 23.5t21.5 15zM272 296q9 6 14.5 -2.5t-0.5 -16.5q-8 -9 -22.5 -25.5t-28 -33.5t-23 -31.5t-8.5 -20.5q1 -5 11.5 -15.5t24.5 -22.5t28.5 -23.5t22.5 -17.5q4 -3 4.5 -7t-1.5 -7t-5.5 -5t-6.5 0q-5 3 -22 12.5t-38 22t-42.5 25t-34.5 21.5q-3 2 -4 9.5t-1 16.5
t1.5 16.5t4.5 10.5q14 13 33 27.5t37.5 28t34 23.5t21.5 15z" />
    <glyph glyph-name="registered" unicode="&#xae;" horiz-adv-x="3444" 
d="M972 645q4 0 4 -5v-7q0 -5 -4 -5h-54q-4 0 -4 -4v-31q0 -4 4 -4h54q4 0 4 -4v-7q0 -5 -4 -5h-54q-4 0 -4 -4v-42q0 -5 -4 -5h-7q-5 0 -5 5v113q0 5 5 5h69zM1011 556q-4 0 -4 -4v-25q0 -5 -5 -5h-7q-5 0 -5 5v113q0 5 5 5h20q26 0 44 -9.5t18 -34.5t-17 -34q-6 -4 -2 -10
l13 -30q2 -5 -3 -5h-9q-4 0 -5 3l-15 31q0 2 -5 2q-5 -1 -9.5 -1.5t-9.5 -0.5h-4zM1011 628q-4 0 -4 -4v-46q0 -5 4 -5h4q20 0 33 6t13 22q0 15 -13 21t-33 6h-4zM1165 645q5 0 5 -5v-7q0 -5 -5 -5h-54q-3 0 -3 -4v-30q0 -5 3 -5h54q5 0 5 -4v-7q0 -5 -5 -5h-54q-3 0 -3 -4
v-28q0 -3 3 -3h54q5 0 5 -3v-8q0 -5 -5 -5h-70q-4 0 -4 5v113q0 5 4 5h70zM1257 645q5 0 5 -5v-7q0 -5 -5 -5h-54q-3 0 -3 -4v-30q0 -5 3 -5h54q5 0 5 -4v-7q0 -5 -5 -5h-54q-3 0 -3 -4v-28q0 -3 3 -3h54q5 0 5 -3v-8q0 -5 -5 -5h-69q-4 0 -4 5v113q0 5 4 5h69zM1404 645
q5 0 5 -5v-7q0 -5 -5 -5h-53q-3 0 -3 -4v-31q0 -4 3 -4h53q5 0 5 -4v-7q0 -5 -5 -5h-53q-3 0 -3 -4v-42q0 -5 -5 -5h-9q-3 0 -3 5v113q0 5 3 5h70zM1419 583q0 26 18.5 45t45.5 19q25 0 43.5 -19t18.5 -45t-18.5 -44.5t-43.5 -18.5q-27 0 -45.5 18.5t-18.5 44.5zM1436 583
q0 -19 13.5 -32.5t33.5 -13.5q19 0 32.5 13.5t13.5 32.5q0 20 -13.5 33.5t-32.5 13.5q-20 0 -33.5 -13.5t-13.5 -33.5zM1578 556q-3 0 -3 -4v-25q0 -5 -4 -5h-7q-5 0 -5 5v113q0 5 5 5h19q26 0 44.5 -9.5t18.5 -34.5t-17 -34q-6 -3 -3 -10l15 -30q2 -5 -3 -5h-10q-4 0 -5 3
l-15 31q0 2 -6 2q-5 -1 -9 -1.5t-10 -0.5h-5zM1579 628q-4 0 -4 -4v-46q0 -5 3 -5h5q20 0 33 6t13 22q0 15 -13 21t-33 6h-4zM2595 645q5 0 5 -5v-69q0 -18 5.5 -26t22.5 -8t23 8t6 26v69q0 5 5 5h7q4 0 4 -5v-69q0 -51 -45 -51t-45 51v69q0 5 4 5h8zM2750 611q0 7 -6 13
t-17 6q-14 0 -19 -6t-5 -13q0 -9 10.5 -12.5t23 -7t23 -10t10.5 -22.5q0 -19 -13.5 -29t-30.5 -10t-30 10.5t-13 28.5q0 5 5 5h7q4 0 4 -5q0 -7 7 -14.5t21 -7.5q15 0 21 7.5t6 14.5q0 9 -10.5 12.5t-23.5 7t-23.5 10t-10.5 22.5q0 20 13.5 28t27.5 8t26.5 -9t12.5 -27
q0 -5 -4 -5h-7q-5 0 -5 5zM2857 645q5 0 5 -5v-7q0 -5 -5 -5h-53q-4 0 -4 -4v-30q0 -5 4 -5h53q5 0 5 -4v-7q0 -5 -5 -5h-53q-4 0 -4 -4v-28q0 -3 4 -3h53q5 0 5 -3v-8q0 -5 -5 -5h-69q-5 0 -5 5v113q0 5 5 5h69zM2936 583q0 26 18.5 45t44.5 19t44 -19t18 -45t-18 -44.5
t-44 -18.5t-44.5 18.5t-18.5 44.5zM2953 583q0 -19 13 -32.5t33 -13.5t33.5 13.5t13.5 32.5q0 20 -13.5 33.5t-33.5 13.5t-33 -13.5t-13 -33.5zM3164 645q3 0 3 -5v-113q0 -5 -3 -5h-7q-4 0 -6 2l-54 82q-1 1 -2.5 0.5t-1.5 -3.5v-76q0 -5 -5 -5h-8q-5 0 -5 5v113q0 5 5 5h8
q2 0 2.5 -1t2.5 -1l54 -82q1 -2 2.5 -2t1.5 5v76q0 5 4 5h9zM3197 645q4 0 4 -5v-97q0 -5 4 -5h53q5 0 5 -3v-8q0 -5 -5 -5h-70q-3 0 -3 5v113q0 5 3 5h9zM3254 639q-1 2 0 4t3 2h7q6 0 8 -2l24 -52q2 -6 5 -3l24 55q3 2 8 2h7q2 0 3 -2t-1 -4l-34 -75q-1 -1 -1 -4v-33
q0 -5 -5 -5h-7q-5 0 -5 5v33v4zM1228 454q4 0 4 -4v-8q0 -5 -4 -5h-54q-4 0 -4 -3v-31q0 -4 4 -4h54q4 0 4 -4v-9q0 -4 -4 -4h-54q-4 0 -4 -3v-43q0 -4 -4 -4h-7q-5 0 -5 4v114q0 4 5 4h69zM1242 393q0 26 19 44.5t45 18.5t44 -18.5t18 -44.5t-18 -44.5t-44 -18.5t-45 18.5
t-19 44.5zM1259 393q0 -20 13.5 -33.5t33.5 -13.5q19 0 32.5 13.5t13.5 33.5t-13.5 33t-32.5 13q-20 0 -33.5 -13t-13.5 -33zM1402 367q-3 0 -3 -4v-27q0 -4 -4 -4h-8q-5 0 -5 4v114q0 4 5 4h20q26 0 44.5 -9.5t18.5 -34.5q0 -23 -18 -33q-5 -5 -3 -10l15 -30q2 -5 -4 -5h-9
q-3 0 -5 2l-15 33h-5h-19h-5zM1403 437q-4 0 -4 -3v-48q0 -4 4 -4h4q19 0 32.5 6.5t13.5 21.5t-13.5 21t-32.5 6h-4zM1556 393q0 26 18.5 44.5t44.5 18.5t44 -18q3 -3 0 -5l-6 -6q-2 -2 -6 0q-12 12 -32 12t-33.5 -13t-13.5 -33t13.5 -33.5t33.5 -13.5q19 0 32 13q3 3 6 0
l6 -6q3 -2 0 -5q-20 -18 -44 -18q-26 0 -44.5 18.5t-18.5 44.5zM1676 393q0 26 18.5 44.5t44.5 18.5t44.5 -18.5t18.5 -44.5t-18.5 -44.5t-44.5 -18.5t-44.5 18.5t-18.5 44.5zM1693 393q0 -20 13 -33.5t33 -13.5t33.5 13.5t13.5 33.5t-13.5 33t-33.5 13t-33 -13t-13 -33z
M1830 336q0 -4 -4 -4h-7q-4 0 -4 4l2 114q0 4 5 4h8q4 0 4 -3l36 -84q2 -5 3 -4.5t2 1.5l36 87q1 3 4 3h8q5 0 5 -4l3 -114q0 -4 -4 -4h-9q-4 0 -4 4l-2 62q0 4 -1.5 4t-3.5 -4l-26 -64q-2 -2 -6 -2h-5q-5 0 -5 2l-27 66q-6 6 -6 -4zM1961 336q0 -4 -4 -4h-8q-5 0 -5 4
l4 114q0 4 4 4h9q2 0 4 -3l35 -84q2 -5 3 -4.5l3 1.5l35 87q1 3 5 3h7q5 0 5 -4l4 -114q0 -4 -5 -4h-7q-5 0 -5 4l-2 62q0 4 -2 4t-4 -4l-26 -64q-2 -2 -5 -2h-6q-3 0 -5 2l-28 66q0 2 -2 1.5t-2 -5.5zM2151 454q4 0 4 -4v-8q0 -5 -4 -5h-54q-4 0 -4 -4v-30q0 -4 4 -4h54
q4 0 4 -4v-9q0 -4 -4 -4h-54q-4 0 -4 -3v-27q0 -4 4 -4h54q4 0 4 -4v-8q0 -4 -4 -4h-69q-5 0 -5 4v114q0 4 5 4h69zM2188 367q-2 0 -2 -4v-27q0 -4 -5 -4h-8q-4 0 -4 4v114q0 4 4 4h20q26 0 44.5 -9.5t18.5 -34.5q0 -24 -17 -33q-5 -5 -3 -10l15 -30q0 -5 -4 -5h-10
q-2 0 -4 2l-15 33h-5h-20h-5zM2189 437q-3 0 -3 -3v-48q0 -4 3 -4h4q20 0 33.5 6.5t13.5 21.5t-13.5 21t-33.5 6h-4zM2266 393q0 26 18.5 44.5t45.5 18.5q12 0 23.5 -5t19.5 -13q5 -3 0 -5l-4 -6q-3 -2 -8 0q-12 12 -31 12q-20 0 -33 -13t-13 -33t13 -33.5t33 -13.5
q18 0 31 13q5 2 8 0l4 -6q5 -3 0 -5q-18 -18 -43 -18q-27 0 -45.5 18.5t-18.5 44.5zM2404 454q4 0 4 -4v-114q0 -4 -4 -4h-8q-4 0 -4 4v114q0 4 4 4h8zM2453 360q-2 0 -5 -3l-6 -23q-2 -3 -4 -2.5t-4 0.5h-7q-4 0 -2 5l40 114q0 3 4 3h10q3 0 5 -2l40 -115q0 -5 -3 -5h-7
q-2 0 -3.5 -0.5t-3.5 2.5l-7 22q-4 4 -6 4h-41zM2476 422q-1 1 -2.5 1t-1.5 -2l-14 -40q-1 -1 0 -2.5t4 -1.5h26q2 0 2.5 1.5t-0.5 2.5zM2551 454q3 0 3 -4v-97q0 -5 3 -5h55q1 0 3 -1t2 -3v-8q0 -2 -2 -3t-3 -1h-70q-5 0 -5 4v114q0 4 5 4h9zM2715 454q4 0 4 -4v-69
q0 -18 6 -26.5t23 -8.5t23 8.5t6 26.5v69q0 4 4 4h8q5 0 5 -4v-69q0 -51 -46 -51q-24 0 -34.5 13t-10.5 38v69q0 4 4 4h8zM2869 420q0 8 -6 14t-17 6q-12 0 -17.5 -6.5t-5.5 -13.5q0 -9 10.5 -12.5t23 -7t23 -10t10.5 -21.5q0 -19 -13.5 -29t-30.5 -10t-30 10t-13 29
q0 4 4 4h7q5 0 5 -4q0 -8 6.5 -15.5t20.5 -7.5q16 0 22 8t6 15q0 9 -10.5 12.5t-23.5 7t-23.5 10t-10.5 21.5q0 20 14 28t26 8q14 0 27 -8t13 -28q0 -4 -4 -4h-8q-5 0 -5 4zM2977 454q5 0 5 -4v-8q0 -5 -5 -5h-54q-3 0 -3 -4v-30q0 -4 3 -4h54q5 0 5 -4v-9q0 -4 -5 -4h-54
q-3 0 -3 -3v-27q0 -4 3 -4h54q5 0 5 -4v-8q0 -4 -5 -4h-70q-4 0 -4 4v114q0 4 4 4h70zM1108 175q-4 0 -4 -3v-26q0 -4 -4 -4h-8q-4 0 -4 4v114q0 4 4 4h21q26 0 44.5 -9.5t18.5 -34.5t-18.5 -35t-44.5 -10h-5zM1108 248q-1 0 -3 -2l-1 -1v-48q0 -5 4 -5h5q19 0 32.5 6.5
t13.5 21.5t-13.5 21.5t-32.5 6.5h-5zM1199 264q5 0 5 -4v-69q0 -18 6 -26.5t22 -8.5q17 0 23.5 8.5t6.5 26.5v69q0 4 4 4h8q4 0 4 -4v-69q0 -51 -46 -51q-45 0 -45 51v69q0 4 6 4h6zM1314 175q-3 0 -3 -3v-26q0 -4 -5 -4h-8q-4 0 -4 4v114q0 4 4 4h20q26 0 44.5 -9.5
t18.5 -34.5q0 -22 -17 -34q-3 -2 -4 -3.5t1 -6.5l15 -29q0 -5 -4 -5h-9q-5 0 -5 3l-15 30q0 2 -5 2q-5 -1 -10 -1.5t-10 -0.5h-4zM1314 248q-2 0 -2 -2l-1 -1v-48q0 -5 3 -5h4q20 0 33 6.5t13 21.5t-13 21.5t-33 6.5h-4zM1392 203q0 26 18.5 44t44.5 18q13 0 24 -4t19 -13
q4 -4 0 -6l-5 -6q-3 -2 -6 0q-12 13 -32 13t-33 -13.5t-13 -32.5q0 -20 13 -33.5t33 -13.5q19 0 32 13q2 4 6 0l5 -5q4 -3 0 -7q-8 -8 -19 -12.5t-24 -4.5q-26 0 -44.5 18.5t-18.5 44.5zM1526 264q4 0 4 -4v-47q0 -5 4 -5h55q3 0 3 5v47q0 4 5 4h8q4 0 4 -4v-114q0 -4 -4 -4
h-8q-5 0 -5 4v42q0 4 -3 4h-54q-5 0 -5 -4v-42q0 -4 -4 -4h-8q-5 0 -5 4v114q0 4 5 4h8zM1652 171q-4 0 -4 -5l-8 -21q-2 -3 -3.5 -3h-3.5h-7q-3 0 -3 5l40 114q1 3 5 3h9q5 0 5 -3l40 -114q2 -5 -2 -5h-7h-4t-3 3l-7 21q-3 5 -6 5h-41zM1676 231q-1 2 -3 2t-3 -2l-13 -40
q0 -4 3 -4h26q4 0 4 4zM1800 230q0 8 -6 14t-18 6t-17.5 -6t-5.5 -14q0 -9 10.5 -12.5t23 -7t23 -10t10.5 -21.5q0 -20 -13.5 -29.5t-30.5 -9.5t-30 10t-13 29q0 5 4 5h8q5 0 5 -5q0 -8 6 -15.5t20 -7.5q15 0 21 8.5t6 14.5q0 9 -10.5 12.5t-23 7t-23 10t-10.5 21.5
q0 19 14 27.5t26 8.5q14 0 27 -8.5t13 -27.5q0 -4 -4 -4h-8q-4 0 -4 4zM1908 264q4 0 4 -4v-7q0 -5 -4 -5h-54q-5 0 -5 -5v-30q0 -5 5 -5h54q4 0 4 -4v-7q0 -5 -4 -5h-54q-5 0 -5 -3v-27q0 -4 5 -4h54q4 0 4 -5v-7q0 -4 -4 -4h-70q-4 0 -4 4v114q0 4 4 4h70zM2028 171
q-5 0 -5 -5l-8 -21q-1 -3 -3 -3h-4h-8q-1 0 -2 1.5t1 3.5l40 114q1 3 4 3h10q4 0 4 -3l41 -114q2 -5 -2 -5h-7h-4t-4 3l-7 21q-2 5 -6 5h-40zM2050 231q0 2 -2 2t-2 -2l-14 -40q-2 -4 4 -4h26q3 0 3 4zM2197 264q4 0 4 -4v-98q0 -4 4 -4h53q5 0 5 -5v-7q0 -4 -5 -4h-70
q-3 0 -3 4v114q0 4 3 4h9zM2290 264q4 0 4 -4v-114q0 -4 -4 -4h-7q-5 0 -5 4v114q0 4 5 4h7zM2310 203q0 26 18.5 44t44.5 18q12 0 23.5 -4t19.5 -13q4 -3 0 -6l-5 -6q-3 -3 -5 0q-13 13 -33 13t-33.5 -13.5t-13.5 -32.5q0 -20 13.5 -33.5t33.5 -13.5q18 0 33 13q0 2 2 2
t3 -2l5 -5q5 -4 0 -7q-8 -8 -19.5 -12.5t-23.5 -4.5q-26 0 -44.5 18.5t-18.5 44.5zM2505 264q5 0 5 -4v-7q0 -5 -5 -5h-53q-4 0 -4 -5v-30q0 -5 4 -5h53q5 0 5 -4v-7q0 -5 -5 -5h-53q-4 0 -4 -3v-27q0 -4 4 -4h53q5 0 5 -5v-7q0 -4 -5 -4h-69q-4 0 -4 4v114q0 4 4 4h69z
M2611 264q5 0 5 -4v-114q0 -4 -5 -4h-7q-4 0 -4 1l-55 82q-1 2 -2.5 1.5t-1.5 -4.5v-76q0 -4 -4 -4h-9q-4 0 -4 4v114q0 4 4 4h9h1l3 -3l54 -81l3 -1.5t1 4.5v77q0 4 4 4h8zM2696 230q0 8 -6 14t-17 6q-13 0 -18.5 -6t-5.5 -14q0 -9 10.5 -12.5t23 -7t23 -10t10.5 -21.5
q0 -20 -13 -29.5t-30 -9.5q-18 0 -30.5 10t-12.5 29q0 5 3 5h9q4 0 4 -5q0 -8 6.5 -15.5t20.5 -7.5q15 0 21 8.5t6 14.5q0 9 -10.5 12.5t-23 7t-23 10t-10.5 21.5q0 19 13.5 27.5t26.5 8.5q14 0 27 -8.5t13 -27.5q0 -4 -4 -4h-8q-5 0 -5 4zM2804 264q5 0 5 -4v-7q0 -5 -5 -5
h-54q-3 0 -3 -5v-30q0 -5 3 -5h54q5 0 5 -4v-7q0 -5 -5 -5h-54q-3 0 -3 -3v-27q0 -4 3 -4h54q5 0 5 -5v-7q0 -4 -5 -4h-69q-5 0 -5 4v114q0 4 5 4h69zM2925 171q-5 0 -5 -5l-8 -21q-2 -3 -3.5 -3h-3.5h-7q-6 0 -3 5l40 114q1 3 5 3h9q5 0 5 -3l41 -114q2 -5 -3 -5h-7h-4
t-4 3l-6 21q-3 5 -7 5h-39zM2948 231q-2 2 -3.5 2t-1.5 -2l-14 -40q-2 -2 -0.5 -3t3.5 -1h26q2 0 3.5 1t-0.5 3zM2991 260q0 4 5 4h77q5 0 5 -4v-7q0 -5 -5 -5h-27q-2 0 -2 -2l-1 -1v-99q0 -4 -5 -4h-8q-5 0 -5 4v97q0 5 -3 5h-26q-5 0 -5 5v7zM1752 615q1 5 7 5t7 -5
q1 -11 1 -17.5t1 -18.5q4 10 11.5 19t16.5 14.5t18.5 5.5t16.5 -9q5 -6 6 -14q1 -9 -4 -16.5t-14.5 -13.5t-21 -9t-21.5 -3q-2 -12 1 -33t3 -41q0 -5 -3 -5.5t-6 2.5q-6 32 -11 68t-8 71zM1780 572q-2 -4 -2 -10q8 -1 18 2.5t17.5 9t11 12.5t-1.5 14t-12 5.5t-13.5 -7.5
t-11.5 -13.5t-6 -12.5zM1864 581q-10 5 -7.5 8.5t12.5 -1.5q11 14 25 24.5t25 2.5q9 -8 9 -15.5t-7 -13.5t-17.5 -9t-22.5 -1q-4 -10 2 -16q3 -4 13 -4.5t21 1.5t22 5.5t17 8.5q5 3 7 0t-1 -6q-7 -6 -24 -12t-35 -8t-31 2t-13 18q0 2 1 6.5t4 9.5zM1915 596q3 5 0.5 8
t-8.5 1t-11 -8l-10 -12q8 -2 16.5 1.5t12.5 9.5zM1979 613q-1 4 5 5.5t9 -3.5q2 -5 3 -12t1 -15q12 26 47 30q5 0 5.5 -4t-4.5 -4q-15 -2 -23.5 -9.5t-13 -18.5t-5.5 -22.5t-1 -20.5q0 -5 -4 -5.5t-7 2.5q-3 9 -5 20.5t-3 22.5t-2 20t-2 14zM2113 606q-4 -1 -4.5 2.5
t1.5 6.5q-3 3 -8 2t-9.5 -3.5t-8 -6t-3.5 -6.5q0 -5 8 -10.5t17.5 -11.5t17 -11.5t7.5 -9.5v-4q-2 -8 -11.5 -14t-21 -7.5t-21 2.5t-10.5 17q0 5 4 5t4 -5q1 -8 7 -10t12.5 -1t12.5 5t7 9q0 4 -8 8.5t-17 10t-16 12.5t-5 16q2 11 11.5 16.5t19.5 6t17.5 -3t4.5 -11.5
q-1 -2 -8 -4zM2166 601q17 20 35 2q17 -14 11.5 -29.5t-20.5 -19.5q-12 -3 -19.5 1t-11 12t-2.5 17.5t7 16.5zM2196 595q-3 5 -9.5 4.5t-10.5 -6.5q-2 -3 -2.5 -8.5t1 -10.5t5.5 -8t10 -1q12 5 12 14.5t-6 15.5zM2243 610q2 4 9 3t7 -5q-2 -11 -1 -22.5t2 -19.5q5 9 10.5 22
t15.5 17q6 1 11 -5t9.5 -14.5t8 -17.5t7.5 -13q3 -5 -2 -7t-8 1t-6 10t-5.5 14t-5.5 11.5t-6 3.5q-5 -1 -8.5 -7.5t-7.5 -14.5t-8 -15t-8 -9q-3 0 -5 2q-8 11 -10 32t1 34zM2407 598q3 -23 5.5 -40t4.5 -19q3 -3 -0.5 -6t-6.5 1q-6 5 -8 14t-4 20q-7 -12 -15 -19t-21 -7
q-3 1 -7 4t-6 5q-6 8 -3.5 18.5t9 19.5t15.5 15.5t18 6.5v13q1 4 6.5 3.5t7.5 -3.5q5 -12 5 -26zM2360 555q8 -6 17 5t12 31q-10 2 -17.5 -2t-11 -10.5t-4 -13.5t3.5 -10zM2453 690q1 5 7.5 5.5t7.5 -3.5v-34t1 -43t3 -42t6 -31q8 -2 13 -1t13 3q5 0 6 -3t-3 -6
q-18 -6 -27 -7.5t-13.5 3t-5.5 16t-3 31.5q-2 28 -3 56zM988 137q1 4 7 3t7 -5v-21.5t0.5 -28.5t1.5 -30t2 -26q5 11 14.5 11.5t19 -5t16.5 -15t8 -18.5q1 -17 -18 -26.5t-38 -10.5q0 -4 0.5 -7t0.5 -8q-1 -4 -5 -4t-6 4l-3 18q-8 0 -8 6q0 2 3 2.5t5 0.5q-5 38 -7 82.5
t0 77.5zM1008 -5q-1 -10 0 -18q14 0 25.5 4t15.5 8q7 8 1.5 18.5t-14.5 15t-18 -0.5t-10 -27zM1081 34q0 4 6 5.5t9 -2.5q3 -6 3.5 -13t0.5 -15q6 12 17 20t30 10q5 0 5.5 -4t-4.5 -5q-15 -1 -24 -9t-13.5 -18.5t-5.5 -22t-1 -20.5q0 -5 -4 -6t-6 4q-3 9 -4.5 20l-3 22
t-2.5 20t-3 14zM1178 31q1 5 7 5t8 -4q0 -20 -0.5 -33.5t0.5 -24.5q0 -5 -5.5 -5t-7.5 5q0 10 -0.5 16.5t-1 12t-0.5 12v16.5zM1189 49q-5 -3 -9 1.5t-1 9.5l1 3q7 4 11.5 -0.5t-1.5 -10.5zM1254 108q0 5 9 5.5t9 -4.5q-3 -37 -4.5 -77t0.5 -79q-2 -4 -5.5 -4.5t-3.5 3.5
q-4 29 -5 70t0 86zM1226 34q-4 0 -4 5.5t4 7.5q10 0 53 1t108 3q5 0 5.5 -4t-4.5 -5zM1328 103q1 5 9.5 5t7.5 -5q-2 -37 -3 -70.5t1 -72.5q-2 -4 -6 -4.5t-5 3.5q-2 29 -3 64t-1 80zM1398 30q2 4 8.5 3.5t6.5 -5.5v-22t2 -19q5 10 11 22.5t16 14.5q6 2 10.5 -3.5t8.5 -14
t8 -17.5t8 -13q5 -4 0 -7t-10 2q-3 3 -5.5 9.5t-5.5 13t-6.5 10.5t-6.5 3q-4 -1 -7.5 -7t-7 -13.5t-7.5 -14.5t-8 -9q-3 0 -6 2q-8 11 -9.5 32t0.5 33zM1502 2q-9 5 -7 8.5t13 -3.5q10 15 24.5 25.5t24.5 2.5q9 -8 9 -15.5t-6.5 -13.5t-17.5 -8.5t-22 -0.5q-7 -11 1 -16
q3 -4 13 -4.5t21 1t22.5 5t17.5 8.5q5 3 7 0.5t-2 -7.5q-7 -6 -24 -11.5t-34.5 -7.5t-30.5 2t-13 17q0 9 4 18zM1554 17q3 5 0 7.5t-9 0.5q-5 -1 -10.5 -7t-9.5 -13q8 -1 16.5 2.5t12.5 9.5zM1615 12q-2 5 1.5 6t6.5 -4q0 -3 3 -9t7 -12t8 -10t7 -4t4.5 7.5t2.5 17.5t1.5 20
t2.5 15q2 3 7.5 2.5t7.5 -4.5q0 -17 2.5 -42.5t2 -52.5t-7.5 -51t-25 -36q-14 -10 -32 -11t-36.5 3.5t-36.5 11.5t-32 14q-4 3 -2.5 6.5t5.5 2.5q10 -5 26.5 -11.5t34.5 -10.5t35.5 -3.5t31.5 9.5q10 7 15 21t7.5 30.5t2 33t-0.5 30.5q-3 -11 -9.5 -14.5t-14.5 1.5
q-9 7 -16 20t-9 24zM1714 -38q0 15 2.5 36t5.5 36q-2 4 3 6q2 1 5 2q6 0 6 -6v-2q1 2 3 1t4 -3q3 -8 5 -13.5t5 -14.5q1 -4 3.5 -10t5 -11.5t5.5 -8t6 -0.5q6 8 11.5 22t7.5 23q0 1 0.5 1.5t0.5 1.5v2q0 5 1 14t7 11q2 1 6 1t5 -2q3 -8 6 -22.5t6.5 -29t8.5 -26t13 -12.5
q4 -2 3 -5.5t-5 -5.5q-7 1 -13 8t-10.5 17t-7.5 20.5t-4 19.5q-3 -11 -6.5 -21.5t-9 -18.5t-11.5 -12t-13 -1q-11 5 -16 13t-8 19q-2 5 -3 10.5t-3 10.5q-2 -12 -4.5 -25.5t-6.5 -25.5l-1 -1q-2 -4 -6.5 -3t-6.5 5zM1861 17q1 5 6.5 5t7.5 -5q0 -14 6 -23.5t13.5 -11t14 6
t7.5 28.5q2 5 7 4.5t5 -5.5q-2 -11 -2.5 -18.5t-7.5 -16.5q-9 -14 -24 -13.5t-23 13.5q-7 8 -8 17t-2 19zM1949 34q-1 4 5.5 5.5t8.5 -2.5q4 -11 4 -28q6 12 17 20t30 10q5 0 5.5 -4t-4.5 -5q-15 -1 -24 -9t-13.5 -18.5t-5.5 -22t-1 -20.5q0 -5 -3.5 -6t-6.5 4q-3 9 -4.5 20
t-2.5 22t-2.5 20t-2.5 14zM2036 35q1 5 6.5 5.5t7.5 -3.5q0 -12 0.5 -19t2.5 -18q4 10 11.5 19t16.5 14.5t18 5.5t17 -9q4 -8 4 -15q1 -8 -4 -15.5t-14 -13.5t-20 -9t-22 -3q-3 -21 -1.5 -43t1.5 -42q0 -4 -3 -5t-6 1q-1 4 -2 13t-2 20t-2 21.5t-2 18.5q-2 19 -4.5 38
t-2.5 39zM2064 -8q-1 -3 -1 -4.5t-1 -4.5q8 -1 18 2.5t17.5 9t11 12.5t-1.5 14t-12 5.5t-13.5 -7.5t-11.5 -13.5t-6 -13.5zM2142 115q-2 5 2.5 7t7.5 -3q4 -9 6.5 -26.5t4 -36t1.5 -36v-26.5q1 3 3.5 9t6 11.5t8 8.5t9.5 1q4 -1 8.5 -6.5t9 -11.5t9.5 -12t10 -7q5 -2 4.5 -6
t-5.5 -2q-6 1 -12 6.5t-11.5 11.5t-10 10.5t-7.5 4.5q-8 -11 -11.5 -23.5t-9.5 -24.5q-2 -3 -7.5 -2.5t-6.5 5.5q-3 41 -5 75t-4 73zM2244 12q0 5 4 6t6 -4q0 -3 3 -9t7 -12t7.5 -10t5.5 -4q4 0 5.5 7.5t2.5 17.5t1.5 20t2.5 15q3 3 8.5 2.5t6.5 -4.5q0 -17 3 -42.5t2 -52.5
t-7.5 -51t-25.5 -36q-14 -10 -31.5 -11t-36 3.5t-36.5 11.5t-33 14q-4 3 -2 6.5t6 2.5q10 -5 26 -11.5t34 -10.5t35.5 -3.5t31.5 9.5q10 7 15.5 21t7.5 30.5t2 33t-1 30.5q-3 -11 -9.5 -14.5t-14.5 1.5q-8 7 -16 20t-10 24zM2350 19q4 4 18.5 9.5t23.5 1.5q0 40 -2 58.5
t5 30.5q2 4 6 4.5t6 -1.5q5 -13 4 -40t-5 -53q2 -29 4 -56.5t10 -51.5q0 -4 -3.5 -6t-6.5 -2q-1 0 -4 6q-4 14 -7 35.5t-5 42.5q-3 -6 -7 -13.5t-9.5 -13.5t-11.5 -8t-13 3q-5 3 -8.5 10t-4.5 15t1.5 15.5t8.5 13.5zM2367 -23q7 2 14.5 15.5t9.5 25.5q-1 0 -1 2q0 1 -1 1
q-1 1 -6.5 0.5t-12 -3.5t-12 -8t-5.5 -12q0 -5 2 -13.5t12 -7.5zM2443 2q-9 5 -6.5 8.5t12.5 -3.5q10 15 24.5 25.5t24.5 2.5t9.5 -15.5t-6.5 -13.5t-17 -8.5t-22 -0.5q-6 -11 0 -16q4 -4 13.5 -4.5t21 1t22.5 5t17 8.5q5 3 7 0.5t-2 -7.5q-8 -6 -24.5 -11.5t-34 -7.5
t-30.5 2t-13 17q0 4 1 8.5t3 9.5zM2495 17q2 5 0 7.5t-7 0.5q-7 -1 -12 -7t-10 -13q7 -1 16 2.5t13 9.5zM2598 27q-4 -1 -5 2t2 6q-3 3 -8 2.5t-9.5 -3.5t-8 -6.5t-3.5 -6.5q0 -5 7.5 -11t17.5 -11.5t17.5 -10.5t7.5 -9q-1 -2 -0.5 -2.5t-0.5 -2.5q-1 -7 -11 -13t-21.5 -7.5
t-21 2.5t-10.5 16q0 5 4.5 5.5t4.5 -4.5q1 -8 6.5 -10t12.5 -1t13 5t7 9q0 3 -8 7t-17.5 10t-17 13.5t-5.5 17.5t12 15.5t20 6t17.5 -3.5t5.5 -12q-2 -1 -3 -1t-5 -2zM2640 31q2 5 8 5t8 -4q0 -20 -1 -33.5t0 -24.5q0 -5 -5 -5t-6 5q0 10 -0.5 16.5t-1 12t-1.5 12t-1 16.5z
M2653 49q-6 -3 -10.5 1.5t-0.5 9.5l2 3q7 4 11 -0.5t-1 -10.5zM2686 -15q-4 10 6 22q8 11 21 18t24 7v9t1 9q3 3 8.5 3t6.5 -4q4 -17 0 -32q1 -14 4 -36t5 -45.5t0.5 -44t-8.5 -31.5q-7 -12 -27.5 -15.5t-42.5 -0.5t-40.5 11.5t-22.5 20.5q0 5 3 6.5t6 -2.5q3 -9 19 -15.5
t35.5 -9t37 0.5t22.5 12t5.5 24t-1 32t-4 35.5t-4.5 34.5q-13 -18 -37 -18q-6 0 -11 2t-6 7zM2736 11q2 2 2 12q-3 1 -10 -2t-13 -7.5t-10.5 -10t-3.5 -10.5q2 -3 7.5 -3t11 3t10 7.5t6.5 10.5zM2791 30q3 4 10 3.5t7 -5.5q-2 -11 -1 -22t2 -19q4 10 10.5 22.5t16.5 14.5
q6 2 10.5 -3.5t8.5 -14t8 -17.5t8 -13q3 -4 -2 -7t-8 2q-3 3 -6 9.5l-6 13t-6 10.5t-6 3q-4 -1 -7.5 -7t-7.5 -13.5t-8 -14.5t-8 -9q-3 0 -6 2q-8 11 -9.5 32t0.5 33zM2912 -39q-2 -6 -7.5 -6t-6.5 6v4q1 7 7.5 6.5t6.5 -8.5v-2zM2988 22q0 -5 -3.5 -5t-6.5 4q-1 2 -5 5
q-6 0 -10.5 -5.5t-6.5 -13t-0.5 -15t7.5 -11.5q5 -5 12.5 -4.5t16 3.5t16 7t12.5 7q5 2 7 -2t-2 -7q-9 -4 -18 -8.5t-19 -8.5q-8 -2 -21 -4t-20 6q-11 15 -7 31t13.5 26.5t20.5 11t14 -16.5zM3045 22q16 19 35 2q17 -14 11.5 -29.5t-20.5 -20.5q-12 -3 -20 1.5t-11 12.5
t-2 17.5t7 16.5zM3075 16q-3 4 -9 4t-11 -6q-2 -3 -2.5 -9t1.5 -10.5t6 -7.5t10 0q11 4 11.5 13t-6.5 16zM3118 -38q0 15 2 36t4 36q-1 2 0.5 3.5t3.5 2.5t5 2q5 0 5 -6v-2q5 3 8 -2q3 -8 4.5 -13.5t5.5 -14.5q1 -4 3.5 -10t5 -11.5t5.5 -8t5 -0.5q8 8 13 22t6 23q2 2 2 3v2
q1 5 2 14t6 11q7 2 12 -1q3 -8 6 -22.5t6.5 -29t8.5 -26t12 -12.5q4 -2 3 -5.5t-6 -5.5q-7 1 -12.5 8t-9.5 17t-7.5 20.5t-5.5 19.5q-2 -11 -5.5 -21.5t-8.5 -18.5t-11.5 -12t-13.5 -1q-11 5 -16 13t-8 19q-2 5 -3.5 10.5t-3.5 10.5q-2 -12 -4 -25.5t-6 -25.5v-1
q-3 -4 -8 -3t-5 5zM3328 528q0 -8 9 -8t9 8t-9 8t-9 -8zM3000 337q0 -5 3 -6.5t2 -6.5l-1 -7q-2 -3 2 -3h3q2 -2 2 -1t1 2q1 3 3 10t2 12q0 7 -8 7q-9 0 -9 -7zM543 43q16 0 30 6.5t25 17.5t17.5 25t6.5 29v5q0 35 -23.5 56.5t-55.5 21.5q-11 0 -18.5 -0.5t-14.5 -3.5v-5
q0 -30 -9.5 -57.5t-28.5 -47.5q8 -22 27 -34.5t44 -12.5zM270 335q10 7 19.5 10t16.5 3v113v5v148q0 9 13 9h61q9 0 9 -9v-6q25 15 65 15q32 0 58.5 -13.5t43.5 -33.5q22 20 47.5 33.5t60.5 13.5q33 0 59.5 -12t45.5 -34t29 -51.5t10 -64.5v-441q48 56 74.5 123.5
t26.5 144.5q0 84 -31.5 157.5t-86.5 128.5t-128 87t-157 32q-66 0 -127 -20t-109 -54v-284zM729 461q0 35 -17 59.5t-48 24.5q-32 0 -48.5 -24t-16.5 -55v-5v-153q0 -4 -3 -7.5t-7 -3.5h-60q-4 0 -7 3.5t-3 7.5v153v5q-3 31 -18 55t-47 24q-30 0 -47.5 -24t-17.5 -55v-113
q32 -11 56 -28t41 -46q15 3 29 6t28 3q21 0 41.5 -6t37.5 -17v154q0 13 9 13h60q9 0 9 -13v-446q0 -9 -9 -9h-60q-9 0 -9 9v9q-17 -7 -37.5 -12.5t-41.5 -5.5q-46 0 -82 22t-58 57q-14 -7 -27.5 -8t-27.5 -1q-22 0 -41.5 3.5t-36.5 14.5v-9q0 -4 -3 -6.5t-6 -2.5h-61
q-3 0 -6 2.5t-3 6.5v502q-42 -53 -66 -118t-24 -139q0 -84 32 -157t87 -128t128.5 -86.5t157.5 -31.5q63 0 118.5 16.5t104.5 48.5v511zM348 274q-32 0 -55 -22t-23 -57q0 -34 23 -58.5t55 -24.5q11 0 18 3l14 6v5q0 64 43 107q-12 17 -31.5 29t-43.5 12z" />
    <glyph glyph-name="macron" unicode="&#xaf;" horiz-adv-x="172" 
d="M22 421q-11 0 -11.5 11t11.5 11h129q11 0 11 -11t-11 -11h-129v0z" />
    <glyph glyph-name="degree" unicode="&#xb0;" horiz-adv-x="259" 
d="M108 346q-31 5 -48.5 26t-23.5 48t0 56.5t22 52.5t41 35t59 4q29 -7 45.5 -27.5t21.5 -46.5t-0.5 -54.5t-20.5 -51t-39.5 -35t-56.5 -7.5zM170 549q-13 3 -24.5 -8.5t-20.5 -31.5t-14.5 -44.5t-6.5 -46.5t4 -38t17 -19q13 -3 24 9t19.5 32t13.5 44.5t6 46.5t-3.5 37.5
t-14.5 18.5z" />
    <glyph glyph-name="plusminus" unicode="&#xb1;" horiz-adv-x="289" 
d="M197 287q-5 -41 -10.5 -73.5t-10.5 -50.5q-2 -8 -17.5 -10.5t-33 -0.5t-31.5 8.5t-12 16.5l10 111l-65 1q-7 0 -6 10t7 10l66 -1q5 40 11 77t14 60q4 10 18.5 12.5t31 0.5t29 -8.5t12.5 -15.5q-2 -32 -4.5 -64t-6.5 -64h59q8 0 9.5 -9.5t-6.5 -10.5zM31 108q-6 0 -5 9.5
t6 9.5l187 -2q8 0 9.5 -10t-5.5 -11z" />
    <glyph glyph-name="uni00B2" unicode="&#xb2;" horiz-adv-x="211" 
d="M59 495q-1 -5 -4.5 -7t-6.5 -1t-5.5 4.5t-0.5 8.5q7 26 22 42t31.5 23t33 6t27.5 -8q15 -10 18.5 -26.5t0.5 -36t-12 -40.5t-18 -39t-17.5 -31.5t-11.5 -18.5q-2 -2 -1 -5.5t6 -3.5q13 0 28 2t22 2q8 0 8.5 -9.5t-7.5 -10.5q-6 0 -25.5 -1t-40.5 -2t-38.5 -1h-21.5t-7 5
t-4.5 11.5t-2 13t1.5 10.5q7 17 23.5 40t31.5 46t24.5 42.5t2.5 28.5q-11 14 -28.5 3.5t-28.5 -47.5z" />
    <glyph glyph-name="uni00B3" unicode="&#xb3;" horiz-adv-x="213" 
d="M52 529q-5 -8 -11 -2.5t0 14.5q11 18 28 28t34.5 12t33.5 -2.5t25 -15.5q17 -20 12 -49.5t-21 -57.5q8 -9 15 -19.5t10 -22.5t1.5 -25.5t-9.5 -26.5q-9 -14 -28 -20.5t-40 -6t-40 8.5t-28 24q-3 5 2 10.5t10 -1.5q8 -11 18.5 -16t21 -6t19 3t12.5 13q10 23 -11 41t-57 23
q-4 2 -4.5 12.5t3.5 12.5q25 10 40 23.5t22 27t7 25t-4 18.5q-8 11 -26 7.5t-35 -32.5z" />
    <glyph glyph-name="acute" unicode="&#xb4;" horiz-adv-x="103" 
d="M29 390q-4 -5 -12 -1t-5 12l39 94q3 7 10.5 6.5t15.5 -5t12.5 -11t1.5 -10.5z" />
    <glyph glyph-name="mu" unicode="&#xb5;" horiz-adv-x="511" 
d="M56 363q1 10 16 15.5t33.5 6t34 -3t17.5 -10.5q7 -25 10 -60t5 -73.5t3.5 -76.5t5.5 -68t11 -49t20 -19q16 0 29.5 15.5t24.5 41t20 58t17 66.5t15.5 66t14.5 57q3 10 19 16t34 6t33.5 -5.5t17.5 -18.5q3 -22 1 -51t-5 -60.5t-6 -62.5t-2.5 -57t5.5 -43.5t18 -21.5
q10 -3 23 10.5t26.5 36.5t25.5 52.5t19 59.5q2 10 9.5 8.5t5.5 -11.5q-6 -27 -16.5 -60t-27 -61.5t-39 -47.5t-50.5 -18q-27 1 -46.5 11.5t-33 27.5t-21 39.5t-10.5 48.5q-19 -57 -44.5 -91.5t-58.5 -37.5q-26 -3 -48 14t-40 47q-9 -42 -18 -80.5t-17 -68.5t-14.5 -50
t-9.5 -26q-3 -5 -11.5 -7t-17.5 -0.5t-16 6t-7 12.5v43t1 74t3.5 95.5t7.5 106t13 105t20 94.5z" />
    <glyph glyph-name="mu" unicode="&#x3bc;" horiz-adv-x="511" 
d="M56 363q1 10 16 15.5t33.5 6t34 -3t17.5 -10.5q7 -25 10 -60t5 -73.5t3.5 -76.5t5.5 -68t11 -49t20 -19q16 0 29.5 15.5t24.5 41t20 58t17 66.5t15.5 66t14.5 57q3 10 19 16t34 6t33.5 -5.5t17.5 -18.5q3 -22 1 -51t-5 -60.5t-6 -62.5t-2.5 -57t5.5 -43.5t18 -21.5
q10 -3 23 10.5t26.5 36.5t25.5 52.5t19 59.5q2 10 9.5 8.5t5.5 -11.5q-6 -27 -16.5 -60t-27 -61.5t-39 -47.5t-50.5 -18q-27 1 -46.5 11.5t-33 27.5t-21 39.5t-10.5 48.5q-19 -57 -44.5 -91.5t-58.5 -37.5q-26 -3 -48 14t-40 47q-9 -42 -18 -80.5t-17 -68.5t-14.5 -50
t-9.5 -26q-3 -5 -11.5 -7t-17.5 -0.5t-16 6t-7 12.5v43t1 74t3.5 95.5t7.5 106t13 105t20 94.5z" />
    <glyph glyph-name="paragraph" unicode="&#xb6;" horiz-adv-x="471" 
d="M120 28q2 57 7 131t12 150q-27 4 -51 12t-41 20.5t-27 30.5t-9 42q1 33 20 56.5t51 39.5t74.5 25t89.5 13.5t96 4t95 -3.5q7 0 10 -4.5t2.5 -9.5t-4.5 -9t-11 -3h-14t-14 1q0 -60 -0.5 -131t-1.5 -141t-2 -133t-2 -105q0 -8 -16 -11.5t-35 -3.5t-35 3.5t-16 11.5
q-1 24 -1 62v83t0.5 94.5t1 98.5t1.5 93t2 79q-10 0 -20 -0.5t-20 -1.5q-1 -51 -4.5 -116t-9 -132.5t-12.5 -132t-13 -113.5q-2 -12 -18.5 -19t-35.5 -7.5t-34 5.5t-15 21z" />
    <glyph glyph-name="periodcentered" unicode="&#xb7;" horiz-adv-x="160" 
d="M54 272q0 11 7.5 19t18.5 8t18.5 -8t7.5 -19t-7.5 -18.5t-18.5 -7.5t-18.5 7.5t-7.5 18.5z" />
    <glyph glyph-name="cedilla" unicode="&#xb8;" horiz-adv-x="88" 
d="M52 -31q23 -3 26 -25q2 -14 -12 -26.5t-48 -16.5q-6 -1 -7 7.5t4 10.5q14 4 29 9.5t14 13.5q-2 8 -11 7.5t-19 -1.5q-9 -2 -11.5 2t-1.5 9l4 52q1 3 7.5 4t13.5 1t12.5 -1.5t5.5 -4.5z" />
    <glyph glyph-name="uni00B9" unicode="&#xb9;" horiz-adv-x="238" 
d="M103 571q9 7 22.5 7.5t25.5 -2.5t20.5 -8.5t8.5 -11.5l-11 -202l28 -1q4 0 6.5 -3.5t2.5 -7.5t-2.5 -7t-6.5 -3l-157 5q-4 0 -6 3.5t-1.5 7t3 6.5t7.5 3l26 -1l22 172l-30 -10q-8 -3 -12.5 4t3.5 12l51 37v0z" />
    <glyph glyph-name="uni00BA" unicode="&#xba;" horiz-adv-x="259" 
d="M108 346q-31 5 -48.5 26t-23.5 48t0 56.5t22 52.5t41 35t59 4q29 -7 45.5 -27.5t21.5 -46.5t-0.5 -54.5t-20.5 -51t-39.5 -35t-56.5 -7.5zM170 549q-13 3 -24.5 -8.5t-20.5 -31.5t-14.5 -44.5t-6.5 -46.5t4 -38t17 -19q13 -3 24 9t19.5 32t13.5 44.5t6 46.5t-3.5 37.5
t-14.5 18.5z" />
    <glyph glyph-name="uni00BB" unicode="&#xbb;" horiz-adv-x="318" 
d="M164.01 296q-9 6 -14 -2.5q-4.99902 -8.5 0 -16.5q8 -9 22.499 -25.5t27.998 -33.5t22.999 -31.5q9.49902 -14.5 8.49902 -20.5q-1 -5 -11.499 -15.5t-24.498 -22.5q-14 -12 -28.499 -23.5t-22.498 -17.5q-4 -3 -4.5 -7t1.5 -7t5.5 -5q3.49902 -2 7.49902 0
q5 3 21.999 12.5t37.9971 22l41.998 25q20.998 12.5 33.998 21.5q3 2 4.49902 9.5q1.5 7.5 1 16.5t-2 16.5q-1.49902 7.5 -4.49902 10.5q-13.999 13 -32.998 27.5t-37.498 28t-33.998 23.5t-21.498 15zM46.0166 296q-8.99902 6 -14.499 -2.5t0.5 -16.5
q7.99902 -9 22.498 -25.5q14.5 -16.5 27.999 -33.5t22.998 -31.5q9.5 -14.5 8.5 -20.5q-1 -5 -11.5 -15.5q-10.499 -10.5 -24.498 -22.5t-28.498 -23.5t-22.499 -17.5q-4 -3 -4.5 -7t1.5 -7t5.5 -5t6.5 0q4.99902 3 21.998 12.5t37.998 22t42.4971 25
q21.499 12.5 34.498 21.5q3 2 4 9.5t1 16.5t-1.5 16.5t-4.5 10.5q-13.999 13 -32.998 27.5t-37.4971 28q-18.499 13.5 -33.998 23.5t-21.499 15z" />
    <glyph glyph-name="questiondown" unicode="&#xbf;" horiz-adv-x="251" 
d="M189.003 58.0273q9.99902 7.99902 15.999 0.499023q5.99902 -7.49902 -1 -15.499q-11.999 -11.999 -39.998 -20.498q-27.998 -8.5 -57.9961 -9.5t-54.4971 9.5q-24.498 10.499 -29.498 37.4971q-3 19.999 4.5 38.998q7.49902 18.999 18.499 34.498
q10.999 15.499 21.998 26.998q11 11.499 14.999 17.499q8 8.99902 13 35.998q4.99902 26.998 9.99902 59.4961t10.499 63.9961q5.5 31.498 12.5 50.4971q2.99902 8.99902 13.499 12.999q10.499 4 21.498 4.5q11 0.5 20.999 -2t10.999 -7.5q6 -14.999 9.5 -46.4971
t3 -66.4961q-0.5 -34.9971 -5 -65.9951t-13.499 -44.998q-11 -15.999 -35.998 -30.498t-49.9971 -27.998q-24.998 -13.499 -43.4971 -26.498q-18.499 -13 -15.499 -26.999q3 -15.999 22.498 -21.498q19.499 -5.5 43.998 -4q24.498 1.5 47.4971 8.49902q22.998 7 30.998 15z
M170.004 486.001q8.99902 -1 13.499 -7q4.5 -5.99902 4 -12.999t-6 -12.499q-5.49902 -5.5 -16.499 -4.5q-9.99902 1 -14.499 7q-4.5 5.99902 -4 12.999q0.5 6.99902 6.5 12.499t16.999 4.5z" />
    <glyph glyph-name="Agrave" unicode="&#xc0;" horiz-adv-x="472" 
d="M76 14q-3 -9 -14.5 -13t-24 -4t-21.5 5t-7 15q1 8 3 37.5t6.5 71.5t11.5 92.5t20 101.5t32 98.5t46 83t63.5 55t83.5 14.5q39 -4 65.5 -24.5t42.5 -52t23.5 -72t8.5 -84.5h18q8 -2 8 -12t-9 -10h-17q0 -57 -6.5 -114t-13.5 -102t-10.5 -73t1.5 -28q12 1 11.5 -7.5
t-9.5 -8.5q-49 0 -73 30t-32.5 77.5t-6.5 106.5t7 117q-45 -2 -87.5 -6.5t-86.5 -12.5q-7 -47 -11.5 -92.5t-8 -84t-6.5 -66.5t-7 -38zM244 545q-28 4 -49 -13t-37 -49t-27 -74.5t-18 -89.5q43 8 85.5 11.5t86.5 5.5q3 40 4.5 77t-2.5 65t-14 46t-29 21zM220 704
q-3 4 1.5 10.5t12.5 11t16 5t11 -6.5l38 -94q4 -8 -4 -12t-13 1z" />
    <glyph glyph-name="Aacute" unicode="&#xc1;" horiz-adv-x="472" 
d="M76 14q-3 -9 -14.5 -13t-24 -4t-21.5 5t-7 15q1 8 3 37.5t6.5 71.5t11.5 92.5t20 101.5t32 98.5t46 83t63.5 55t83.5 14.5q39 -4 65.5 -24.5t42.5 -52t23.5 -72t8.5 -84.5h18q8 -2 8 -12t-9 -10h-17q0 -57 -6.5 -114t-13.5 -102t-10.5 -73t1.5 -28q12 1 11.5 -7.5
t-9.5 -8.5q-49 0 -73 30t-32.5 77.5t-6.5 106.5t7 117q-45 -2 -87.5 -6.5t-86.5 -12.5q-7 -47 -11.5 -92.5t-8 -84t-6.5 -66.5t-7 -38zM244 545q-28 4 -49 -13t-37 -49t-27 -74.5t-18 -89.5q43 8 85.5 11.5t86.5 5.5q3 40 4.5 77t-2.5 65t-14 46t-29 21zM254 619
q-4 -5 -12 -1t-5 12l39 94q3 7 10.5 6.5t15.5 -5t12.5 -11t1.5 -10.5z" />
    <glyph glyph-name="Acircumflex" unicode="&#xc2;" horiz-adv-x="472" 
d="M76 14q-3 -9 -14.5 -13t-24 -4t-21.5 5t-7 15q1 8 3 37.5t6.5 71.5t11.5 92.5t20 101.5t32 98.5t46 83t63.5 55t83.5 14.5q39 -4 65.5 -24.5t42.5 -52t23.5 -72t8.5 -84.5h18q8 -2 8 -12t-9 -10h-17q0 -57 -6.5 -114t-13.5 -102t-10.5 -73t1.5 -28q12 1 11.5 -7.5
t-9.5 -8.5q-49 0 -73 30t-32.5 77.5t-6.5 106.5t7 117q-45 -2 -87.5 -6.5t-86.5 -12.5q-7 -47 -11.5 -92.5t-8 -84t-6.5 -66.5t-7 -38zM244 545q-28 4 -49 -13t-37 -49t-27 -74.5t-18 -89.5q43 8 85.5 11.5t86.5 5.5q3 40 4.5 77t-2.5 65t-14 46t-29 21zM271 688l-45 -64
q-5 -7 -12 -1t-4 12l44 92q1 3 7 3.5t12.5 0t12.5 -2t7 -4.5l32 -95q2 -8 -5.5 -12.5t-11.5 2.5z" />
    <glyph glyph-name="Atilde" unicode="&#xc3;" horiz-adv-x="472" 
d="M76 14q-3 -9 -14.5 -13t-24 -4t-21.5 5t-7 15q1 8 3 37.5t6.5 71.5t11.5 92.5t20 101.5t32 98.5t46 83t63.5 55t83.5 14.5q39 -4 65.5 -24.5t42.5 -52t23.5 -72t8.5 -84.5h18q8 -2 8 -12t-9 -10h-17q0 -57 -6.5 -114t-13.5 -102t-10.5 -73t1.5 -28q12 1 11.5 -7.5
t-9.5 -8.5q-49 0 -73 30t-32.5 77.5t-6.5 106.5t7 117q-45 -2 -87.5 -6.5t-86.5 -12.5q-7 -47 -11.5 -92.5t-8 -84t-6.5 -66.5t-7 -38zM244 545q-28 4 -49 -13t-37 -49t-27 -74.5t-18 -89.5q43 8 85.5 11.5t86.5 5.5q3 40 4.5 77t-2.5 65t-14 46t-29 21zM219 632
q-1 -5 -4.5 -5.5t-6.5 1t-5.5 5.5t-0.5 9q3 8 7.5 18t11 18.5t15 14t20.5 5.5q13 0 22 -9t15 -20t9.5 -20.5t4.5 -11.5q1 -4 4.5 -2.5t7.5 5.5t8 9t7 10q5 10 11.5 4.5t3.5 -13.5q-9 -19 -22 -31t-23 -12q-14 0 -23.5 9.5t-16.5 21t-11 21.5t-8 12t-8.5 -2.5t-8 -11.5
t-6 -14.5z" />
    <glyph glyph-name="Adieresis" unicode="&#xc4;" horiz-adv-x="472" 
d="M76 14q-3 -9 -14.5 -13t-24 -4t-21.5 5t-7 15q1 8 3 37.5t6.5 71.5t11.5 92.5t20 101.5t32 98.5t46 83t63.5 55t83.5 14.5q39 -4 65.5 -24.5t42.5 -52t23.5 -72t8.5 -84.5h18q8 -2 8 -12t-9 -10h-17q0 -57 -6.5 -114t-13.5 -102t-10.5 -73t1.5 -28q12 1 11.5 -7.5
t-9.5 -8.5q-49 0 -73 30t-32.5 77.5t-6.5 106.5t7 117q-45 -2 -87.5 -6.5t-86.5 -12.5q-7 -47 -11.5 -92.5t-8 -84t-6.5 -66.5t-7 -38zM244 545q-28 4 -49 -13t-37 -49t-27 -74.5t-18 -89.5q43 8 85.5 11.5t86.5 5.5q3 40 4.5 77t-2.5 65t-14 46t-29 21zM217 661q0 8 5 13.5
t13 5.5t13 -5.5t5 -13.5q0 -7 -5 -12.5t-13 -5.5t-13 5.5t-5 12.5zM281 661q0 8 5.5 13.5t13.5 5.5q7 0 12.5 -5.5t5.5 -13.5q0 -7 -5.5 -12.5t-12.5 -5.5q-8 0 -13.5 5.5t-5.5 12.5z" />
    <glyph glyph-name="Aring" unicode="&#xc5;" horiz-adv-x="472" 
d="M76 14q-3 -9 -14.5 -13t-24 -4t-21.5 5t-7 15q1 8 3 37.5t6.5 71.5t11.5 92.5t20 101.5t32 98.5t46 83t63.5 55t83.5 14.5q39 -4 65.5 -24.5t42.5 -52t23.5 -72t8.5 -84.5h18q8 -2 8 -12t-9 -10h-17q0 -57 -6.5 -114t-13.5 -102t-10.5 -73t1.5 -28q12 1 11.5 -7.5
t-9.5 -8.5q-49 0 -73 30t-32.5 77.5t-6.5 106.5t7 117q-45 -2 -87.5 -6.5t-86.5 -12.5q-7 -47 -11.5 -92.5t-8 -84t-6.5 -66.5t-7 -38zM244 545q-28 4 -49 -13t-37 -49t-27 -74.5t-18 -89.5q43 8 85.5 11.5t86.5 5.5q3 40 4.5 77t-2.5 65t-14 46t-29 21zM225 659
q0 18 12.5 30.5t30.5 12.5q17 0 30 -12.5t13 -30.5t-13 -30.5t-30 -12.5q-18 0 -30.5 12.5t-12.5 30.5zM268 686q-7 0 -10.5 -8.5t-3 -18.5t4 -18.5t9.5 -8.5q7 0 10 8.5t3 18.5t-3.5 18.5t-9.5 8.5z" />
    <glyph glyph-name="AE" unicode="&#xc6;" horiz-adv-x="614" 
d="M317 -2q-23 9 -32.5 55.5t-8.5 111.5q0 29 1.5 59.5t3.5 61.5q-52 -5 -98.5 -10.5t-77.5 -11.5q-6 -43 -9.5 -84t-6.5 -74.5t-6 -58t-7 -33.5q-3 -9 -14.5 -13t-24 -4t-21.5 5t-7 15q1 8 3 37.5t6.5 71.5t11.5 92.5t20 101.5t32 98.5t46 83t63.5 55t83.5 14.5
q35 -3 62 -22q11 16 21.5 22t21.5 8q22 5 50.5 2.5t57 -8.5t53.5 -13.5t42 -11.5q11 -3 8 -12.5t-14 -7.5q-17 3 -37.5 9t-39.5 10.5t-34 5.5t-20 -8q-7 -12 -13 -34.5t-11.5 -52.5t-9.5 -66t-7 -73l152 14q10 -2 10.5 -10.5t-9.5 -10.5q-23 -3 -64 -6t-90 -8q-3 -47 -5 -92
t-1 -81t4 -59t9 -27q11 -7 33 -2.5t46.5 13.5t47 21t35.5 20q9 6 15.5 -2.5t-3.5 -15.5q-30 -19 -67.5 -36.5t-75 -29t-71 -15t-54.5 5.5zM244 545q-30 4 -52.5 -16.5t-38.5 -57t-27 -85.5t-18 -100q32 5 78 11t97 11q3 45 5.5 86t-0.5 73.5t-13 53.5t-31 24z" />
    <glyph glyph-name="Ccedilla" unicode="&#xc7;" horiz-adv-x="411" 
d="M342 402q-3 -8 -13 -5t-8 11q6 19 9 44.5t0 49.5t-12.5 41.5t-27.5 20.5q-17 3 -33 -8.5t-30.5 -33t-27 -49.5t-22 -58.5t-16.5 -60.5t-10 -54q-7 -49 -10.5 -97t0.5 -87t18 -65.5t44 -32.5q28 -6 54 11.5t48 46.5t39 64t26 65q3 10 12 9.5t6 -13.5q-6 -26 -20.5 -61.5
t-37.5 -67t-54 -54t-70 -23.5l-3 -26q23 -3 26 -25q2 -14 -12 -26.5t-48 -16.5q-6 -1 -7 7.5t4 10.5q14 4 29 9.5t14 13.5q-2 8 -11 7.5t-19 -1.5q-9 -2 -11.5 2t-1.5 9l3 40q-47 12 -78.5 45t-48 79.5t-19.5 101t7 109t31.5 104t53.5 85.5t73.5 54.5t91.5 10.5
q36 -6 52 -30t20 -53.5t0 -58.5t-10 -44z" />
    <glyph glyph-name="Egrave" unicode="&#xc8;" horiz-adv-x="357" 
d="M60 -2q-21 8 -30.5 49.5t-10 100t6 125.5t16.5 126.5t22 103.5t23 57q10 12 28 17t40 5t46.5 -4t47.5 -9.5t43 -11t34 -9.5q11 -3 8 -12.5t-14 -7.5q-17 3 -37.5 9t-39.5 10.5t-34 5.5t-20 -8q-7 -12 -13 -35t-11.5 -54t-9.5 -68t-7 -75q38 7 76 11.5t76 8.5
q10 -2 10.5 -10.5t-9.5 -10.5q-39 -5 -77.5 -9.5t-77.5 -11.5q-3 -46 -4.5 -89.5t-0.5 -78.5t4 -57.5t9 -26.5q11 -7 33 -2.5t46.5 13.5t47 21t35.5 20q9 6 15.5 -2.5t-3.5 -15.5q-30 -19 -67.5 -36.5t-75 -29t-71 -15t-54.5 5.5zM184 704q-3 4 1.5 10.5t12.5 11t16 5
t11 -6.5l38 -94q4 -8 -4 -12t-13 1z" />
    <glyph glyph-name="Eacute" unicode="&#xc9;" horiz-adv-x="357" 
d="M60 -2q-21 8 -30.5 49.5t-10 100t6 125.5t16.5 126.5t22 103.5t23 57q10 12 28 17t40 5t46.5 -4t47.5 -9.5t43 -11t34 -9.5q11 -3 8 -12.5t-14 -7.5q-17 3 -37.5 9t-39.5 10.5t-34 5.5t-20 -8q-7 -12 -13 -35t-11.5 -54t-9.5 -68t-7 -75q38 7 76 11.5t76 8.5
q10 -2 10.5 -10.5t-9.5 -10.5q-39 -5 -77.5 -9.5t-77.5 -11.5q-3 -46 -4.5 -89.5t-0.5 -78.5t4 -57.5t9 -26.5q11 -7 33 -2.5t46.5 13.5t47 21t35.5 20q9 6 15.5 -2.5t-3.5 -15.5q-30 -19 -67.5 -36.5t-75 -29t-71 -15t-54.5 5.5zM250 619q-4 -5 -12 -1t-5 12l39 94
q3 7 10.5 6.5t15.5 -5t12.5 -11t1.5 -10.5z" />
    <glyph glyph-name="Ecircumflex" unicode="&#xca;" horiz-adv-x="357" 
d="M60 -2q-21 8 -30.5 49.5t-10 100t6 125.5t16.5 126.5t22 103.5t23 57q10 12 28 17t40 5t46.5 -4t47.5 -9.5t43 -11t34 -9.5q11 -3 8 -12.5t-14 -7.5q-17 3 -37.5 9t-39.5 10.5t-34 5.5t-20 -8q-7 -12 -13 -35t-11.5 -54t-9.5 -68t-7 -75q38 7 76 11.5t76 8.5
q10 -2 10.5 -10.5t-9.5 -10.5q-39 -5 -77.5 -9.5t-77.5 -11.5q-3 -46 -4.5 -89.5t-0.5 -78.5t4 -57.5t9 -26.5q11 -7 33 -2.5t46.5 13.5t47 21t35.5 20q9 6 15.5 -2.5t-3.5 -15.5q-30 -19 -67.5 -36.5t-75 -29t-71 -15t-54.5 5.5zM235 688l-45 -64q-5 -7 -12 -1t-4 12l44 92
q1 3 7 3.5t12.5 0t12.5 -2t7 -4.5l32 -95q2 -8 -5.5 -12.5t-11.5 2.5z" />
    <glyph glyph-name="Edieresis" unicode="&#xcb;" horiz-adv-x="357" 
d="M60 -2q-21 8 -30.5 49.5t-10 100t6 125.5t16.5 126.5t22 103.5t23 57q10 12 28 17t40 5t46.5 -4t47.5 -9.5t43 -11t34 -9.5q11 -3 8 -12.5t-14 -7.5q-17 3 -37.5 9t-39.5 10.5t-34 5.5t-20 -8q-7 -12 -13 -35t-11.5 -54t-9.5 -68t-7 -75q38 7 76 11.5t76 8.5
q10 -2 10.5 -10.5t-9.5 -10.5q-39 -5 -77.5 -9.5t-77.5 -11.5q-3 -46 -4.5 -89.5t-0.5 -78.5t4 -57.5t9 -26.5q11 -7 33 -2.5t46.5 13.5t47 21t35.5 20q9 6 15.5 -2.5t-3.5 -15.5q-30 -19 -67.5 -36.5t-75 -29t-71 -15t-54.5 5.5zM182 661q0 8 5 13.5t13 5.5t13 -5.5
t5 -13.5q0 -7 -5 -12.5t-13 -5.5t-13 5.5t-5 12.5zM246 661q0 8 5.5 13.5t13.5 5.5q7 0 12.5 -5.5t5.5 -13.5q0 -7 -5.5 -12.5t-12.5 -5.5q-8 0 -13.5 5.5t-5.5 12.5z" />
    <glyph glyph-name="Igrave" unicode="&#xcc;" horiz-adv-x="312" 
d="M11 11q-9 0 -9 9.5t8 9.5q16 0 34.5 0.5t38.5 0.5q-1 14 2 50.5t8 85t11 104t12 106t11.5 92t9.5 62.5l-67 -4q-5 0 -7 3t-2 7t2 7.5t6 3.5q26 2 56 3.5t59.5 2.5t57 1.5t49.5 0.5q8 0 8.5 -9.5t-7.5 -9.5h-29t-31 -1q-1 -19 -4 -58.5t-7.5 -89t-9.5 -104t-9.5 -104
t-8.5 -89.5t-6 -59q21 1 38.5 1t29.5 1q8 0 8.5 -9.5t-7.5 -9.5q-46 -1 -111 -2.5t-134 -1.5zM151 684q-3 4 1.5 10.5t12.5 11t16 5t11 -6.5l38 -94q4 -8 -4 -12t-13 1z" />
    <glyph glyph-name="Iacute" unicode="&#xcd;" horiz-adv-x="312" 
d="M11 11q-9 0 -9 9.5t8 9.5q16 0 34.5 0.5t38.5 0.5q-1 14 2 50.5t8 85t11 104t12 106t11.5 92t9.5 62.5l-67 -4q-5 0 -7 3t-2 7t2 7.5t6 3.5q26 2 56 3.5t59.5 2.5t57 1.5t49.5 0.5q8 0 8.5 -9.5t-7.5 -9.5h-29t-31 -1q-1 -19 -4 -58.5t-7.5 -89t-9.5 -104t-9.5 -104
t-8.5 -89.5t-6 -59q21 1 38.5 1t29.5 1q8 0 8.5 -9.5t-7.5 -9.5q-46 -1 -111 -2.5t-134 -1.5zM185 608q-4 -5 -12 -1t-5 12l39 94q3 7 10.5 6.5t15.5 -5t12.5 -11t1.5 -10.5z" />
    <glyph glyph-name="Icircumflex" unicode="&#xce;" horiz-adv-x="312" 
d="M11 11q-9 0 -9 9.5t8 9.5q16 0 34.5 0.5t38.5 0.5q-1 14 2 50.5t8 85t11 104t12 106t11.5 92t9.5 62.5l-67 -4q-5 0 -7 3t-2 7t2 7.5t6 3.5q26 2 56 3.5t59.5 2.5t57 1.5t49.5 0.5q8 0 8.5 -9.5t-7.5 -9.5h-29t-31 -1q-1 -19 -4 -58.5t-7.5 -89t-9.5 -104t-9.5 -104
t-8.5 -89.5t-6 -59q21 1 38.5 1t29.5 1q8 0 8.5 -9.5t-7.5 -9.5q-46 -1 -111 -2.5t-134 -1.5zM202 688l-45 -64q-5 -7 -12 -1t-4 12l44 92q1 3 7 3.5t12.5 0t12.5 -2t7 -4.5l32 -95q2 -8 -5.5 -12.5t-11.5 2.5z" />
    <glyph glyph-name="Idieresis" unicode="&#xcf;" horiz-adv-x="312" 
d="M11 11q-9 0 -9 9.5t8 9.5q16 0 34.5 0.5t38.5 0.5q-1 14 2 50.5t8 85t11 104t12 106t11.5 92t9.5 62.5l-67 -4q-5 0 -7 3t-2 7t2 7.5t6 3.5q26 2 56 3.5t59.5 2.5t57 1.5t49.5 0.5q8 0 8.5 -9.5t-7.5 -9.5h-29t-31 -1q-1 -19 -4 -58.5t-7.5 -89t-9.5 -104t-9.5 -104
t-8.5 -89.5t-6 -59q21 1 38.5 1t29.5 1q8 0 8.5 -9.5t-7.5 -9.5q-46 -1 -111 -2.5t-134 -1.5zM143 650q0 8 5 13.5t13 5.5t13 -5.5t5 -13.5q0 -7 -5 -12.5t-13 -5.5t-13 5.5t-5 12.5zM207 650q0 8 5.5 13.5t13.5 5.5q7 0 12.5 -5.5t5.5 -13.5q0 -7 -5.5 -12.5t-12.5 -5.5
q-8 0 -13.5 5.5t-5.5 12.5z" />
    <glyph glyph-name="Eth" unicode="&#xd0;" horiz-adv-x="453" 
d="M72 567q2 9 16 12.5t30 3t28.5 -6t12.5 -15.5q-2 -27 -3.5 -55.5t-3.5 -57.5q10 32 23 58t31 43t42 24.5t54 2.5q40 -6 67.5 -34t42.5 -69t18 -91t-4.5 -101.5t-26 -101t-46.5 -88t-65.5 -62.5t-83.5 -25q-25 -1 -48.5 7.5t-40.5 25.5q-2 -16 -3 -26t-2 -15
q-2 -10 -17.5 -15t-33.5 -4.5t-32.5 7t-14.5 18.5q1 28 3.5 64t5.5 76.5t7 83.5t9 85h-20q-7 0 -6 10t7 10h21q8 77 16.5 141t16.5 95zM151 310q-6 -37 -11.5 -74t-9.5 -70.5t-7.5 -61.5t-5.5 -47q21 -27 54 -26q25 1 46 22.5t37.5 57t28 80.5t18 92.5t7.5 93.5t-4.5 82.5
t-17.5 60.5t-31 27q-18 3 -32.5 -14t-27 -47t-22.5 -70.5t-18 -84.5h50q8 0 9.5 -10t-6.5 -11h-57z" />
    <glyph glyph-name="Ntilde" unicode="&#xd1;" horiz-adv-x="535" 
d="M66 568q1 10 17.5 14.5t35.5 3t34 -9t14 -20.5l-16 -196q12 43 29 80.5t39 65.5t51 43t65 12q39 -3 65 -27.5t42 -63t24 -86.5t12 -97.5t5 -96.5t3.5 -83.5t7.5 -59t17 -21.5q7 0 9 -7t-6 -9q-51 -12 -81 4.5t-46 51t-21 82.5t-5 100t1 103.5t-3 92t-16.5 66t-40.5 25.5
q-34 1 -62 -39.5t-50 -111.5t-39 -168.5t-28 -210.5q-1 -9 -19 -12.5t-39.5 -3t-39 6.5t-16.5 17q0 5 2.5 30t6 63t8.5 85.5t10 97t10 97t9 86t7 64.5t4 32zM259 654q-1 -5 -4.5 -5.5t-6.5 1t-5.5 5.5t-0.5 9q3 8 7.5 18t11 18.5t15 14t20.5 5.5q13 0 22 -9t15 -20
t9.5 -20.5t4.5 -11.5q1 -4 4.5 -2.5t7.5 5.5t8 9t7 10q5 10 11.5 4.5t3.5 -13.5q-9 -19 -22 -31t-23 -12q-14 0 -23.5 9.5t-16.5 21t-11 21.5t-8 12t-8.5 -2.5t-8 -11.5t-6 -14.5z" />
    <glyph glyph-name="Ograve" unicode="&#xd2;" horiz-adv-x="556" 
d="M239 -5q-67 6 -113.5 36t-73 75.5t-34.5 100.5t0.5 110t33.5 105.5t64.5 86.5t92 52.5t117.5 4.5q35 -7 63.5 -25t50.5 -44.5t37.5 -59.5t24.5 -69q8 3 15 6t15 7q9 3 13.5 -6t-3.5 -14l-35 -16q11 -63 1 -128.5t-43 -117t-89 -81.5t-137 -23zM419 317
q-63 -13 -108.5 -2.5t-74 35t-40.5 57.5t-8 65q-20 -36 -31.5 -83t-15 -96.5t1 -98.5t18 -87.5t35 -63.5t51.5 -28q42 -4 74 22t54 69.5t33 99t11 111.5zM311 543q-31 6 -55 -4q-23 -10 -35 -31.5t-12 -47t12 -51.5t38 -45t65.5 -26.5t93.5 3.5q-2 37 -9.5 71.5t-20.5 61.5
t-32.5 45t-44.5 24zM261 704q-3 4 1.5 10.5t12.5 11t16 5t11 -6.5l38 -94q4 -8 -4 -12t-13 1z" />
    <glyph glyph-name="Oacute" unicode="&#xd3;" horiz-adv-x="556" 
d="M239 -5q-67 6 -113.5 36t-73 75.5t-34.5 100.5t0.5 110t33.5 105.5t64.5 86.5t92 52.5t117.5 4.5q35 -7 63.5 -25t50.5 -44.5t37.5 -59.5t24.5 -69q8 3 15 6t15 7q9 3 13.5 -6t-3.5 -14l-35 -16q11 -63 1 -128.5t-43 -117t-89 -81.5t-137 -23zM419 317
q-63 -13 -108.5 -2.5t-74 35t-40.5 57.5t-8 65q-20 -36 -31.5 -83t-15 -96.5t1 -98.5t18 -87.5t35 -63.5t51.5 -28q42 -4 74 22t54 69.5t33 99t11 111.5zM311 543q-31 6 -55 -4q-23 -10 -35 -31.5t-12 -47t12 -51.5t38 -45t65.5 -26.5t93.5 3.5q-2 37 -9.5 71.5t-20.5 61.5
t-32.5 45t-44.5 24zM296 619q-4 -5 -12 -1t-5 12l39 94q3 7 10.5 6.5t15.5 -5t12.5 -11t1.5 -10.5z" />
    <glyph glyph-name="Ocircumflex" unicode="&#xd4;" horiz-adv-x="556" 
d="M239 -5q-67 6 -113.5 36t-73 75.5t-34.5 100.5t0.5 110t33.5 105.5t64.5 86.5t92 52.5t117.5 4.5q35 -7 63.5 -25t50.5 -44.5t37.5 -59.5t24.5 -69q8 3 15 6t15 7q9 3 13.5 -6t-3.5 -14l-35 -16q11 -63 1 -128.5t-43 -117t-89 -81.5t-137 -23zM419 317
q-63 -13 -108.5 -2.5t-74 35t-40.5 57.5t-8 65q-20 -36 -31.5 -83t-15 -96.5t1 -98.5t18 -87.5t35 -63.5t51.5 -28q42 -4 74 22t54 69.5t33 99t11 111.5zM311 543q-31 6 -55 -4q-23 -10 -35 -31.5t-12 -47t12 -51.5t38 -45t65.5 -26.5t93.5 3.5q-2 37 -9.5 71.5t-20.5 61.5
t-32.5 45t-44.5 24zM302 688l-45 -64q-5 -7 -12 -1t-4 12l44 92q1 3 7 3.5t12.5 0t12.5 -2t7 -4.5l32 -95q2 -8 -5.5 -12.5t-11.5 2.5z" />
    <glyph glyph-name="Otilde" unicode="&#xd5;" horiz-adv-x="556" 
d="M239 -5q-67 6 -113.5 36t-73 75.5t-34.5 100.5t0.5 110t33.5 105.5t64.5 86.5t92 52.5t117.5 4.5q35 -7 63.5 -25t50.5 -44.5t37.5 -59.5t24.5 -69q8 3 15 6t15 7q9 3 13.5 -6t-3.5 -14l-35 -16q11 -63 1 -128.5t-43 -117t-89 -81.5t-137 -23zM419 317
q-63 -13 -108.5 -2.5t-74 35t-40.5 57.5t-8 65q-20 -36 -31.5 -83t-15 -96.5t1 -98.5t18 -87.5t35 -63.5t51.5 -28q42 -4 74 22t54 69.5t33 99t11 111.5zM311 543q-31 6 -55 -4q-23 -10 -35 -31.5t-12 -47t12 -51.5t38 -45t65.5 -26.5t93.5 3.5q-2 37 -9.5 71.5t-20.5 61.5
t-32.5 45t-44.5 24zM250 632q-1 -5 -4.5 -5.5t-6.5 1t-5.5 5.5t-0.5 9q3 8 7.5 18t11 18.5t15 14t20.5 5.5q13 0 22 -9t15 -20t9.5 -20.5t4.5 -11.5q1 -4 4.5 -2.5t7.5 5.5t8 9t7 10q5 10 11.5 4.5t3.5 -13.5q-9 -19 -22 -31t-23 -12q-14 0 -23.5 9.5t-16.5 21t-11 21.5
t-8 12t-8.5 -2.5t-8 -11.5t-6 -14.5z" />
    <glyph glyph-name="Odieresis" unicode="&#xd6;" horiz-adv-x="556" 
d="M239 -5q-67 6 -113.5 36t-73 75.5t-34.5 100.5t0.5 110t33.5 105.5t64.5 86.5t92 52.5t117.5 4.5q35 -7 63.5 -25t50.5 -44.5t37.5 -59.5t24.5 -69q8 3 15 6t15 7q9 3 13.5 -6t-3.5 -14l-35 -16q11 -63 1 -128.5t-43 -117t-89 -81.5t-137 -23zM419 317
q-63 -13 -108.5 -2.5t-74 35t-40.5 57.5t-8 65q-20 -36 -31.5 -83t-15 -96.5t1 -98.5t18 -87.5t35 -63.5t51.5 -28q42 -4 74 22t54 69.5t33 99t11 111.5zM311 543q-31 6 -55 -4q-23 -10 -35 -31.5t-12 -47t12 -51.5t38 -45t65.5 -26.5t93.5 3.5q-2 37 -9.5 71.5t-20.5 61.5
t-32.5 45t-44.5 24zM249 661q0 8 5 13.5t13 5.5t13 -5.5t5 -13.5q0 -7 -5 -12.5t-13 -5.5t-13 5.5t-5 12.5zM313 661q0 8 5.5 13.5t13.5 5.5q7 0 12.5 -5.5t5.5 -13.5q0 -7 -5.5 -12.5t-12.5 -5.5q-8 0 -13.5 5.5t-5.5 12.5z" />
    <glyph glyph-name="multiply" unicode="&#xd7;" horiz-adv-x="283" 
d="M173 327q15 -26 29 -51.5t25.5 -48t19.5 -40t12 -27.5q3 -8 -4 -19t-18 -19t-23 -11t-18 5q-9 11 -30 42.5t-46 71.5l-59 -107q-2 -4 -6 -4.5t-7.5 2t-5.5 6t0 6.5l65 118q-14 22 -27 44t-24 42t-19.5 36t-12.5 27q-4 10 6 21t24.5 18.5t29 9.5t19.5 -5
q14 -20 28.5 -44.5t29.5 -50.5l52 94q3 4 7 5t8 -1t5.5 -6t-1.5 -8z" />
    <glyph glyph-name="Oslash" unicode="&#xd8;" horiz-adv-x="556" 
d="M239 -5q-12 2 -23 4l-22 4l-18 -49q-4 -11 -13.5 -7t-6.5 13l18 48q-70 24 -108 78.5t-48 122t6.5 137t57 124t102 83t142.5 13.5q13 -3 25.5 -7t23.5 -10l12 33q1 5 5 6t7.5 -0.5t5.5 -5t0 -8.5l-13 -35q42 -27 69.5 -72t40.5 -99q8 3 15 6t15 7q9 3 13.5 -6t-3.5 -14
l-35 -16q11 -63 1 -128.5t-43 -117t-89 -81.5t-137 -23zM419 317q-63 -13 -110 -2l-104 -282q18 -17 42 -18q42 -4 74 22t54 69.5t33 99t11 111.5zM188 472q-24 -44 -36.5 -103t-12.5 -119.5t12.5 -114t37.5 -85.5l101 270q-29 9 -49.5 26t-33 37.5t-17.5 43.5t-2 45z
M311 543q-31 6 -55 -4q-27 -12 -39 -39t-7 -57t26.5 -58t62.5 -41l62 169q-21 22 -50 30zM418 341q-2 45 -12.5 85t-29.5 69l-58 -156q43 -10 100 2z" />
    <glyph glyph-name="Ugrave" unicode="&#xd9;" horiz-adv-x="447" 
d="M100 557q4 7 16.5 9t26 -0.5t23.5 -8t10 -13.5q-1 -31 -8 -80.5t-14 -106t-12.5 -114.5t-3.5 -106t13 -79.5t36 -35.5q27 -5 47.5 21t35.5 70.5t26 102.5t19 118.5t14.5 117.5t12.5 100q1 6 8.5 7.5t16 0t16 -5.5t8.5 -9q10 -73 12 -142.5t-6 -131t-25.5 -112.5
t-45.5 -87t-66 -54.5t-87 -14.5q-48 4 -80 33.5t-49.5 75.5t-21.5 104t4 118.5t27 118.5t47 104zM218 704q-3 4 1.5 10.5t12.5 11t16 5t11 -6.5l38 -94q4 -8 -4 -12t-13 1z" />
    <glyph glyph-name="Uacute" unicode="&#xda;" horiz-adv-x="447" 
d="M100 557q4 7 16.5 9t26 -0.5t23.5 -8t10 -13.5q-1 -31 -8 -80.5t-14 -106t-12.5 -114.5t-3.5 -106t13 -79.5t36 -35.5q27 -5 47.5 21t35.5 70.5t26 102.5t19 118.5t14.5 117.5t12.5 100q1 6 8.5 7.5t16 0t16 -5.5t8.5 -9q10 -73 12 -142.5t-6 -131t-25.5 -112.5
t-45.5 -87t-66 -54.5t-87 -14.5q-48 4 -80 33.5t-49.5 75.5t-21.5 104t4 118.5t27 118.5t47 104zM263 608q-4 -5 -12 -1t-5 12l39 94q3 7 10.5 6.5t15.5 -5t12.5 -11t1.5 -10.5z" />
    <glyph glyph-name="Ucircumflex" unicode="&#xdb;" horiz-adv-x="447" 
d="M100 557q4 7 16.5 9t26 -0.5t23.5 -8t10 -13.5q-1 -31 -8 -80.5t-14 -106t-12.5 -114.5t-3.5 -106t13 -79.5t36 -35.5q27 -5 47.5 21t35.5 70.5t26 102.5t19 118.5t14.5 117.5t12.5 100q1 6 8.5 7.5t16 0t16 -5.5t8.5 -9q10 -73 12 -142.5t-6 -131t-25.5 -112.5
t-45.5 -87t-66 -54.5t-87 -14.5q-48 4 -80 33.5t-49.5 75.5t-21.5 104t4 118.5t27 118.5t47 104zM270 688l-45 -64q-5 -7 -12 -1t-4 12l44 92q1 3 7 3.5t12.5 0t12.5 -2t7 -4.5l32 -95q2 -8 -5.5 -12.5t-11.5 2.5z" />
    <glyph glyph-name="Udieresis" unicode="&#xdc;" horiz-adv-x="447" 
d="M100 557q4 7 16.5 9t26 -0.5t23.5 -8t10 -13.5q-1 -31 -8 -80.5t-14 -106t-12.5 -114.5t-3.5 -106t13 -79.5t36 -35.5q27 -5 47.5 21t35.5 70.5t26 102.5t19 118.5t14.5 117.5t12.5 100q1 6 8.5 7.5t16 0t16 -5.5t8.5 -9q10 -73 12 -142.5t-6 -131t-25.5 -112.5
t-45.5 -87t-66 -54.5t-87 -14.5q-48 4 -80 33.5t-49.5 75.5t-21.5 104t4 118.5t27 118.5t47 104zM212 659q0 8 5 13.5t13 5.5t13 -5.5t5 -13.5q0 -7 -5 -12.5t-13 -5.5t-13 5.5t-5 12.5zM276 659q0 8 5.5 13.5t13.5 5.5q7 0 12.5 -5.5t5.5 -13.5q0 -7 -5.5 -12.5t-12.5 -5.5
q-8 0 -13.5 5.5t-5.5 12.5z" />
    <glyph glyph-name="Yacute" unicode="&#xdd;" horiz-adv-x="367" 
d="M20 485q1 4 11 7.5t22 4.5t22.5 -1t12.5 -7q15 -39 19.5 -82.5t6.5 -80.5t4.5 -62t13.5 -27q10 -4 21 13.5t21.5 47t20.5 67t19.5 76t18 72.5t16.5 57q3 8 16 10.5t27 1t26 -6.5t12 -11q7 -72 2.5 -142.5t-18 -134.5t-34.5 -118t-47 -93.5t-56.5 -61.5t-61.5 -20
q-10 1 -9 11.5t10 9.5q24 -5 38.5 18t23 64t13.5 96t11 115q-8 -22 -18 -41.5t-22 -33t-26.5 -20.5t-31.5 -5q-32 3 -52.5 31t-30.5 68.5t-10 88t9 89.5zM145 581q-4 -5 -12 -1t-5 12l39 94q3 7 10.5 6.5t15.5 -5t12.5 -11t1.5 -10.5z" />
    <glyph glyph-name="Thorn" unicode="&#xde;" horiz-adv-x="396" 
d="M80 571q4 12 18.5 15t31 1t29.5 -7.5t13 -11.5q0 -38 -2 -83.5t-5 -94.5q17 30 42.5 46.5t63.5 11.5q42 -6 66.5 -33t32.5 -63t0 -76t-31 -72.5t-61 -51t-89 -12.5q-26 3 -43 23q-6 -54 -11.5 -96t-9.5 -64q-2 -11 -18.5 -15t-35 -2.5t-34.5 8t-17 16.5q-2 30 0 77.5
t6 103t10.5 113.5t13.5 110.5t15 93.5t15 63zM149 201q6 -16 16 -26.5t25 -12.5q19 -3 36.5 14t30.5 45.5t21 62.5t9 64.5t-5 52t-22 25.5q-44 10 -69 -47.5t-42 -177.5z" />
    <glyph glyph-name="germandbls" unicode="&#xdf;" horiz-adv-x="363" 
d="M124 23q-1 -10 -17.5 -14.5t-35.5 -4t-35 6t-16 15.5q1 44 3 94t5.5 100.5t10 100t17 92t25.5 75.5t36 51q25 22 52.5 28t53 0t46 -22.5t31 -40t8 -52.5t-22.5 -60q-14 -21 -3.5 -53t26.5 -69.5t28 -78t1 -78.5q-9 -30 -35.5 -45t-53.5 -15t-46.5 15t-13.5 45q1 8 5.5 11
t9 2t7 -4.5t1.5 -7.5q-6 -15 1 -25t18.5 -13t22.5 2.5t13 20.5q3 22 -10.5 43.5t-29 45t-26.5 51t-4 60.5q5 25 25 49.5t38 49.5t26 51.5t-10 55.5q-10 17 -31 19.5t-42 -14.5q-24 -20 -37.5 -72t-21 -120t-11.5 -145.5t-8 -149.5z" />
    <glyph glyph-name="agrave" unicode="&#xe0;" horiz-adv-x="434" 
d="M378 344q4 -25 2.5 -58t-5.5 -68.5t-8.5 -70.5t-6.5 -63t0.5 -46t12.5 -20q12 -2 26.5 17.5t28 47.5t24 58t14.5 49q1 4 3.5 5.5t5.5 1t5 -3t1 -6.5q-5 -25 -16.5 -60.5t-29 -68.5t-41 -56t-53.5 -21q-42 2 -66 39t-29 98q-17 -53 -41.5 -88t-62.5 -33q-50 2 -79.5 30
t-40.5 68.5t-3.5 86.5t30.5 83t60.5 59t88.5 15q39 -6 67 -34q2 11 5 21t6 21q3 8 18 14t33 7t33.5 -4t17.5 -20zM161 29q12 -3 22.5 8t20 31t18 47.5t15.5 56.5t12.5 58t9.5 53q-14 21 -35 22q-20 1 -36 -17.5t-27.5 -48t-18 -64.5t-7 -66t5.5 -53.5t20 -26.5zM180 475
q-3 4 1.5 10.5t12.5 11t16 5t11 -6.5l38 -94q4 -8 -4 -12t-13 1z" />
    <glyph glyph-name="aacute" unicode="&#xe1;" horiz-adv-x="434" 
d="M378 344q4 -25 2.5 -58t-5.5 -68.5t-8.5 -70.5t-6.5 -63t0.5 -46t12.5 -20q12 -2 26.5 17.5t28 47.5t24 58t14.5 49q1 4 3.5 5.5t5.5 1t5 -3t1 -6.5q-5 -25 -16.5 -60.5t-29 -68.5t-41 -56t-53.5 -21q-42 2 -66 39t-29 98q-17 -53 -41.5 -88t-62.5 -33q-50 2 -79.5 30
t-40.5 68.5t-3.5 86.5t30.5 83t60.5 59t88.5 15q39 -6 67 -34q2 11 5 21t6 21q3 8 18 14t33 7t33.5 -4t17.5 -20zM161 29q12 -3 22.5 8t20 31t18 47.5t15.5 56.5t12.5 58t9.5 53q-14 21 -35 22q-20 1 -36 -17.5t-27.5 -48t-18 -64.5t-7 -66t5.5 -53.5t20 -26.5zM192 390
q-4 -5 -12 -1t-5 12l39 94q3 7 10.5 6.5t15.5 -5t12.5 -11t1.5 -10.5z" />
    <glyph glyph-name="acircumflex" unicode="&#xe2;" horiz-adv-x="434" 
d="M378 344q4 -25 2.5 -58t-5.5 -68.5t-8.5 -70.5t-6.5 -63t0.5 -46t12.5 -20q12 -2 26.5 17.5t28 47.5t24 58t14.5 49q1 4 3.5 5.5t5.5 1t5 -3t1 -6.5q-5 -25 -16.5 -60.5t-29 -68.5t-41 -56t-53.5 -21q-42 2 -66 39t-29 98q-17 -53 -41.5 -88t-62.5 -33q-50 2 -79.5 30
t-40.5 68.5t-3.5 86.5t30.5 83t60.5 59t88.5 15q39 -6 67 -34q2 11 5 21t6 21q3 8 18 14t33 7t33.5 -4t17.5 -20zM161 29q12 -3 22.5 8t20 31t18 47.5t15.5 56.5t12.5 58t9.5 53q-14 21 -35 22q-20 1 -36 -17.5t-27.5 -48t-18 -64.5t-7 -66t5.5 -53.5t20 -26.5zM220 459
l-45 -64q-5 -7 -12 -1t-4 12l44 92q1 3 7 3.5t12.5 0t12.5 -2t7 -4.5l32 -95q2 -8 -5.5 -12.5t-11.5 2.5z" />
    <glyph glyph-name="atilde" unicode="&#xe3;" horiz-adv-x="434" 
d="M378 344q4 -25 2.5 -58t-5.5 -68.5t-8.5 -70.5t-6.5 -63t0.5 -46t12.5 -20q12 -2 26.5 17.5t28 47.5t24 58t14.5 49q1 4 3.5 5.5t5.5 1t5 -3t1 -6.5q-5 -25 -16.5 -60.5t-29 -68.5t-41 -56t-53.5 -21q-42 2 -66 39t-29 98q-17 -53 -41.5 -88t-62.5 -33q-50 2 -79.5 30
t-40.5 68.5t-3.5 86.5t30.5 83t60.5 59t88.5 15q39 -6 67 -34q2 11 5 21t6 21q3 8 18 14t33 7t33.5 -4t17.5 -20zM161 29q12 -3 22.5 8t20 31t18 47.5t15.5 56.5t12.5 58t9.5 53q-14 21 -35 22q-20 1 -36 -17.5t-27.5 -48t-18 -64.5t-7 -66t5.5 -53.5t20 -26.5zM168 403
q-1 -5 -4.5 -5.5t-6.5 1t-5.5 5.5t-0.5 9q3 8 7.5 18t11 18.5t15 14t20.5 5.5q13 0 22 -9t15 -20t9.5 -20.5t4.5 -11.5q1 -4 4.5 -2.5t7.5 5.5t8 9t7 10q5 10 11.5 4.5t3.5 -13.5q-9 -19 -22 -31t-23 -12q-14 0 -23.5 9.5t-16.5 21t-11 21.5t-8 12t-8.5 -2.5t-8 -11.5
t-6 -14.5z" />
    <glyph glyph-name="adieresis" unicode="&#xe4;" horiz-adv-x="434" 
d="M378 344q4 -25 2.5 -58t-5.5 -68.5t-8.5 -70.5t-6.5 -63t0.5 -46t12.5 -20q12 -2 26.5 17.5t28 47.5t24 58t14.5 49q1 4 3.5 5.5t5.5 1t5 -3t1 -6.5q-5 -25 -16.5 -60.5t-29 -68.5t-41 -56t-53.5 -21q-42 2 -66 39t-29 98q-17 -53 -41.5 -88t-62.5 -33q-50 2 -79.5 30
t-40.5 68.5t-3.5 86.5t30.5 83t60.5 59t88.5 15q39 -6 67 -34q2 11 5 21t6 21q3 8 18 14t33 7t33.5 -4t17.5 -20zM161 29q12 -3 22.5 8t20 31t18 47.5t15.5 56.5t12.5 58t9.5 53q-14 21 -35 22q-20 1 -36 -17.5t-27.5 -48t-18 -64.5t-7 -66t5.5 -53.5t20 -26.5zM167 432
q0 8 5 13.5t13 5.5t13 -5.5t5 -13.5q0 -7 -5 -12.5t-13 -5.5t-13 5.5t-5 12.5zM231 432q0 8 5.5 13.5t13.5 5.5q7 0 12.5 -5.5t5.5 -13.5q0 -7 -5.5 -12.5t-12.5 -5.5q-8 0 -13.5 5.5t-5.5 12.5z" />
    <glyph glyph-name="aring" unicode="&#xe5;" horiz-adv-x="434" 
d="M378 344q4 -25 2.5 -58t-5.5 -68.5t-8.5 -70.5t-6.5 -63t0.5 -46t12.5 -20q12 -2 26.5 17.5t28 47.5t24 58t14.5 49q1 4 3.5 5.5t5.5 1t5 -3t1 -6.5q-5 -25 -16.5 -60.5t-29 -68.5t-41 -56t-53.5 -21q-42 2 -66 39t-29 98q-17 -53 -41.5 -88t-62.5 -33q-50 2 -79.5 30
t-40.5 68.5t-3.5 86.5t30.5 83t60.5 59t88.5 15q39 -6 67 -34q2 11 5 21t6 21q3 8 18 14t33 7t33.5 -4t17.5 -20zM161 29q12 -3 22.5 8t20 31t18 47.5t15.5 56.5t12.5 58t9.5 53q-14 21 -35 22q-20 1 -36 -17.5t-27.5 -48t-18 -64.5t-7 -66t5.5 -53.5t20 -26.5zM174 430
q0 18 12.5 30.5t30.5 12.5q17 0 30 -12.5t13 -30.5t-13 -30.5t-30 -12.5q-18 0 -30.5 12.5t-12.5 30.5zM217 457q-7 0 -10.5 -8.5t-3 -18.5t4 -18.5t9.5 -8.5q7 0 10 8.5t3 18.5t-3.5 18.5t-9.5 8.5z" />
    <glyph glyph-name="ae" unicode="&#xe6;" horiz-adv-x="523" 
d="M233 225q0 12 -1 30t-5.5 35.5t-14 30t-27.5 14.5q-20 2 -38 -8.5t-21 -43.5q-1 -11 -9.5 -10.5t-8.5 9.5q0 22 9 38.5t24.5 27t36 14.5t43.5 1q43 -4 71 -37q20 20 45.5 32t54.5 10q28 -2 46 -14t24.5 -28.5t0 -34t-28.5 -30.5q-17 -10 -37 -15.5t-40 -10.5
q-6 -32 -7 -66.5t4 -64t16.5 -50t29.5 -24.5q15 -3 35 3.5t41 25t41.5 51t36.5 80.5q3 9 10 8.5t5 -11.5q-17 -63 -44.5 -102.5t-59.5 -59.5t-65 -25t-61 1q-46 9 -71.5 38t-35.5 67q-6 -21 -15 -40t-23 -34t-33.5 -23.5t-45.5 -8.5q-42 1 -67.5 22t-35.5 51t-4.5 64.5
t25.5 62.5t54 44t81 9q17 -3 34 -10t31 -18zM162 31q16 4 28.5 25.5t20.5 48.5t13 54t6 41q-16 17 -36 19q-20 1 -33 -13t-21 -36t-10 -48t1 -47t10.5 -34t20.5 -10zM386 314q-8 -11 -14 -26t-11 -32q18 5 34.5 10t30.5 14q18 12 19.5 26t-7 22t-23.5 6.5t-29 -20.5z" />
    <glyph glyph-name="ccedilla" unicode="&#xe7;" horiz-adv-x="332" 
d="M281 253q-3 -11 -13 -9.5t-8 12.5q7 35 -3 59t-39 26q-22 1 -39 -22.5t-27.5 -59.5t-13.5 -78.5t3.5 -79.5t23.5 -62.5t46 -27.5q25 -2 48.5 13.5t43.5 41t35.5 58t24.5 66.5q3 9 10.5 8.5t4.5 -11.5q-9 -38 -25 -75t-41 -66t-57.5 -47t-74.5 -18l-5 -34q23 -3 26 -25
q2 -14 -12 -26.5t-48 -16.5q-6 -1 -7 7.5t4 10.5q14 4 29 9.5t14 13.5q-2 8 -11 7.5t-19 -1.5q-9 -2 -11.5 2t-1.5 9l3 48q-51 10 -79.5 43.5t-38.5 77.5t-2 92t30.5 87.5t58 64.5t81.5 23q31 -2 50 -14t29.5 -30t12.5 -38.5t-2 -37.5z" />
    <glyph glyph-name="egrave" unicode="&#xe8;" horiz-adv-x="314" 
d="M226 261q-17 -10 -37 -15.5t-41 -10.5q-6 -32 -7 -66.5t4.5 -64t16.5 -50t29 -24.5q15 -3 35 3.5t41 25t41.5 51t36.5 80.5q3 9 10 8.5t5 -11.5q-17 -63 -44.5 -102.5t-59.5 -59.5t-65 -25t-61 1q-48 10 -74.5 41.5t-34 73t1 87t30.5 83t55.5 61t75.5 21.5
q27 -2 45.5 -14t25 -28.5t0 -34t-28.5 -30.5zM177 314q-8 -11 -14 -26t-11 -32q18 5 34.5 10t30.5 14q19 12 20.5 26t-7.5 22t-24 6.5t-29 -20.5zM152 497q-3 4 1.5 10.5t12.5 11t16 5t11 -6.5l38 -94q4 -8 -4 -12t-13 1z" />
    <glyph glyph-name="eacute" unicode="&#xe9;" horiz-adv-x="314" 
d="M226 261q-17 -10 -37 -15.5t-41 -10.5q-6 -32 -7 -66.5t4.5 -64t16.5 -50t29 -24.5q15 -3 35 3.5t41 25t41.5 51t36.5 80.5q3 9 10 8.5t5 -11.5q-17 -63 -44.5 -102.5t-59.5 -59.5t-65 -25t-61 1q-48 10 -74.5 41.5t-34 73t1 87t30.5 83t55.5 61t75.5 21.5
q27 -2 45.5 -14t25 -28.5t0 -34t-28.5 -30.5zM177 314q-8 -11 -14 -26t-11 -32q18 5 34.5 10t30.5 14q19 12 20.5 26t-7.5 22t-24 6.5t-29 -20.5zM167 410q-4 -5 -12 -1t-5 12l39 94q3 7 10.5 6.5t15.5 -5t12.5 -11t1.5 -10.5z" />
    <glyph glyph-name="ecircumflex" unicode="&#xea;" horiz-adv-x="314" 
d="M226 261q-17 -10 -37 -15.5t-41 -10.5q-6 -32 -7 -66.5t4.5 -64t16.5 -50t29 -24.5q15 -3 35 3.5t41 25t41.5 51t36.5 80.5q3 9 10 8.5t5 -11.5q-17 -63 -44.5 -102.5t-59.5 -59.5t-65 -25t-61 1q-48 10 -74.5 41.5t-34 73t1 87t30.5 83t55.5 61t75.5 21.5
q27 -2 45.5 -14t25 -28.5t0 -34t-28.5 -30.5zM177 314q-8 -11 -14 -26t-11 -32q18 5 34.5 10t30.5 14q19 12 20.5 26t-7.5 22t-24 6.5t-29 -20.5zM189 481l-45 -64q-5 -7 -12 -1t-4 12l44 92q1 3 7 3.5t12.5 0t12.5 -2t7 -4.5l32 -95q2 -8 -5.5 -12.5t-11.5 2.5z" />
    <glyph glyph-name="edieresis" unicode="&#xeb;" horiz-adv-x="314" 
d="M226 261q-17 -10 -37 -15.5t-41 -10.5q-6 -32 -7 -66.5t4.5 -64t16.5 -50t29 -24.5q15 -3 35 3.5t41 25t41.5 51t36.5 80.5q3 9 10 8.5t5 -11.5q-17 -63 -44.5 -102.5t-59.5 -59.5t-65 -25t-61 1q-48 10 -74.5 41.5t-34 73t1 87t30.5 83t55.5 61t75.5 21.5
q27 -2 45.5 -14t25 -28.5t0 -34t-28.5 -30.5zM177 314q-8 -11 -14 -26t-11 -32q18 5 34.5 10t30.5 14q19 12 20.5 26t-7.5 22t-24 6.5t-29 -20.5zM128 432q0 8 5 13.5t13 5.5t13 -5.5t5 -13.5q0 -7 -5 -12.5t-13 -5.5t-13 5.5t-5 12.5zM192 432q0 8 5.5 13.5t13.5 5.5
q7 0 12.5 -5.5t5.5 -13.5q0 -7 -5.5 -12.5t-12.5 -5.5q-8 0 -13.5 5.5t-5.5 12.5z" />
    <glyph glyph-name="igrave" unicode="&#xec;" horiz-adv-x="203" 
d="M35 310q4 15 19 23t32.5 9t32.5 -5.5t19 -21.5q6 -25 6.5 -55.5t-2 -61.5t-6 -60t-6 -52.5t-2 -39t6.5 -17.5q10 -4 24 9.5t28.5 37t27 54t19.5 60.5q3 9 10.5 8.5t4.5 -11.5q-7 -26 -18.5 -58.5t-28.5 -61t-39 -48.5t-49 -20q-38 0 -59.5 30t-30 76.5t-5 101.5t15.5 103
zM53 475q-3 4 1.5 10.5t12.5 11t16 5t11 -6.5l38 -94q4 -8 -4 -12t-13 1z" />
    <glyph glyph-name="iacute" unicode="&#xed;" horiz-adv-x="203" 
d="M35 310q4 15 19 23t32.5 9t32.5 -5.5t19 -21.5q6 -25 6.5 -55.5t-2 -61.5t-6 -60t-6 -52.5t-2 -39t6.5 -17.5q10 -4 24 9.5t28.5 37t27 54t19.5 60.5q3 9 10.5 8.5t4.5 -11.5q-7 -26 -18.5 -58.5t-28.5 -61t-39 -48.5t-49 -20q-38 0 -59.5 30t-30 76.5t-5 101.5t15.5 103
zM82 390q-4 -5 -12 -1t-5 12l39 94q3 7 10.5 6.5t15.5 -5t12.5 -11t1.5 -10.5z" />
    <glyph glyph-name="icircumflex" unicode="&#xee;" horiz-adv-x="203" 
d="M35 310q4 15 19 23t32.5 9t32.5 -5.5t19 -21.5q6 -25 6.5 -55.5t-2 -61.5t-6 -60t-6 -52.5t-2 -39t6.5 -17.5q10 -4 24 9.5t28.5 37t27 54t19.5 60.5q3 9 10.5 8.5t4.5 -11.5q-7 -26 -18.5 -58.5t-28.5 -61t-39 -48.5t-49 -20q-38 0 -59.5 30t-30 76.5t-5 101.5t15.5 103
zM97 460l-45 -64q-5 -7 -12 -1t-4 12l44 92q1 3 7 3.5t12.5 0t12.5 -2t7 -4.5l32 -95q2 -8 -5.5 -12.5t-11.5 2.5z" />
    <glyph glyph-name="idieresis" unicode="&#xef;" horiz-adv-x="203" 
d="M35 310q4 15 19 23t32.5 9t32.5 -5.5t19 -21.5q6 -25 6.5 -55.5t-2 -61.5t-6 -60t-6 -52.5t-2 -39t6.5 -17.5q10 -4 24 9.5t28.5 37t27 54t19.5 60.5q3 9 10.5 8.5t4.5 -11.5q-7 -26 -18.5 -58.5t-28.5 -61t-39 -48.5t-49 -20q-38 0 -59.5 30t-30 76.5t-5 101.5t15.5 103
zM48 432q0 8 5 13.5t13 5.5t13 -5.5t5 -13.5q0 -7 -5 -12.5t-13 -5.5t-13 5.5t-5 12.5zM112 432q0 8 5.5 13.5t13.5 5.5q7 0 12.5 -5.5t5.5 -13.5q0 -7 -5.5 -12.5t-12.5 -5.5q-8 0 -13.5 5.5t-5.5 12.5z" />
    <glyph glyph-name="eth" unicode="&#xf0;" horiz-adv-x="309" 
d="M238 413q26 -62 40 -127t6.5 -119.5t-40 -90.5t-99.5 -38q-51 -2 -80.5 23t-40 61t-3.5 75t31 67q18 22 46.5 31t59.5 11l-18 71l-43 -16q-11 -2 -13.5 6.5t5.5 10.5l46 17q-16 54 -30 95.5t-19 55.5q-2 6 6 11.5t19 8.5t22.5 3t15.5 -5q21 -26 42 -60t39 -73l53 20
q11 4 15.5 -3t-4.5 -14zM144 67q18 3 26.5 23t9.5 51t-4.5 69.5t-14.5 79.5q-18 0 -33.5 -5t-24.5 -18q-8 -12 -12.5 -32.5t-5 -44t3.5 -46.5t11 -41.5t18 -28.5t26 -7z" />
    <glyph glyph-name="ntilde" unicode="&#xf1;" horiz-adv-x="443" 
d="M53 351q2 10 15.5 13.5t29 2t29 -8t16.5 -17.5q7 -26 7 -60t-2 -70q17 60 45 92.5t80 26.5q36 -4 59 -19t36.5 -37.5t18.5 -50t4 -56.5q-1 -31 -6 -59t-9 -50.5t-5 -37.5t5 -18q10 -6 22.5 5.5t25.5 37t26 62.5t24 83q2 10 9.5 8.5t5.5 -11.5q-3 -13 -8.5 -36t-14 -49
t-20 -52t-27 -45.5t-35 -28.5t-43.5 -2q-26 8 -40 28t-19 47.5t-4.5 59t3.5 62.5q2 26 3.5 50.5t-0.5 43t-10.5 30.5t-26.5 14q-20 2 -34 -14t-24.5 -43t-18.5 -61t-14.5 -68t-13 -64t-14.5 -48q-5 -12 -17.5 -17t-27 -4.5t-27 6.5t-18.5 16q-12 20 -15 58.5t0 85.5t11 98.5
t19 96.5zM191 414q-1 -5 -4.5 -5.5t-6.5 1t-5.5 5.5t-0.5 9q3 8 7.5 18t11 18.5t15 14t20.5 5.5q13 0 22 -9t15 -20t9.5 -20.5t4.5 -11.5q1 -4 4.5 -2.5t7.5 5.5t8 9t7 10q5 10 11.5 4.5t3.5 -13.5q-9 -19 -22 -31t-23 -12q-14 0 -23.5 9.5t-16.5 21t-11 21.5t-8 12
t-8.5 -2.5t-8 -11.5t-6 -14.5z" />
    <glyph glyph-name="ograve" unicode="&#xf2;" 
d="M23 197q7 36 28 67t51 49.5t67 22t76 -15.5q41 -20 52.5 -65t2.5 -108q-3 -17 -9 -34q24 6 44.5 25t31.5 52q3 9 10.5 8.5t4.5 -11.5q-15 -45 -42 -66.5t-56 -26.5q-20 -46 -61.5 -74t-98.5 -17q-38 7 -60.5 26.5t-34 46t-12 58t5.5 63.5zM175 267q-13 -23 -12 -49.5
t13 -49.5t33 -39t49 -19q3 8 5.5 17t4.5 19q4 24 6 47.5t0 43t-9 34t-19 22.5q-19 11 -39.5 2t-31.5 -28zM251 93q-24 2 -43.5 13t-33.5 28t-22 38.5t-8 45.5q-7 -17 -14 -47.5t-7.5 -61t9.5 -55.5t37 -29q25 -4 46.5 16t35.5 52zM163 464q-3 4 1.5 10.5t12.5 11t16 5
t11 -6.5l38 -94q4 -8 -4 -12t-13 1z" />
    <glyph glyph-name="oacute" unicode="&#xf3;" 
d="M23 197q7 36 28 67t51 49.5t67 22t76 -15.5q41 -20 52.5 -65t2.5 -108q-3 -17 -9 -34q24 6 44.5 25t31.5 52q3 9 10.5 8.5t4.5 -11.5q-15 -45 -42 -66.5t-56 -26.5q-20 -46 -61.5 -74t-98.5 -17q-38 7 -60.5 26.5t-34 46t-12 58t5.5 63.5zM175 267q-13 -23 -12 -49.5
t13 -49.5t33 -39t49 -19q3 8 5.5 17t4.5 19q4 24 6 47.5t0 43t-9 34t-19 22.5q-19 11 -39.5 2t-31.5 -28zM251 93q-24 2 -43.5 13t-33.5 28t-22 38.5t-8 45.5q-7 -17 -14 -47.5t-7.5 -61t9.5 -55.5t37 -29q25 -4 46.5 16t35.5 52zM175 379q-4 -5 -12 -1t-5 12l39 94
q3 7 10.5 6.5t15.5 -5t12.5 -11t1.5 -10.5z" />
    <glyph glyph-name="ocircumflex" unicode="&#xf4;" 
d="M23 197q7 36 28 67t51 49.5t67 22t76 -15.5q41 -20 52.5 -65t2.5 -108q-3 -17 -9 -34q24 6 44.5 25t31.5 52q3 9 10.5 8.5t4.5 -11.5q-15 -45 -42 -66.5t-56 -26.5q-20 -46 -61.5 -74t-98.5 -17q-38 7 -60.5 26.5t-34 46t-12 58t5.5 63.5zM175 267q-13 -23 -12 -49.5
t13 -49.5t33 -39t49 -19q3 8 5.5 17t4.5 19q4 24 6 47.5t0 43t-9 34t-19 22.5q-19 11 -39.5 2t-31.5 -28zM251 93q-24 2 -43.5 13t-33.5 28t-22 38.5t-8 45.5q-7 -17 -14 -47.5t-7.5 -61t9.5 -55.5t37 -29q25 -4 46.5 16t35.5 52zM192 448l-45 -64q-5 -7 -12 -1t-4 12l44 92
q1 3 7 3.5t12.5 0t12.5 -2t7 -4.5l32 -95q2 -8 -5.5 -12.5t-11.5 2.5z" />
    <glyph glyph-name="otilde" unicode="&#xf5;" 
d="M23 197q7 36 28 67t51 49.5t67 22t76 -15.5q41 -20 52.5 -65t2.5 -108q-3 -17 -9 -34q24 6 44.5 25t31.5 52q3 9 10.5 8.5t4.5 -11.5q-15 -45 -42 -66.5t-56 -26.5q-20 -46 -61.5 -74t-98.5 -17q-38 7 -60.5 26.5t-34 46t-12 58t5.5 63.5zM175 267q-13 -23 -12 -49.5
t13 -49.5t33 -39t49 -19q3 8 5.5 17t4.5 19q4 24 6 47.5t0 43t-9 34t-19 22.5q-19 11 -39.5 2t-31.5 -28zM251 93q-24 2 -43.5 13t-33.5 28t-22 38.5t-8 45.5q-7 -17 -14 -47.5t-7.5 -61t9.5 -55.5t37 -29q25 -4 46.5 16t35.5 52zM150 392q-1 -5 -4.5 -5.5t-6.5 1t-5.5 5.5
t-0.5 9q3 8 7.5 18t11 18.5t15 14t20.5 5.5q13 0 22 -9t15 -20t9.5 -20.5t4.5 -11.5q1 -4 4.5 -2.5t7.5 5.5t8 9t7 10q5 10 11.5 4.5t3.5 -13.5q-9 -19 -22 -31t-23 -12q-14 0 -23.5 9.5t-16.5 21t-11 21.5t-8 12t-8.5 -2.5t-8 -11.5t-6 -14.5z" />
    <glyph glyph-name="odieresis" unicode="&#xf6;" 
d="M23 197q7 36 28 67t51 49.5t67 22t76 -15.5q41 -20 52.5 -65t2.5 -108q-3 -17 -9 -34q24 6 44.5 25t31.5 52q3 9 10.5 8.5t4.5 -11.5q-15 -45 -42 -66.5t-56 -26.5q-20 -46 -61.5 -74t-98.5 -17q-38 7 -60.5 26.5t-34 46t-12 58t5.5 63.5zM175 267q-13 -23 -12 -49.5
t13 -49.5t33 -39t49 -19q3 8 5.5 17t4.5 19q4 24 6 47.5t0 43t-9 34t-19 22.5q-19 11 -39.5 2t-31.5 -28zM251 93q-24 2 -43.5 13t-33.5 28t-22 38.5t-8 45.5q-7 -17 -14 -47.5t-7.5 -61t9.5 -55.5t37 -29q25 -4 46.5 16t35.5 52zM150 421q0 8 5 13.5t13 5.5t13 -5.5
t5 -13.5q0 -7 -5 -12.5t-13 -5.5t-13 5.5t-5 12.5zM214 421q0 8 5.5 13.5t13.5 5.5q7 0 12.5 -5.5t5.5 -13.5q0 -7 -5.5 -12.5t-12.5 -5.5q-8 0 -13.5 5.5t-5.5 12.5z" />
    <glyph glyph-name="divide" unicode="&#xf7;" horiz-adv-x="246" 
d="M117 371q0 5 4.5 9.5t9.5 4.5q6 0 10 -4.5t4 -9.5q0 -14 -14 -14q-5 0 -9.5 4t-4.5 10zM111 225q0 5 4 9.5t10 4.5q5 0 9.5 -4.5t4.5 -9.5q0 -6 -4.5 -10t-9.5 -4q-14 0 -14 14zM27 289q-7 0 -6 10t7 10h187q8 0 9.5 -10t-6.5 -11z" />
    <glyph glyph-name="oslash" unicode="&#xf8;" 
d="M23 197q7 36 28 67t51 49.5t67 22t76 -15.5l1 -1l24 66q3 10 12 6t6 -14l-25 -68q29 -23 37 -65t0 -97q-3 -17 -9 -34q24 6 44.5 25t31.5 52q3 9 10.5 8.5t4.5 -11.5q-15 -45 -42 -66.5t-56 -26.5q-9 -20 -22.5 -37.5t-30.5 -30.5t-37.5 -20t-44.5 -6l-20 -54
q-2 -5 -6 -6.5t-8 0t-6 5t0 8.5l18 49q-1 0 -1.5 0.5t-1.5 0.5q-38 7 -60.5 26.5t-34 46t-12 58t5.5 63.5zM198 133q25 -20 60 -23q3 8 5.5 17t4.5 19q8 45 6.5 83t-20.5 57zM170 267q-13 -25 -10.5 -58.5t22.5 -59.5l55 148q-17 5 -34.5 -3.5t-32.5 -26.5zM139 218
q-6 -14 -12 -39t-8.5 -52t2 -51.5t19.5 -38.5l35 92q-18 19 -26.5 42.5t-9.5 46.5zM251 93q-32 3 -60 22l-32 -88q6 -2 10 -2q25 -2 46.5 17t35.5 51z" />
    <glyph glyph-name="ugrave" unicode="&#xf9;" horiz-adv-x="415" 
d="M56 332q3 10 15 15.5t25.5 7t25 -1.5t13.5 -10q7 -25 5.5 -57t-6.5 -66.5t-11.5 -68t-9.5 -60.5t-0.5 -45t14.5 -21q11 -3 23 13t24.5 44t24.5 64t22.5 72.5t19.5 69.5l15 55q3 10 18.5 16t34 6t33.5 -5.5t17 -18.5q3 -21 0 -51.5t-8.5 -63.5t-10.5 -66t-6.5 -60t2.5 -46
t17 -23q9 -3 22 10.5t26.5 36.5t25.5 52.5t19 59.5q2 10 9.5 8.5t5.5 -11.5q-6 -27 -16.5 -60t-27 -61.5t-39 -47.5t-50.5 -18t-46.5 12.5t-30.5 30.5t-17.5 43.5t-6.5 52.5q-12 -36 -25.5 -64.5t-29.5 -48t-35.5 -27.5t-42.5 -3q-27 6 -43 25.5t-23.5 47.5t-7 62t5 69.5
t13 69.5t17.5 62zM149 475q-3 4 1.5 10.5t12.5 11t16 5t11 -6.5l38 -94q4 -8 -4 -12t-13 1z" />
    <glyph glyph-name="uacute" unicode="&#xfa;" horiz-adv-x="415" 
d="M56 332q3 10 15 15.5t25.5 7t25 -1.5t13.5 -10q7 -25 5.5 -57t-6.5 -66.5t-11.5 -68t-9.5 -60.5t-0.5 -45t14.5 -21q11 -3 23 13t24.5 44t24.5 64t22.5 72.5t19.5 69.5l15 55q3 10 18.5 16t34 6t33.5 -5.5t17 -18.5q3 -21 0 -51.5t-8.5 -63.5t-10.5 -66t-6.5 -60t2.5 -46
t17 -23q9 -3 22 10.5t26.5 36.5t25.5 52.5t19 59.5q2 10 9.5 8.5t5.5 -11.5q-6 -27 -16.5 -60t-27 -61.5t-39 -47.5t-50.5 -18t-46.5 12.5t-30.5 30.5t-17.5 43.5t-6.5 52.5q-12 -36 -25.5 -64.5t-29.5 -48t-35.5 -27.5t-42.5 -3q-27 6 -43 25.5t-23.5 47.5t-7 62t5 69.5
t13 69.5t17.5 62zM199 390q-4 -5 -12 -1t-5 12l39 94q3 7 10.5 6.5t15.5 -5t12.5 -11t1.5 -10.5z" />
    <glyph glyph-name="ucircumflex" unicode="&#xfb;" horiz-adv-x="415" 
d="M56 332q3 10 15 15.5t25.5 7t25 -1.5t13.5 -10q7 -25 5.5 -57t-6.5 -66.5t-11.5 -68t-9.5 -60.5t-0.5 -45t14.5 -21q11 -3 23 13t24.5 44t24.5 64t22.5 72.5t19.5 69.5l15 55q3 10 18.5 16t34 6t33.5 -5.5t17 -18.5q3 -21 0 -51.5t-8.5 -63.5t-10.5 -66t-6.5 -60t2.5 -46
t17 -23q9 -3 22 10.5t26.5 36.5t25.5 52.5t19 59.5q2 10 9.5 8.5t5.5 -11.5q-6 -27 -16.5 -60t-27 -61.5t-39 -47.5t-50.5 -18t-46.5 12.5t-30.5 30.5t-17.5 43.5t-6.5 52.5q-12 -36 -25.5 -64.5t-29.5 -48t-35.5 -27.5t-42.5 -3q-27 6 -43 25.5t-23.5 47.5t-7 62t5 69.5
t13 69.5t17.5 62zM211 470l-45 -64q-5 -7 -12 -1t-4 12l44 92q1 3 7 3.5t12.5 0t12.5 -2t7 -4.5l32 -95q2 -8 -5.5 -12.5t-11.5 2.5z" />
    <glyph glyph-name="udieresis" unicode="&#xfc;" horiz-adv-x="415" 
d="M56 332q3 10 15 15.5t25.5 7t25 -1.5t13.5 -10q7 -25 5.5 -57t-6.5 -66.5t-11.5 -68t-9.5 -60.5t-0.5 -45t14.5 -21q11 -3 23 13t24.5 44t24.5 64t22.5 72.5t19.5 69.5l15 55q3 10 18.5 16t34 6t33.5 -5.5t17 -18.5q3 -21 0 -51.5t-8.5 -63.5t-10.5 -66t-6.5 -60t2.5 -46
t17 -23q9 -3 22 10.5t26.5 36.5t25.5 52.5t19 59.5q2 10 9.5 8.5t5.5 -11.5q-6 -27 -16.5 -60t-27 -61.5t-39 -47.5t-50.5 -18t-46.5 12.5t-30.5 30.5t-17.5 43.5t-6.5 52.5q-12 -36 -25.5 -64.5t-29.5 -48t-35.5 -27.5t-42.5 -3q-27 6 -43 25.5t-23.5 47.5t-7 62t5 69.5
t13 69.5t17.5 62zM157 432q0 8 5 13.5t13 5.5t13 -5.5t5 -13.5q0 -7 -5 -12.5t-13 -5.5t-13 5.5t-5 12.5zM221 432q0 8 5.5 13.5t13.5 5.5q7 0 12.5 -5.5t5.5 -13.5q0 -7 -5.5 -12.5t-12.5 -5.5q-8 0 -13.5 5.5t-5.5 12.5z" />
    <glyph glyph-name="yacute" unicode="&#xfd;" horiz-adv-x="421" 
d="M372 318q3 -27 0.5 -60.5t-9 -70t-16.5 -75t-22 -75.5q44 35 80 73t48 80q3 11 10 9t5 -12q-4 -23 -18.5 -46.5t-36 -46.5t-47.5 -45t-53 -43q-19 -52 -41 -94.5t-45 -65.5q-15 -15 -35.5 -16.5t-35.5 7.5t-20 25.5t11 36.5q8 11 21.5 22t30.5 24q5 31 10.5 67.5
t10.5 74.5q-17 -34 -39.5 -55t-54.5 -19q-38 2 -62 27.5t-34.5 66t-7 90.5t20.5 101q4 10 21.5 17t37 8t35 -4t14.5 -18q-2 -41 -10 -85.5t-13 -82t-4 -64t16 -30.5q15 -5 28 8t23.5 37t19.5 55.5t17.5 64t17 63t18.5 52.5q7 15 24 21t35.5 5.5t33 -8t15.5 -19.5zM183 -129
l5 20t6 26q-11 -9 -19.5 -17t-13.5 -15t-3.5 -13.5t6 -10t10.5 -2t9 11.5zM204 379q-4 -5 -12 -1t-5 12l39 94q3 7 10.5 6.5t15.5 -5t12.5 -11t1.5 -10.5z" />
    <glyph glyph-name="thorn" unicode="&#xfe;" horiz-adv-x="360" 
d="M63 543q1 7 14 9.5t28 1.5t27 -5.5t12 -11.5q-2 -62 -3.5 -129t-3.5 -134q12 37 33 57t57 21q43 0 69 -26t36.5 -65.5t5 -84.5t-26.5 -81.5t-57 -58.5t-87 -14q-23 3 -35 14q-2 -53 -4.5 -100t-8.5 -78q-1 -8 -17.5 -12t-36 -4t-36 4.5t-16.5 13.5q-2 49 0 108.5
t5.5 123.5t9 129t12 124.5t12.5 110.5t11 87zM216 329q-24 0 -39 -22.5t-24 -59.5t-13 -83.5t-6 -95.5q13 -21 34 -24q19 -3 34.5 16.5t26.5 51.5t16 69.5t4 70.5t-9 55t-24 22z" />
    <glyph glyph-name="ydieresis" unicode="&#xff;" horiz-adv-x="421" 
d="M372 318q3 -27 0.5 -60.5t-9 -70t-16.5 -75t-22 -75.5q44 35 80 73t48 80q3 11 10 9t5 -12q-4 -23 -18.5 -46.5t-36 -46.5t-47.5 -45t-53 -43q-19 -52 -41 -94.5t-45 -65.5q-15 -15 -35.5 -16.5t-35.5 7.5t-20 25.5t11 36.5q8 11 21.5 22t30.5 24q5 31 10.5 67.5
t10.5 74.5q-17 -34 -39.5 -55t-54.5 -19q-38 2 -62 27.5t-34.5 66t-7 90.5t20.5 101q4 10 21.5 17t37 8t35 -4t14.5 -18q-2 -41 -10 -85.5t-13 -82t-4 -64t16 -30.5q15 -5 28 8t23.5 37t19.5 55.5t17.5 64t17 63t18.5 52.5q7 15 24 21t35.5 5.5t33 -8t15.5 -19.5zM183 -129
l5 20t6 26q-11 -9 -19.5 -17t-13.5 -15t-3.5 -13.5t6 -10t10.5 -2t9 11.5zM155 430q0 8 5 13.5t13 5.5t13 -5.5t5 -13.5q0 -7 -5 -12.5t-13 -5.5t-13 5.5t-5 12.5zM219 430q0 8 5.5 13.5t13.5 5.5q7 0 12.5 -5.5t5.5 -13.5q0 -7 -5.5 -12.5t-12.5 -5.5q-8 0 -13.5 5.5
t-5.5 12.5z" />
    <glyph glyph-name="Amacron" unicode="&#x100;" horiz-adv-x="472" 
d="M76 14q-3 -9 -14.5 -13t-24 -4t-21.5 5t-7 15q1 8 3 37.5t6.5 71.5t11.5 92.5t20 101.5t32 98.5t46 83t63.5 55t83.5 14.5q39 -4 65.5 -24.5t42.5 -52t23.5 -72t8.5 -84.5h18q8 -2 8 -12t-9 -10h-17q0 -57 -6.5 -114t-13.5 -102t-10.5 -73t1.5 -28q12 1 11.5 -7.5
t-9.5 -8.5q-49 0 -73 30t-32.5 77.5t-6.5 106.5t7 117q-45 -2 -87.5 -6.5t-86.5 -12.5q-7 -47 -11.5 -92.5t-8 -84t-6.5 -66.5t-7 -38zM244 545q-28 4 -49 -13t-37 -49t-27 -74.5t-18 -89.5q43 8 85.5 11.5t86.5 5.5q3 40 4.5 77t-2.5 65t-14 46t-29 21zM204 639
q-11 0 -11.5 11t11.5 11h129q11 0 11 -11t-11 -11h-129v0z" />
    <glyph glyph-name="amacron" unicode="&#x101;" horiz-adv-x="434" 
d="M378 344q4 -25 2.5 -58t-5.5 -68.5t-8.5 -70.5t-6.5 -63t0.5 -46t12.5 -20q12 -2 26.5 17.5t28 47.5t24 58t14.5 49q1 4 3.5 5.5t5.5 1t5 -3t1 -6.5q-5 -25 -16.5 -60.5t-29 -68.5t-41 -56t-53.5 -21q-42 2 -66 39t-29 98q-17 -53 -41.5 -88t-62.5 -33q-50 2 -79.5 30
t-40.5 68.5t-3.5 86.5t30.5 83t60.5 59t88.5 15q39 -6 67 -34q2 11 5 21t6 21q3 8 18 14t33 7t33.5 -4t17.5 -20zM161 29q12 -3 22.5 8t20 31t18 47.5t15.5 56.5t12.5 58t9.5 53q-14 21 -35 22q-20 1 -36 -17.5t-27.5 -48t-18 -64.5t-7 -66t5.5 -53.5t20 -26.5zM153 421
q-11 0 -11.5 11t11.5 11h129q11 0 11 -11t-11 -11h-129v0z" />
    <glyph glyph-name="Abreve" unicode="&#x102;" horiz-adv-x="472" 
d="M76 14q-3 -9 -14.5 -13t-24 -4t-21.5 5t-7 15q1 8 3 37.5t6.5 71.5t11.5 92.5t20 101.5t32 98.5t46 83t63.5 55t83.5 14.5q39 -4 65.5 -24.5t42.5 -52t23.5 -72t8.5 -84.5h18q8 -2 8 -12t-9 -10h-17q0 -57 -6.5 -114t-13.5 -102t-10.5 -73t1.5 -28q12 1 11.5 -7.5
t-9.5 -8.5q-49 0 -73 30t-32.5 77.5t-6.5 106.5t7 117q-45 -2 -87.5 -6.5t-86.5 -12.5q-7 -47 -11.5 -92.5t-8 -84t-6.5 -66.5t-7 -38zM244 545q-28 4 -49 -13t-37 -49t-27 -74.5t-18 -89.5q43 8 85.5 11.5t86.5 5.5q3 40 4.5 77t-2.5 65t-14 46t-29 21zM283 670q0 4 4.5 6
t10.5 2t10.5 -2t4.5 -6q0 -26 -14 -40t-31 -14q-18 0 -31.5 14t-13.5 40q0 4 4.5 6t10.5 2t10.5 -2t4.5 -6q0 -38 15 -38t15 38z" />
    <glyph glyph-name="abreve" unicode="&#x103;" horiz-adv-x="434" 
d="M378 344q4 -25 2.5 -58t-5.5 -68.5t-8.5 -70.5t-6.5 -63t0.5 -46t12.5 -20q12 -2 26.5 17.5t28 47.5t24 58t14.5 49q1 4 3.5 5.5t5.5 1t5 -3t1 -6.5q-5 -25 -16.5 -60.5t-29 -68.5t-41 -56t-53.5 -21q-42 2 -66 39t-29 98q-17 -53 -41.5 -88t-62.5 -33q-50 2 -79.5 30
t-40.5 68.5t-3.5 86.5t30.5 83t60.5 59t88.5 15q39 -6 67 -34q2 11 5 21t6 21q3 8 18 14t33 7t33.5 -4t17.5 -20zM161 29q12 -3 22.5 8t20 31t18 47.5t15.5 56.5t12.5 58t9.5 53q-14 21 -35 22q-20 1 -36 -17.5t-27.5 -48t-18 -64.5t-7 -66t5.5 -53.5t20 -26.5zM233 441
q0 4 4.5 6t10.5 2t10.5 -2t4.5 -6q0 -26 -14 -40t-31 -14q-18 0 -31.5 14t-13.5 40q0 4 4.5 6t10.5 2t10.5 -2t4.5 -6q0 -38 15 -38t15 38z" />
    <glyph glyph-name="Aogonek" unicode="&#x104;" horiz-adv-x="472" 
d="M402 -71q7 8 14 1t1 -15q-8 -10 -19 -18t-23.5 -11.5t-24.5 -1.5t-21 12q-12 15 -5 40t40 50q-39 7 -58.5 39t-25.5 78t-3.5 101.5t6.5 109.5q-45 -2 -87.5 -6.5t-86.5 -12.5q-7 -47 -11.5 -92.5t-8 -84t-6.5 -66.5t-7 -38q-3 -9 -14.5 -13t-24 -4t-21.5 5t-7 15
q1 8 3 37.5t6.5 71.5t11.5 92.5t20 101.5t32 98.5t46 83t63.5 55t83.5 14.5q39 -4 65.5 -24.5t42.5 -52t23.5 -72t8.5 -84.5h18q8 -2 8 -12t-9 -10h-17q0 -57 -6.5 -114t-13.5 -102t-10.5 -73t1.5 -28q8 2 12 -5t-1 -10q-26 -15 -35.5 -35.5t1.5 -33.5q5 -6 16.5 -3t22.5 17
zM244 545q-28 4 -49 -13t-37 -49t-27 -74.5t-18 -89.5q43 8 85.5 11.5t86.5 5.5q3 40 4.5 77t-2.5 65t-14 46t-29 21z" />
    <glyph glyph-name="aogonek" unicode="&#x105;" horiz-adv-x="434" 
d="M388 -62q7 8 14 1t1 -15q-8 -10 -19 -18t-23.5 -11.5t-24.5 -1.5t-21 12q-11 13 -7 34t27 43q-39 4 -61.5 40.5t-27.5 95.5q-17 -53 -41.5 -88t-62.5 -33q-50 2 -79.5 30t-40.5 68.5t-3.5 86.5t30.5 83t60.5 59t88.5 15q39 -6 67 -34q2 11 5 21t6 21q3 8 18 14t33 7
t33.5 -4t17.5 -20q4 -25 2.5 -58t-5.5 -68.5t-8.5 -70.5t-6.5 -63t0.5 -46t12.5 -20q12 -2 26.5 17.5t28 47.5t24 58t14.5 49q1 4 3.5 5.5t5.5 1t5 -3t1 -6.5q-4 -20 -11.5 -47t-19.5 -54.5t-28 -52t-37 -37.5q-3 -2 -12 -10t-17 -18.5t-11.5 -22.5t4.5 -21q5 -6 16.5 -3
t22.5 17zM161 29q12 -3 22.5 8t20 31t18 47.5t15.5 56.5t12.5 58t9.5 53q-14 21 -35 22q-20 1 -36 -17.5t-27.5 -48t-18 -64.5t-7 -66t5.5 -53.5t20 -26.5z" />
    <glyph glyph-name="Cacute" unicode="&#x106;" horiz-adv-x="411" 
d="M342 402q-3 -8 -13 -5t-8 11q6 19 9 44.5t0 49.5t-12.5 41.5t-27.5 20.5q-17 3 -33 -8.5t-30.5 -33t-27 -49.5t-22 -58.5t-16.5 -60.5t-10 -54q-7 -49 -10.5 -97t0.5 -87t18 -65.5t44 -32.5q28 -6 54 11.5t48 46.5t39 64t26 65q3 10 12 9.5t6 -13.5q-6 -28 -22.5 -66.5
t-42 -71.5t-61 -53.5t-78.5 -13.5q-51 8 -85 39.5t-53 77.5t-23 101t5 111t30.5 107t54 88.5t74.5 56.5t93 11q36 -6 52 -30t20 -53.5t0 -58.5t-10 -44zM267 641q-4 -5 -12 -1t-5 12l39 94q3 7 10.5 6.5t15.5 -5t12.5 -11t1.5 -10.5z" />
    <glyph glyph-name="cacute" unicode="&#x107;" horiz-adv-x="332" 
d="M281 253q-3 -11 -13 -9.5t-8 12.5q7 35 -3 59t-39 26q-22 1 -39 -22.5t-27.5 -59.5t-13.5 -78.5t3.5 -79.5t23.5 -62.5t46 -27.5q25 -2 48.5 13t43.5 40.5t35.5 58.5t24.5 67q3 9 10.5 8.5t4.5 -11.5q-9 -39 -26.5 -77.5t-43.5 -68t-61.5 -46.5t-80.5 -14
q-58 4 -92.5 35.5t-47.5 76t-6.5 94.5t28.5 92.5t58.5 69t84.5 24.5q31 -2 50 -14t29.5 -30t12.5 -38.5t-2 -37.5zM184 422q-4 -5 -12 -1t-5 12l39 94q3 7 10.5 6.5t15.5 -5t12.5 -11t1.5 -10.5z" />
    <glyph glyph-name="Ccircumflex" unicode="&#x108;" horiz-adv-x="411" 
d="M342 402q-3 -8 -13 -5t-8 11q6 19 9 44.5t0 49.5t-12.5 41.5t-27.5 20.5q-17 3 -33 -8.5t-30.5 -33t-27 -49.5t-22 -58.5t-16.5 -60.5t-10 -54q-7 -49 -10.5 -97t0.5 -87t18 -65.5t44 -32.5q28 -6 54 11.5t48 46.5t39 64t26 65q3 10 12 9.5t6 -13.5q-6 -28 -22.5 -66.5
t-42 -71.5t-61 -53.5t-78.5 -13.5q-51 8 -85 39.5t-53 77.5t-23 101t5 111t30.5 107t54 88.5t74.5 56.5t93 11q36 -6 52 -30t20 -53.5t0 -58.5t-10 -44zM268 710l-45 -64q-5 -7 -12 -1t-4 12l44 92q1 3 7 3.5t12.5 0t12.5 -2t7 -4.5l32 -95q2 -8 -5.5 -12.5t-11.5 2.5z" />
    <glyph glyph-name="ccircumflex" unicode="&#x109;" horiz-adv-x="332" 
d="M281 253q-3 -11 -13 -9.5t-8 12.5q7 35 -3 59t-39 26q-22 1 -39 -22.5t-27.5 -59.5t-13.5 -78.5t3.5 -79.5t23.5 -62.5t46 -27.5q25 -2 48.5 13t43.5 40.5t35.5 58.5t24.5 67q3 9 10.5 8.5t4.5 -11.5q-9 -39 -26.5 -77.5t-43.5 -68t-61.5 -46.5t-80.5 -14
q-58 4 -92.5 35.5t-47.5 76t-6.5 94.5t28.5 92.5t58.5 69t84.5 24.5q31 -2 50 -14t29.5 -30t12.5 -38.5t-2 -37.5zM204 491l-45 -64q-5 -7 -12 -1t-4 12l44 92q1 3 7 3.5t12.5 0t12.5 -2t7 -4.5l32 -95q2 -8 -5.5 -12.5t-11.5 2.5z" />
    <glyph glyph-name="Cdotaccent" unicode="&#x10a;" horiz-adv-x="411" 
d="M342 402q-3 -8 -13 -5t-8 11q6 19 9 44.5t0 49.5t-12.5 41.5t-27.5 20.5q-17 3 -33 -8.5t-30.5 -33t-27 -49.5t-22 -58.5t-16.5 -60.5t-10 -54q-7 -49 -10.5 -97t0.5 -87t18 -65.5t44 -32.5q28 -6 54 11.5t48 46.5t39 64t26 65q3 10 12 9.5t6 -13.5q-6 -28 -22.5 -66.5
t-42 -71.5t-61 -53.5t-78.5 -13.5q-51 8 -85 39.5t-53 77.5t-23 101t5 111t30.5 107t54 88.5t74.5 56.5t93 11q36 -6 52 -30t20 -53.5t0 -58.5t-10 -44zM254 672q0 8 5 13.5t13 5.5t13 -5.5t5 -13.5q0 -7 -5 -12.5t-13 -5.5t-13 5.5t-5 12.5z" />
    <glyph glyph-name="cdotaccent" unicode="&#x10b;" horiz-adv-x="332" 
d="M281 253q-3 -11 -13 -9.5t-8 12.5q7 35 -3 59t-39 26q-22 1 -39 -22.5t-27.5 -59.5t-13.5 -78.5t3.5 -79.5t23.5 -62.5t46 -27.5q25 -2 48.5 13t43.5 40.5t35.5 58.5t24.5 67q3 9 10.5 8.5t4.5 -11.5q-9 -39 -26.5 -77.5t-43.5 -68t-61.5 -46.5t-80.5 -14
q-58 4 -92.5 35.5t-47.5 76t-6.5 94.5t28.5 92.5t58.5 69t84.5 24.5q31 -2 50 -14t29.5 -30t12.5 -38.5t-2 -37.5zM199 452q0 8 5 13.5t13 5.5t13 -5.5t5 -13.5q0 -7 -5 -12.5t-13 -5.5t-13 5.5t-5 12.5z" />
    <glyph glyph-name="Ccaron" unicode="&#x10c;" horiz-adv-x="411" 
d="M342 402q-3 -8 -13 -5t-8 11q6 19 9 44.5t0 49.5t-12.5 41.5t-27.5 20.5q-17 3 -33 -8.5t-30.5 -33t-27 -49.5t-22 -58.5t-16.5 -60.5t-10 -54q-7 -49 -10.5 -97t0.5 -87t18 -65.5t44 -32.5q28 -6 54 11.5t48 46.5t39 64t26 65q3 10 12 9.5t6 -13.5q-6 -28 -22.5 -66.5
t-42 -71.5t-61 -53.5t-78.5 -13.5q-51 8 -85 39.5t-53 77.5t-23 101t5 111t30.5 107t54 88.5t74.5 56.5t93 11q36 -6 52 -30t20 -53.5t0 -58.5t-10 -44zM265 677l45 64q5 7 12 1t4 -13l-44 -91q-2 -3 -8 -3.5t-12.5 0t-12 2t-6.5 4.5l-32 95q-2 8 5.5 12.5t11.5 -2.5z" />
    <glyph glyph-name="ccaron" unicode="&#x10d;" horiz-adv-x="332" 
d="M281 253q-3 -11 -13 -9.5t-8 12.5q7 35 -3 59t-39 26q-22 1 -39 -22.5t-27.5 -59.5t-13.5 -78.5t3.5 -79.5t23.5 -62.5t46 -27.5q25 -2 48.5 13t43.5 40.5t35.5 58.5t24.5 67q3 9 10.5 8.5t4.5 -11.5q-9 -39 -26.5 -77.5t-43.5 -68t-61.5 -46.5t-80.5 -14
q-58 4 -92.5 35.5t-47.5 76t-6.5 94.5t28.5 92.5t58.5 69t84.5 24.5q31 -2 50 -14t29.5 -30t12.5 -38.5t-2 -37.5zM204 459l45 64q5 7 12 1t4 -13l-44 -91q-2 -3 -8 -3.5t-12.5 0t-12 2t-6.5 4.5l-32 95q-2 8 5.5 12.5t11.5 -2.5z" />
    <glyph glyph-name="Dcaron" unicode="&#x10e;" horiz-adv-x="453" 
d="M72 567q2 9 16 12.5t30 3t28.5 -6t12.5 -15.5q-2 -27 -3.5 -55.5t-3.5 -57.5q10 32 23 58t31 43t42 24.5t54 2.5q40 -6 67.5 -34t42.5 -69t18 -91t-4.5 -101.5t-26 -101t-46.5 -88t-65.5 -62.5t-83.5 -25q-25 -1 -48.5 7.5t-40.5 25.5q-2 -16 -3 -26t-2 -15
q-2 -10 -17.5 -15t-33.5 -4.5t-32.5 7t-14.5 18.5q2 38 5.5 88.5t8.5 106t11 112t12 107t12 90t11 61.5zM255 547q-22 4 -39.5 -23t-32 -71.5t-25 -101t-18.5 -112t-13.5 -104.5t-9.5 -78q21 -27 54 -26q25 1 46 22.5t37.5 57t28 80.5t18 92.5t7.5 93.5t-4.5 82.5
t-17.5 60.5t-31 27zM285 655l45 64q5 7 12 1t4 -13l-44 -91q-2 -3 -8 -3.5t-12.5 0t-12 2t-6.5 4.5l-32 95q-2 8 5.5 12.5t11.5 -2.5z" />
    <glyph glyph-name="dcaron" unicode="&#x10f;" horiz-adv-x="463" 
d="M178 305q13 -5 22 -14q3 60 13.5 117t28.5 100.5t43.5 68t59.5 18.5q23 -4 29.5 -29t1 -64t-20 -87t-33.5 -99q-1 -38 -2.5 -77.5t-3 -77.5t-4 -73.5t-6.5 -65.5q-1 -10 -9 -16.5t-18 -9t-20 -1.5t-14 7q-11 14 -19.5 37t-14.5 52q-32 -42 -67.5 -60t-74.5 2
q-30 16 -43 46t-12.5 64t13.5 68.5t35 59t51.5 35.5t64.5 -1zM126 52q15 -5 35.5 16t43.5 57q-4 30 -6 62.5t-1 67.5q-6 31 -26 33q-14 1 -25.5 -15.5t-20 -42t-13.5 -55.5t-5.5 -56.5t4 -45t14.5 -21.5zM345 569q-5 0 -8.5 -13t-5.5 -37t-3.5 -56.5t-2.5 -70.5
q12 36 19.5 67.5t10.5 55.5t1 38.5t-11 15.5zM399 378q-9 9 -10 18.5t4 16.5t13.5 9.5t18.5 -1.5q10 -5 14 -14.5t1.5 -22t-12 -26t-26.5 -25.5q-6 -5 -12.5 1.5t0.5 12.5q13 11 13.5 18t-4.5 13z" />
    <glyph glyph-name="Dcroat" unicode="&#x110;" horiz-adv-x="453" 
d="M72 567q2 9 16 12.5t30 3t28.5 -6t12.5 -15.5q-2 -27 -3.5 -55.5t-3.5 -57.5q10 32 23 58t31 43t42 24.5t54 2.5q40 -6 67.5 -34t42.5 -69t18 -91t-4.5 -101.5t-26 -101t-46.5 -88t-65.5 -62.5t-83.5 -25q-25 -1 -48.5 7.5t-40.5 25.5q-2 -16 -3 -26t-2 -15
q-2 -10 -17.5 -15t-33.5 -4.5t-32.5 7t-14.5 18.5q1 28 3.5 64t5.5 76.5t7 83.5t9 85h-20q-7 0 -6 10t7 10h21q8 77 16.5 141t16.5 95zM151 310q-6 -37 -11.5 -74t-9.5 -70.5t-7.5 -61.5t-5.5 -47q21 -27 54 -26q25 1 46 22.5t37.5 57t28 80.5t18 92.5t7.5 93.5t-4.5 82.5
t-17.5 60.5t-31 27q-18 3 -32.5 -14t-27 -47t-22.5 -70.5t-18 -84.5h50q8 0 9.5 -10t-6.5 -11h-57z" />
    <glyph glyph-name="dcroat" unicode="&#x111;" horiz-adv-x="389" 
d="M178 305q12 -5 20 -12q1 23 3 45t5 45l-43 -2q-6 0 -5 9.5t7 9.5l45 2q7 43 19.5 80t29.5 63.5t38.5 40t47.5 9.5q17 -3 25 -19t8 -40.5t-6.5 -56.5t-17.5 -68l38 2q8 0 9.5 -10.5t-5.5 -10.5l-49 -3l-20 -59q-1 -60 -5.5 -111t-6.5 -89t0 -61.5t13 -27.5q10 -4 24 10
t27.5 36.5t24.5 50.5t16 52q2 9 9.5 8t5.5 -11q-5 -26 -17.5 -60t-32.5 -63t-47.5 -47.5t-62.5 -13.5q-22 2 -37 27t-25 64q-32 -44 -68 -62.5t-76 1.5q-30 16 -43 46t-12.5 64t13.5 68.5t35 59t51.5 35.5t64.5 -1zM126 52q15 -5 36 16t44 59q-9 52 -9 116q-2 20 -8 32
t-17 13q-14 1 -25.5 -15.5t-20 -42t-13.5 -55.5t-5.5 -56.5t4 -45t14.5 -21.5zM345 569q-5 0 -8 -12t-4.5 -33.5t-2.5 -51t-2 -63.5h1q10 33 17 62t9 50.5t0 34t-10 13.5z" />
    <glyph glyph-name="Emacron" unicode="&#x112;" horiz-adv-x="357" 
d="M60 -2q-21 8 -30.5 49.5t-10 100t6 125.5t16.5 126.5t22 103.5t23 57q10 12 28 17t40 5t46.5 -4t47.5 -9.5t43 -11t34 -9.5q11 -3 8 -12.5t-14 -7.5q-17 3 -37.5 9t-39.5 10.5t-34 5.5t-20 -8q-7 -12 -13 -35t-11.5 -54t-9.5 -68t-7 -75q38 7 76 11.5t76 8.5
q10 -2 10.5 -10.5t-9.5 -10.5q-39 -5 -77.5 -9.5t-77.5 -11.5q-3 -46 -4.5 -89.5t-0.5 -78.5t4 -57.5t9 -26.5q11 -7 33 -2.5t46.5 13.5t47 21t35.5 20q9 6 15.5 -2.5t-3.5 -15.5q-30 -19 -67.5 -36.5t-75 -29t-71 -15t-54.5 5.5zM179 639q-11 0 -11.5 11t11.5 11h129
q11 0 11 -11t-11 -11h-129v0z" />
    <glyph glyph-name="emacron" unicode="&#x113;" horiz-adv-x="314" 
d="M226 261q-17 -10 -37 -15.5t-41 -10.5q-6 -32 -7 -66.5t4.5 -64t16.5 -50t29 -24.5q15 -3 35 3.5t41 25t41.5 51t36.5 80.5q3 9 10 8.5t5 -11.5q-17 -63 -44.5 -102.5t-59.5 -59.5t-65 -25t-61 1q-48 10 -74.5 41.5t-34 73t1 87t30.5 83t55.5 61t75.5 21.5
q27 -2 45.5 -14t25 -28.5t0 -34t-28.5 -30.5zM177 314q-8 -11 -14 -26t-11 -32q18 5 34.5 10t30.5 14q19 12 20.5 26t-7.5 22t-24 6.5t-29 -20.5zM116 422q-11 0 -11.5 11t11.5 11h129q11 0 11 -11t-11 -11h-129v0z" />
    <glyph glyph-name="Ebreve" unicode="&#x114;" horiz-adv-x="357" 
d="M60 -2q-21 8 -30.5 49.5t-10 100t6 125.5t16.5 126.5t22 103.5t23 57q10 12 28 17t40 5t46.5 -4t47.5 -9.5t43 -11t34 -9.5q11 -3 8 -12.5t-14 -7.5q-17 3 -37.5 9t-39.5 10.5t-34 5.5t-20 -8q-7 -12 -13 -35t-11.5 -54t-9.5 -68t-7 -75q38 7 76 11.5t76 8.5
q10 -2 10.5 -10.5t-9.5 -10.5q-39 -5 -77.5 -9.5t-77.5 -11.5q-3 -46 -4.5 -89.5t-0.5 -78.5t4 -57.5t9 -26.5q11 -7 33 -2.5t46.5 13.5t47 21t35.5 20q9 6 15.5 -2.5t-3.5 -15.5q-30 -19 -67.5 -36.5t-75 -29t-71 -15t-54.5 5.5zM262 660q0 4 4.5 6t10.5 2t10.5 -2t4.5 -6
q0 -26 -14 -40t-31 -14q-18 0 -31.5 14t-13.5 40q0 4 4.5 6t10.5 2t10.5 -2t4.5 -6q0 -38 15 -38t15 38z" />
    <glyph glyph-name="ebreve" unicode="&#x115;" horiz-adv-x="314" 
d="M226 261q-17 -10 -37 -15.5t-41 -10.5q-6 -32 -7 -66.5t4.5 -64t16.5 -50t29 -24.5q15 -3 35 3.5t41 25t41.5 51t36.5 80.5q3 9 10 8.5t5 -11.5q-17 -63 -44.5 -102.5t-59.5 -59.5t-65 -25t-61 1q-48 10 -74.5 41.5t-34 73t1 87t30.5 83t55.5 61t75.5 21.5
q27 -2 45.5 -14t25 -28.5t0 -34t-28.5 -30.5zM177 314q-8 -11 -14 -26t-11 -32q18 5 34.5 10t30.5 14q19 12 20.5 26t-7.5 22t-24 6.5t-29 -20.5zM192 451q0 4 4.5 6t10.5 2t10.5 -2t4.5 -6q0 -26 -14 -40t-31 -14q-18 0 -31.5 14t-13.5 40q0 4 4.5 6t10.5 2t10.5 -2t4.5 -6
q0 -38 15 -38t15 38z" />
    <glyph glyph-name="Edotaccent" unicode="&#x116;" horiz-adv-x="357" 
d="M60 -2q-21 8 -30.5 49.5t-10 100t6 125.5t16.5 126.5t22 103.5t23 57q10 12 28 17t40 5t46.5 -4t47.5 -9.5t43 -11t34 -9.5q11 -3 8 -12.5t-14 -7.5q-17 3 -37.5 9t-39.5 10.5t-34 5.5t-20 -8q-7 -12 -13 -35t-11.5 -54t-9.5 -68t-7 -75q38 7 76 11.5t76 8.5
q10 -2 10.5 -10.5t-9.5 -10.5q-39 -5 -77.5 -9.5t-77.5 -11.5q-3 -46 -4.5 -89.5t-0.5 -78.5t4 -57.5t9 -26.5q11 -7 33 -2.5t46.5 13.5t47 21t35.5 20q9 6 15.5 -2.5t-3.5 -15.5q-30 -19 -67.5 -36.5t-75 -29t-71 -15t-54.5 5.5zM214 650q0 8 5 13.5t13 5.5t13 -5.5
t5 -13.5q0 -7 -5 -12.5t-13 -5.5t-13 5.5t-5 12.5z" />
    <glyph glyph-name="edotaccent" unicode="&#x117;" horiz-adv-x="314" 
d="M226 261q-17 -10 -37 -15.5t-41 -10.5q-6 -32 -7 -66.5t4.5 -64t16.5 -50t29 -24.5q15 -3 35 3.5t41 25t41.5 51t36.5 80.5q3 9 10 8.5t5 -11.5q-17 -63 -44.5 -102.5t-59.5 -59.5t-65 -25t-61 1q-48 10 -74.5 41.5t-34 73t1 87t30.5 83t55.5 61t75.5 21.5
q27 -2 45.5 -14t25 -28.5t0 -34t-28.5 -30.5zM177 314q-8 -11 -14 -26t-11 -32q18 5 34.5 10t30.5 14q19 12 20.5 26t-7.5 22t-24 6.5t-29 -20.5zM160 432q0 8 5 13.5t13 5.5t13 -5.5t5 -13.5q0 -7 -5 -12.5t-13 -5.5t-13 5.5t-5 12.5z" />
    <glyph glyph-name="Eogonek" unicode="&#x118;" horiz-adv-x="357" 
d="M283 -10q7 8 14 1t1 -15q-8 -10 -19 -18t-23.5 -11.5t-24.5 -1.5t-21 12q-9 11 -8 27.5t15 33.5q-46 -17 -88.5 -24t-68.5 4q-21 8 -30.5 49.5t-10 100t6 125.5t16.5 126.5t22 103.5t23 57q10 12 28 17t40 5t46.5 -4t47.5 -9.5t43 -11t34 -9.5q11 -3 8 -12.5t-14 -7.5
q-17 3 -37.5 9t-39.5 10.5t-34 5.5t-20 -8q-7 -12 -13 -35t-11.5 -54t-9.5 -68t-7 -75q38 7 76 11.5t76 8.5q10 -2 10.5 -10.5t-9.5 -10.5q-39 -5 -77.5 -9.5t-77.5 -11.5q-3 -46 -4.5 -89.5t-0.5 -78.5t4 -57.5t9 -26.5q11 -7 33 -2.5t46.5 13.5t47 21t35.5 20
q9 6 15.5 -2.5t-3.5 -15.5q-11 -8 -23.5 -14.5t-26.5 -13.5q-26 -15 -35.5 -35.5t1.5 -33.5q5 -6 16.5 -3t22.5 17z" />
    <glyph glyph-name="eogonek" unicode="&#x119;" horiz-adv-x="314" 
d="M264 -28q7 8 14 1t1 -15q-8 -10 -19 -18t-23.5 -11.5t-24.5 -1.5t-21 12q-9 11 -8 27.5t15 34.5q-18 -4 -35.5 -3.5t-32.5 3.5q-48 10 -74.5 41.5t-34 73t1 87t30.5 83t55.5 61t75.5 21.5q27 -2 45.5 -14t25 -28.5t0 -34t-28.5 -30.5q-17 -10 -37 -15.5t-41 -10.5
q-6 -32 -7 -66.5t4.5 -64t16.5 -50t29 -24.5q15 -3 35 3.5t41 25t41.5 51t36.5 80.5q3 9 10 8.5t5 -11.5q-14 -48 -40 -92.5t-71 -73.5q-22 -14 -28.5 -32.5t4.5 -30.5q5 -6 16.5 -3t22.5 17zM177 314q-8 -11 -14 -26t-11 -32q18 5 34.5 10t30.5 14q19 12 20.5 26t-7.5 22
t-24 6.5t-29 -20.5z" />
    <glyph glyph-name="Ecaron" unicode="&#x11a;" horiz-adv-x="357" 
d="M60 -2q-21 8 -30.5 49.5t-10 100t6 125.5t16.5 126.5t22 103.5t23 57q10 12 28 17t40 5t46.5 -4t47.5 -9.5t43 -11t34 -9.5q11 -3 8 -12.5t-14 -7.5q-17 3 -37.5 9t-39.5 10.5t-34 5.5t-20 -8q-7 -12 -13 -35t-11.5 -54t-9.5 -68t-7 -75q38 7 76 11.5t76 8.5
q10 -2 10.5 -10.5t-9.5 -10.5q-39 -5 -77.5 -9.5t-77.5 -11.5q-3 -46 -4.5 -89.5t-0.5 -78.5t4 -57.5t9 -26.5q11 -7 33 -2.5t46.5 13.5t47 21t35.5 20q9 6 15.5 -2.5t-3.5 -15.5q-30 -19 -67.5 -36.5t-75 -29t-71 -15t-54.5 5.5zM227 655l45 64q5 7 12 1t4 -13l-44 -91
q-2 -3 -8 -3.5t-12.5 0t-12 2t-6.5 4.5l-32 95q-2 8 5.5 12.5t11.5 -2.5z" />
    <glyph glyph-name="ecaron" unicode="&#x11b;" horiz-adv-x="314" 
d="M226 261q-17 -10 -37 -15.5t-41 -10.5q-6 -32 -7 -66.5t4.5 -64t16.5 -50t29 -24.5q15 -3 35 3.5t41 25t41.5 51t36.5 80.5q3 9 10 8.5t5 -11.5q-17 -63 -44.5 -102.5t-59.5 -59.5t-65 -25t-61 1q-48 10 -74.5 41.5t-34 73t1 87t30.5 83t55.5 61t75.5 21.5
q27 -2 45.5 -14t25 -28.5t0 -34t-28.5 -30.5zM177 314q-8 -11 -14 -26t-11 -32q18 5 34.5 10t30.5 14q19 12 20.5 26t-7.5 22t-24 6.5t-29 -20.5zM190 452l45 64q5 7 12 1t4 -13l-44 -91q-2 -3 -8 -3.5t-12.5 0t-12 2t-6.5 4.5l-32 95q-2 8 5.5 12.5t11.5 -2.5z" />
    <glyph glyph-name="Gcircumflex" unicode="&#x11c;" horiz-adv-x="451" 
d="M225 305q-8 -2 -9.5 6t4.5 10q21 8 50.5 14t59.5 10t57.5 6t43.5 2q8 0 8.5 -8t-7.5 -8l-30 -3q-3 -19 -6.5 -48t-7 -62.5t-8 -68t-8 -64t-6.5 -51t-4 -28.5q-1 -8 -13.5 -12t-27 -3.5t-27 5t-12.5 13.5v20t0.5 40t2 53t3.5 61q-12 -38 -27.5 -71t-36.5 -55.5t-47 -33
t-59 -2.5q-41 9 -64 40.5t-30 75.5t-0.5 96.5t24.5 103.5t46.5 97.5t64.5 78t78 44t88 -2.5q23 -8 35 -25.5t16.5 -39.5t2.5 -43.5t-7 -36.5q-2 -8 -11 -6.5t-7 9.5q3 14 4.5 33t-1 37t-11.5 32t-28 20q-28 8 -53 -8t-46.5 -48t-39 -76t-29.5 -91.5t-17.5 -94t-3.5 -84
t12 -61t29 -25.5q22 -2 43 27.5t38.5 72.5t29.5 89.5t17 78.5q-22 -4 -41 -7.5t-32 -7.5zM308 688l-45 -64q-5 -7 -12 -1t-4 12l44 92q1 3 7 3.5t12.5 0t12.5 -2t7 -4.5l32 -95q2 -8 -5.5 -12.5t-11.5 2.5z" />
    <glyph glyph-name="gcircumflex" unicode="&#x11d;" horiz-adv-x="400" 
d="M357 347q5 -66 -0.5 -140.5t-22.5 -145.5q34 26 60 57t37 72q2 10 9.5 8.5t5.5 -11.5q-9 -49 -42.5 -87t-76.5 -69q-20 -72 -53 -127.5t-80 -77.5q-24 -11 -45 -4t-32.5 23.5t-10 39t22.5 42.5q14 14 35 28t46 28q11 61 20 132q-22 -50 -54.5 -76.5t-78.5 -14.5
q-40 10 -60 40t-22.5 68t11.5 77.5t41.5 70t68 45.5t91.5 4q18 -4 32 -17l9 43q2 10 16 13.5t30 1.5t29 -8t14 -15zM255 290q-8 10 -18 12q-17 2 -33.5 -14.5t-30.5 -42.5t-24 -57.5t-13.5 -59.5t0 -47.5t17.5 -22.5t28 15t27 50t25 75.5t22 91.5zM166 -144q11 8 21 35
t18 65q-21 -13 -37.5 -24t-26.5 -22q-14 -14 -16 -27t3.5 -21.5t15.5 -11t22 5.5zM235 475l-45 -64q-5 -7 -12 -1t-4 12l44 92q1 3 7 3.5t12.5 0t12.5 -2t7 -4.5l32 -95q2 -8 -5.5 -12.5t-11.5 2.5z" />
    <glyph glyph-name="Gbreve" unicode="&#x11e;" horiz-adv-x="451" 
d="M225 305q-8 -2 -9.5 6t4.5 10q21 8 50.5 14t59.5 10t57.5 6t43.5 2q8 0 8.5 -8t-7.5 -8l-30 -3q-3 -19 -6.5 -48t-7 -62.5t-8 -68t-8 -64t-6.5 -51t-4 -28.5q-1 -8 -13.5 -12t-27 -3.5t-27 5t-12.5 13.5v20t0.5 40t2 53t3.5 61q-12 -38 -27.5 -71t-36.5 -55.5t-47 -33
t-59 -2.5q-41 9 -64 40.5t-30 75.5t-0.5 96.5t24.5 103.5t46.5 97.5t64.5 78t78 44t88 -2.5q23 -8 35 -25.5t16.5 -39.5t2.5 -43.5t-7 -36.5q-2 -8 -11 -6.5t-7 9.5q3 14 4.5 33t-1 37t-11.5 32t-28 20q-28 8 -53 -8t-46.5 -48t-39 -76t-29.5 -91.5t-17.5 -94t-3.5 -84
t12 -61t29 -25.5q22 -2 43 27.5t38.5 72.5t29.5 89.5t17 78.5q-22 -4 -41 -7.5t-32 -7.5zM315 670q0 4 4.5 6t10.5 2t10.5 -2t4.5 -6q0 -26 -14 -40t-31 -14q-18 0 -31.5 14t-13.5 40q0 4 4.5 6t10.5 2t10.5 -2t4.5 -6q0 -38 15 -38t15 38z" />
    <glyph glyph-name="gbreve" unicode="&#x11f;" horiz-adv-x="400" 
d="M357 347q5 -66 -0.5 -140.5t-22.5 -145.5q34 26 60 57t37 72q2 10 9.5 8.5t5.5 -11.5q-9 -49 -42.5 -87t-76.5 -69q-20 -72 -53 -127.5t-80 -77.5q-24 -11 -45 -4t-32.5 23.5t-10 39t22.5 42.5q14 14 35 28t46 28q11 61 20 132q-22 -50 -54.5 -76.5t-78.5 -14.5
q-40 10 -60 40t-22.5 68t11.5 77.5t41.5 70t68 45.5t91.5 4q18 -4 32 -17l9 43q2 10 16 13.5t30 1.5t29 -8t14 -15zM255 290q-8 10 -18 12q-17 2 -33.5 -14.5t-30.5 -42.5t-24 -57.5t-13.5 -59.5t0 -47.5t17.5 -22.5t28 15t27 50t25 75.5t22 91.5zM166 -144q11 8 21 35
t18 65q-21 -13 -37.5 -24t-26.5 -22q-14 -14 -16 -27t3.5 -21.5t15.5 -11t22 5.5zM221 441q0 4 4.5 6t10.5 2t10.5 -2t4.5 -6q0 -26 -14 -40t-31 -14q-18 0 -31.5 14t-13.5 40q0 4 4.5 6t10.5 2t10.5 -2t4.5 -6q0 -38 15 -38t15 38z" />
    <glyph glyph-name="Gdotaccent" unicode="&#x120;" horiz-adv-x="451" 
d="M225 305q-8 -2 -9.5 6t4.5 10q21 8 50.5 14t59.5 10t57.5 6t43.5 2q8 0 8.5 -8t-7.5 -8l-30 -3q-3 -19 -6.5 -48t-7 -62.5t-8 -68t-8 -64t-6.5 -51t-4 -28.5q-1 -8 -13.5 -12t-27 -3.5t-27 5t-12.5 13.5v20t0.5 40t2 53t3.5 61q-12 -38 -27.5 -71t-36.5 -55.5t-47 -33
t-59 -2.5q-41 9 -64 40.5t-30 75.5t-0.5 96.5t24.5 103.5t46.5 97.5t64.5 78t78 44t88 -2.5q23 -8 35 -25.5t16.5 -39.5t2.5 -43.5t-7 -36.5q-2 -8 -11 -6.5t-7 9.5q3 14 4.5 33t-1 37t-11.5 32t-28 20q-28 8 -53 -8t-46.5 -48t-39 -76t-29.5 -91.5t-17.5 -94t-3.5 -84
t12 -61t29 -25.5q22 -2 43 27.5t38.5 72.5t29.5 89.5t17 78.5q-22 -4 -41 -7.5t-32 -7.5zM282 651q0 8 5 13.5t13 5.5t13 -5.5t5 -13.5q0 -7 -5 -12.5t-13 -5.5t-13 5.5t-5 12.5z" />
    <glyph glyph-name="gdotaccent" unicode="&#x121;" horiz-adv-x="400" 
d="M357 347q5 -66 -0.5 -140.5t-22.5 -145.5q34 26 60 57t37 72q2 10 9.5 8.5t5.5 -11.5q-9 -49 -42.5 -87t-76.5 -69q-20 -72 -53 -127.5t-80 -77.5q-24 -11 -45 -4t-32.5 23.5t-10 39t22.5 42.5q14 14 35 28t46 28q11 61 20 132q-22 -50 -54.5 -76.5t-78.5 -14.5
q-40 10 -60 40t-22.5 68t11.5 77.5t41.5 70t68 45.5t91.5 4q18 -4 32 -17l9 43q2 10 16 13.5t30 1.5t29 -8t14 -15zM255 290q-8 10 -18 12q-17 2 -33.5 -14.5t-30.5 -42.5t-24 -57.5t-13.5 -59.5t0 -47.5t17.5 -22.5t28 15t27 50t25 75.5t22 91.5zM166 -144q11 8 21 35
t18 65q-21 -13 -37.5 -24t-26.5 -22q-14 -14 -16 -27t3.5 -21.5t15.5 -11t22 5.5zM198 432q0 8 5 13.5t13 5.5t13 -5.5t5 -13.5q0 -7 -5 -12.5t-13 -5.5t-13 5.5t-5 12.5z" />
    <glyph glyph-name="Gcommaaccent" unicode="&#x122;" horiz-adv-x="451" 
d="M225 305q-8 -2 -9.5 6t4.5 10q21 8 50.5 14t59.5 10t57.5 6t43.5 2q8 0 8.5 -8t-7.5 -8l-30 -3q-3 -19 -6.5 -48t-7 -62.5t-8 -68t-8 -64t-6.5 -51t-4 -28.5q-1 -8 -13.5 -12t-27 -3.5t-27 5t-12.5 13.5v20t0.5 40t2 53t3.5 61q-12 -38 -27.5 -71t-36.5 -55.5t-47 -33
t-59 -2.5q-41 9 -64 40.5t-30 75.5t-0.5 96.5t24.5 103.5t46.5 97.5t64.5 78t78 44t88 -2.5q23 -8 35 -25.5t16.5 -39.5t2.5 -43.5t-7 -36.5q-2 -8 -11 -6.5t-7 9.5q3 14 4.5 33t-1 37t-11.5 32t-28 20q-28 8 -53 -8t-46.5 -48t-39 -76t-29.5 -91.5t-17.5 -94t-3.5 -84
t12 -61t29 -25.5q22 -2 43 27.5t38.5 72.5t29.5 89.5t17 78.5q-22 -4 -41 -7.5t-32 -7.5zM200 -67q-9 9 -10 18.5t4 16.5t13.5 9.5t18.5 -1.5q10 -5 14 -14.5t1.5 -22t-12 -26t-26.5 -25.5q-6 -5 -12.5 1.5t0.5 12.5q13 11 13.5 18t-4.5 13z" />
    <glyph glyph-name="gcommaaccent" unicode="&#x123;" horiz-adv-x="400" 
d="M357 347q5 -66 -0.5 -140.5t-22.5 -145.5q34 26 60 57t37 72q2 10 9.5 8.5t5.5 -11.5q-9 -49 -42.5 -87t-76.5 -69q-20 -72 -53 -127.5t-80 -77.5q-24 -11 -45 -4t-32.5 23.5t-10 39t22.5 42.5q14 14 35 28t46 28q11 61 20 132q-22 -50 -54.5 -76.5t-78.5 -14.5
q-40 10 -60 40t-22.5 68t11.5 77.5t41.5 70t68 45.5t91.5 4q18 -4 32 -17l9 43q2 10 16 13.5t30 1.5t29 -8t14 -15zM255 290q-8 10 -18 12q-17 2 -33.5 -14.5t-30.5 -42.5t-24 -57.5t-13.5 -59.5t0 -47.5t17.5 -22.5t28 15t27 50t25 75.5t22 91.5zM166 -144q11 8 21 35
t18 65q-21 -13 -37.5 -24t-26.5 -22q-14 -14 -16 -27t3.5 -21.5t15.5 -11t22 5.5zM222.001 425.994q9 -8.99902 10 -18.498q1 -9.5 -4 -16.499q-5 -7 -13.499 -9.5q-8.5 -2.5 -18.499 1.5q-9.99902 5 -13.999 14.499q-4 9.5 -1.5 21.999t11.999 25.998
q9.5 13.499 26.499 25.499q5.99902 4.99902 12.499 -1.5q6.49902 -6.5 -0.5 -12.5q-12.999 -10.999 -13.499 -17.998q-0.5 -7 4.49902 -13z" />
    <glyph glyph-name="Hcircumflex" unicode="&#x124;" horiz-adv-x="485" 
d="M348 558q2 7 15 11t29 3.5t29.5 -4.5t16.5 -13q8 -32 6.5 -90t-8.5 -125h17q8 0 7.5 -10t-7.5 -10h-19q-6 -55 -13 -110t-13 -101.5t-9 -80.5t0 -47q1 -9 -7 -14t-20 -6t-23.5 3t-17.5 13q-14 24 -21.5 60.5t-9 81.5t1 95.5t7.5 101.5q-40 -2 -81 -5t-79 -6
q-2 -41 -5 -81t-7 -75.5t-8.5 -64.5t-10.5 -46q-2 -8 -18 -11.5t-34 -3t-33 5t-15 12.5q0 20 1 48t3.5 61t5 69.5t5.5 72.5l-15 -2q-3 -1 -5.5 2t-3.5 6.5t0.5 7t4.5 4.5l20 3q3 39 6.5 76t6.5 68t5 53t3 31q1 7 16.5 9.5t34 2t34 -4.5t15.5 -10q1 -30 0 -87.5t-4 -123.5
q40 4 81 6t80 4q8 64 17.5 121.5t18.5 99.5zM265 710l-45 -64q-5 -7 -12 -1t-4 12l44 92q1 3 7 3.5t12.5 0t12.5 -2t7 -4.5l32 -95q2 -8 -5.5 -12.5t-11.5 2.5z" />
    <glyph glyph-name="hcircumflex" unicode="&#x125;" horiz-adv-x="444" 
d="M299 325q36 -6 53.5 -32.5t24 -63t5.5 -77t-3 -75.5t-1 -58t12 -24q7 0 15 10.5t16.5 28.5t16.5 40t15 44t12.5 41t9.5 31q2 9 10 8t5 -11q-11 -42 -23 -84t-28.5 -75t-39 -52.5t-55.5 -15.5q-45 6 -61 32t-16.5 63t8.5 78.5t15.5 77.5t4 62t-26.5 31q-23 5 -41 -10
t-31 -42.5t-22 -63.5t-15 -71.5t-9 -67.5t-5 -52q-1 -9 -12.5 -14t-25.5 -5.5t-27.5 4.5t-18.5 15q-9 20 -17 57t-13 84.5t-6.5 100.5t1.5 103.5t12 95t24 75t38 43t55 -1.5q17 -8 21.5 -24t0 -38.5t-16 -51t-26.5 -60.5q2 -48 4.5 -102t4.5 -106q9 37 21.5 67.5t31 51.5
t44 30.5t59.5 3.5zM155 537q-13 7 -17 -24t-4 -83q18 45 24.5 73.5t-3.5 33.5zM288 447l-45 -64q-5 -7 -12 -1t-4 12l44 92q1 3 7 3.5t12.5 0t12.5 -2t7 -4.5l32 -95q2 -8 -5.5 -12.5t-11.5 2.5z" />
    <glyph glyph-name="Hbar" unicode="&#x126;" horiz-adv-x="485" 
d="M348 558q2 7 15 11t29 3.5t29.5 -4.5t16.5 -13q5 -19 6.5 -47.5t-0.5 -63.5l19 1q11 0 11 -10.5t-11 -10.5l-20 -1q-2 -20 -3.5 -40.5t-3.5 -42.5h17q8 0 7.5 -10t-7.5 -10h-19q-6 -55 -13 -110t-13 -101.5t-9 -80.5t0 -47q1 -9 -7 -14t-20 -6t-23.5 3t-17.5 13
q-14 24 -21.5 60.5t-9 81.5t1 95.5t7.5 101.5q-40 -2 -81 -5t-79 -6q-2 -41 -5 -81t-7 -75.5t-8.5 -64.5t-10.5 -46q-2 -8 -18 -11.5t-34 -3t-33 5t-15 12.5q0 20 1 48t3.5 61t5 69.5t5.5 72.5l-15 -2q-3 -1 -5.5 2t-3.5 6.5t0.5 7t4.5 4.5l20 3l9 98h-18q-11 0 -11 10.5
t11 10.5h19q4 40 7 69t4 40q1 7 16.5 9.5t34 2t34 -4.5t15.5 -10q0 -17 0.5 -43.5t-0.5 -58.5l171 5q5 34 11 63.5t11 53.5zM312 337q2 21 5 42t6 41l-169 -5q0 -21 -1 -43t-2 -45q40 4 81 6t80 4z" />
    <glyph glyph-name="hbar" unicode="&#x127;" horiz-adv-x="444" 
d="M299 325q36 -6 53.5 -32.5t24 -63t5.5 -77t-3 -75.5t-1 -58t12 -24q7 0 15 10.5t16.5 28.5t16.5 40t15 44t12.5 41t9.5 31q2 9 10 8t5 -11q-11 -42 -23 -84t-28.5 -75t-39 -52.5t-55.5 -15.5q-45 6 -61 32t-16.5 63t8.5 78.5t15.5 77.5t4 62t-26.5 31q-23 5 -41 -10
t-31 -42.5t-22 -63.5t-15 -71.5t-9 -67.5t-5 -52q-1 -9 -12.5 -14t-25.5 -5.5t-27.5 4.5t-18.5 15q-9 19 -17 55t-13 82t-7 97.5t1 101.5l-43 -6q-3 0 -4.5 2.5t-1.5 6t1.5 7t4.5 3.5l44 6q4 49 13 91.5t24.5 71.5t38 40.5t53.5 -1.5q17 -8 21.5 -24t0 -38.5t-16 -51
t-26.5 -60.5v-12l48 7q7 0 9.5 -9.5t-5.5 -10.5l-51 -7q2 -42 4 -87t4 -89q9 37 21.5 67.5t31 51.5t44 30.5t59.5 3.5zM155 537q-13 7 -17 -24t-4 -83q18 45 24.5 73.5t-3.5 33.5z" />
    <glyph glyph-name="Itilde" unicode="&#x128;" horiz-adv-x="312" 
d="M11 11q-9 0 -9 9.5t8 9.5q16 0 34.5 0.5t38.5 0.5q-1 14 2 50.5t8 85t11 104t12 106t11.5 92t9.5 62.5l-67 -4q-5 0 -7 3t-2 7t2 7.5t6 3.5q26 2 56 3.5t59.5 2.5t57 1.5t49.5 0.5q8 0 8.5 -9.5t-7.5 -9.5h-29t-31 -1q-1 -19 -4 -58.5t-7.5 -89t-9.5 -104t-9.5 -104
t-8.5 -89.5t-6 -59q21 1 38.5 1t29.5 1q8 0 8.5 -9.5t-7.5 -9.5q-46 -1 -111 -2.5t-134 -1.5zM149 621q-1 -5 -4.5 -5.5t-6.5 1t-5.5 5.5t-0.5 9q3 8 7.5 18t11 18.5t15 14t20.5 5.5q13 0 22 -9t15 -20t9.5 -20.5t4.5 -11.5q1 -4 4.5 -2.5t7.5 5.5t8 9t7 10q5 10 11.5 4.5
t3.5 -13.5q-9 -19 -22 -31t-23 -12q-14 0 -23.5 9.5t-16.5 21t-11 21.5t-8 12t-8.5 -2.5t-8 -11.5t-6 -14.5z" />
    <glyph glyph-name="itilde" unicode="&#x129;" horiz-adv-x="203" 
d="M35 310q4 15 19 23t32.5 9t32.5 -5.5t19 -21.5q6 -25 6.5 -55.5t-2 -61.5t-6 -60t-6 -52.5t-2 -39t6.5 -17.5q10 -4 24 9.5t28.5 37t27 54t19.5 60.5q3 9 10.5 8.5t4.5 -11.5q-7 -26 -18.5 -58.5t-28.5 -61t-39 -48.5t-49 -20q-38 0 -59.5 30t-30 76.5t-5 101.5t15.5 103
zM43 403q-1 -5 -4.5 -5.5t-6.5 1t-5.5 5.5t-0.5 9q3 8 7.5 18t11 18.5t15 14t20.5 5.5q13 0 22 -9t15 -20t9.5 -20.5t4.5 -11.5q1 -4 4.5 -2.5t7.5 5.5t8 9t7 10q5 10 11.5 4.5t3.5 -13.5q-9 -19 -22 -31t-23 -12q-14 0 -23.5 9.5t-16.5 21t-11 21.5t-8 12t-8.5 -2.5
t-8 -11.5t-6 -14.5z" />
    <glyph glyph-name="Imacron" unicode="&#x12a;" horiz-adv-x="312" 
d="M11 11q-9 0 -9 9.5t8 9.5q16 0 34.5 0.5t38.5 0.5q-1 14 2 50.5t8 85t11 104t12 106t11.5 92t9.5 62.5l-67 -4q-5 0 -7 3t-2 7t2 7.5t6 3.5q26 2 56 3.5t59.5 2.5t57 1.5t49.5 0.5q8 0 8.5 -9.5t-7.5 -9.5h-29t-31 -1q-1 -19 -4 -58.5t-7.5 -89t-9.5 -104t-9.5 -104
t-8.5 -89.5t-6 -59q21 1 38.5 1t29.5 1q8 0 8.5 -9.5t-7.5 -9.5q-46 -1 -111 -2.5t-134 -1.5zM135 639q-11 0 -11.5 11t11.5 11h129q11 0 11 -11t-11 -11h-129v0z" />
    <glyph glyph-name="imacron" unicode="&#x12b;" horiz-adv-x="203" 
d="M35 310q4 15 19 23t32.5 9t32.5 -5.5t19 -21.5q6 -25 6.5 -55.5t-2 -61.5t-6 -60t-6 -52.5t-2 -39t6.5 -17.5q10 -4 24 9.5t28.5 37t27 54t19.5 60.5q3 9 10.5 8.5t4.5 -11.5q-7 -26 -18.5 -58.5t-28.5 -61t-39 -48.5t-49 -20q-38 0 -59.5 30t-30 76.5t-5 101.5t15.5 103
zM28 421q-11 0 -11.5 11t11.5 11h129q11 0 11 -11t-11 -11h-129v0z" />
    <glyph glyph-name="Ibreve" unicode="&#x12c;" horiz-adv-x="312" 
d="M11 11q-9 0 -9 9.5t8 9.5q16 0 34.5 0.5t38.5 0.5q-1 14 2 50.5t8 85t11 104t12 106t11.5 92t9.5 62.5l-67 -4q-5 0 -7 3t-2 7t2 7.5t6 3.5q26 2 56 3.5t59.5 2.5t57 1.5t49.5 0.5q8 0 8.5 -9.5t-7.5 -9.5h-29t-31 -1q-1 -19 -4 -58.5t-7.5 -89t-9.5 -104t-9.5 -104
t-8.5 -89.5t-6 -59q21 1 38.5 1t29.5 1q8 0 8.5 -9.5t-7.5 -9.5q-46 -1 -111 -2.5t-134 -1.5zM207 661q0 4 4.5 6t10.5 2t10.5 -2t4.5 -6q0 -26 -14 -40t-31 -14q-18 0 -31.5 14t-13.5 40q0 4 4.5 6t10.5 2t10.5 -2t4.5 -6q0 -38 15 -38t15 38z" />
    <glyph glyph-name="ibreve" unicode="&#x12d;" horiz-adv-x="203" 
d="M35 310q4 15 19 23t32.5 9t32.5 -5.5t19 -21.5q6 -25 6.5 -55.5t-2 -61.5t-6 -60t-6 -52.5t-2 -39t6.5 -17.5q10 -4 24 9.5t28.5 37t27 54t19.5 60.5q3 9 10.5 8.5t4.5 -11.5q-7 -26 -18.5 -58.5t-28.5 -61t-39 -48.5t-49 -20q-38 0 -59.5 30t-30 76.5t-5 101.5t15.5 103
zM114 441q0 4 4.5 6t10.5 2t10.5 -2t4.5 -6q0 -26 -14 -40t-31 -14q-18 0 -31.5 14t-13.5 40q0 4 4.5 6t10.5 2t10.5 -2t4.5 -6q0 -38 15 -38t15 38z" />
    <glyph glyph-name="Iogonek" unicode="&#x12e;" horiz-adv-x="312" 
d="M166 -41q7 8 14 1t1 -15q-8 -10 -19 -18t-23.5 -11.5t-24.5 -1.5t-21 12q-12 14 -5.5 38t36.5 48q-27 -1 -55.5 -1h-57.5q-9 0 -9 9.5t8 9.5q16 0 34.5 0.5t38.5 0.5q-1 14 2 50.5t8 85t11 104t12 106t11.5 92t9.5 62.5l-67 -4q-5 0 -7 3t-2 7t2 7.5t6 3.5q26 2 56 3.5
t59.5 2.5t57 1.5t49.5 0.5q8 0 8.5 -9.5t-7.5 -9.5h-29t-31 -1q-1 -19 -4 -58.5t-7.5 -89t-9.5 -104t-9.5 -104t-8.5 -89.5t-6 -59q21 1 38.5 1t29.5 1q8 0 8.5 -9.5t-7.5 -9.5l-97 -2q-25 -15 -34 -35t2 -33q5 -6 16.5 -3t22.5 17z" />
    <glyph glyph-name="iogonek" unicode="&#x12f;" horiz-adv-x="203" 
d="M158 -44q7 8 14 1t1 -15q-8 -10 -19 -18t-23.5 -11.5t-24.5 -1.5t-21 12q-11 13 -7 34t27 43q-35 3 -54.5 34t-27 76.5t-3.5 99t15 100.5q4 15 19 23t32.5 9t32.5 -5.5t19 -21.5q6 -25 6.5 -55.5t-2 -61.5t-6 -60t-6 -52.5t-2 -39t6.5 -17.5q10 -4 24 9.5t28.5 37t27 54
t19.5 60.5q3 9 10.5 8.5t4.5 -11.5q-6 -23 -14 -48t-19 -49t-26.5 -45t-36.5 -34q-25 -16 -35 -36t1 -33q5 -6 16.5 -3t22.5 17zM89 457q11 0 17.5 -6.5t8 -15t-3.5 -16.5t-17 -11t-19 4t-8 17t4.5 19t17.5 9z" />
    <glyph glyph-name="Idotaccent" unicode="&#x130;" horiz-adv-x="312" 
d="M11 11q-9 0 -9 9.5t8 9.5q16 0 34.5 0.5t38.5 0.5q-1 14 2 50.5t8 85t11 104t12 106t11.5 92t9.5 62.5l-67 -4q-5 0 -7 3t-2 7t2 7.5t6 3.5q26 2 56 3.5t59.5 2.5t57 1.5t49.5 0.5q8 0 8.5 -9.5t-7.5 -9.5h-29t-31 -1q-1 -19 -4 -58.5t-7.5 -89t-9.5 -104t-9.5 -104
t-8.5 -89.5t-6 -59q21 1 38.5 1t29.5 1q8 0 8.5 -9.5t-7.5 -9.5q-46 -1 -111 -2.5t-134 -1.5zM181 650q0 8 5 13.5t13 5.5t13 -5.5t5 -13.5q0 -7 -5 -12.5t-13 -5.5t-13 5.5t-5 12.5z" />
    <glyph glyph-name="dotlessi" unicode="&#x131;" horiz-adv-x="203" 
d="M35 310q4 15 19 23t32.5 9t32.5 -5.5t19 -21.5q6 -25 6.5 -55.5t-2 -61.5t-6 -60t-6 -52.5t-2 -39t6.5 -17.5q10 -4 24 9.5t28.5 37t27 54t19.5 60.5q3 9 10.5 8.5t4.5 -11.5q-7 -26 -18.5 -58.5t-28.5 -61t-39 -48.5t-49 -20q-38 0 -59.5 30t-30 76.5t-5 101.5t15.5 103
z" />
    <glyph glyph-name="Jcircumflex" unicode="&#x134;" 
d="M220 559q7 7 20 8.5t25 -1t19 -7t3 -10.5q-5 -7 -7 -31t-3 -58.5t-1.5 -77t-2.5 -87.5q35 8 55 21q8 5 11.5 -1.5t-2.5 -12.5q-19 -16 -65 -27q-2 -46 -7 -89.5t-14 -79.5t-22.5 -60t-34.5 -31q-28 -9 -54.5 -3.5t-49 20.5t-39.5 37t-27.5 46t-13 47t4.5 41q6 15 20.5 26
t34.5 19t44.5 14t50.5 11q1 44 3.5 88t8 82.5t16 69t27.5 46.5zM134 49q10 4 15.5 22t8.5 45.5t4 62t2 72.5q-24 -5 -45.5 -10.5t-39.5 -12t-30 -13.5t-16 -16q-5 -11 -3 -28t9 -35.5t17.5 -36.5t23.5 -31t27 -19t27 0zM258 678l-45 -64q-5 -7 -12 -1t-4 12l44 92q1 3 7 3.5
t12.5 0t12.5 -2t7 -4.5l32 -95q2 -8 -5.5 -12.5t-11.5 2.5z" />
    <glyph glyph-name="jcircumflex" unicode="&#x135;" horiz-adv-x="190" 
d="M52 352q2 8 15.5 12.5t29 4t28.5 -5.5t13 -15q3 -62 2 -136t-9 -146q31 31 56 62t34 62q3 9 10.5 8.5t5.5 -11.5q-4 -18 -14.5 -37t-25.5 -38.5t-33 -39t-37 -38.5q-7 -51 -18 -94.5t-27 -72.5q-14 -26 -37 -36t-43 -6t-31.5 20.5t-1.5 44.5q5 16 18 33t30 35v76.5t3 93
t10.5 107t21.5 117.5zM15 -127q2 9 2 22.5v29.5q-23 -24 -29 -43q-4 -10 -0.5 -17.5t9 -10t11 1.5t7.5 17zM101 487l-45 -64q-5 -7 -12 -1t-4 12l44 92q1 3 7 3.5t12.5 0t12.5 -2t7 -4.5l32 -95q2 -8 -5.5 -12.5t-11.5 2.5z" />
    <glyph glyph-name="Kcommaaccent" unicode="&#x136;" horiz-adv-x="426" 
d="M123 18q-3 -12 -19 -17t-34.5 -4.5t-33.5 6.5t-16 16q-1 20 0.5 63.5t4.5 98.5t6.5 116t7.5 115t7.5 95.5t6.5 58.5q1 7 16.5 11t34.5 4t34.5 -4t16.5 -13v-27.5t-1 -50.5t-2 -67t-3 -77q36 22 61.5 53.5t42 63t24 57.5t7.5 38q0 7 6.5 7.5t8.5 -4.5q14 -39 14 -67
t-9 -50q-8 -19 -23.5 -35.5t-41.5 -33.5q9 0 18 -2.5t19 -6.5q32 -14 51 -46t29.5 -71.5t15 -81t8 -75t8 -53.5t15.5 -17q4 1 7 -1t4 -5.5t0 -7t-5 -4.5q-50 -14 -78 4t-42 53.5t-17.5 81t-5 88.5t-4 75t-14.5 41q-17 12 -44.5 2t-56.5 -33q-2 -47 -5 -94t-6 -87t-6.5 -70
t-6.5 -43zM189 -67q-9 9 -10 18.5t4 16.5t13.5 9.5t18.5 -1.5q10 -5 14 -14.5t1.5 -22t-12 -26t-26.5 -25.5q-6 -5 -12.5 1.5t0.5 12.5q13 11 13.5 18t-4.5 13z" />
    <glyph glyph-name="kcommaaccent" unicode="&#x137;" horiz-adv-x="370" 
d="M243 468q-15 -29 -39 -59.5t-51 -65.5q-4 -43 -6.5 -86.5t-4.5 -85.5q18 43 40.5 77.5t44.5 54.5q21 19 41.5 18.5t33 -13.5t14 -34t-14.5 -42q-9 -12 -22 -23.5t-30 -22.5q12 -5 24 -19q12 -15 17.5 -36.5t8.5 -42.5t6 -37.5t11 -20.5q12 -6 24 9t23 40.5t20.5 56
t17.5 54.5q3 11 10 8.5t5 -11.5q-9 -33 -20.5 -69.5t-26.5 -66.5t-35.5 -47.5t-47.5 -11.5q-30 6 -47 27.5t-27 47t-17 48.5t-17 33l-19 -8q-11 -35 -14.5 -68t-10.5 -68q-2 -9 -17 -14t-33.5 -5.5t-34 4t-17.5 16.5q-8 62 -8 139.5t9 152.5t28 139.5t49 101.5q21 26 52 32
t55.5 -4.5t34.5 -35.5t-9 -62zM184 519q-9 -23 -16 -60.5t-12 -82.5q23 32 42.5 59.5t30.5 48.5q10 18 7 33.5t-12 22.5t-20.5 3.5t-19.5 -24.5zM245 295q-15 -14 -34 -42t-36 -70q5 2 10.5 4t10.5 3q24 20 44.5 43t31.5 41q9 16 -1 25t-26 -4zM171 -89q-9 9 -10 18.5
t4 16.5t13.5 9.5t18.5 -1.5q10 -5 14 -14.5t1.5 -22t-12 -26t-26.5 -25.5q-6 -5 -12.5 1.5t0.5 12.5q13 11 13.5 18t-4.5 13z" />
    <glyph glyph-name="kgreenlandic" unicode="&#x138;" horiz-adv-x="357" 
d="M182 196q26 4 43 -5.5t27 -26t16 -38t10.5 -41t9.5 -35t15 -20.5q13 -6 25 9t23 40.5t20 56t17 54.5q3 11 10 8.5t5 -11.5q-9 -33 -20 -69.5t-26.5 -66.5t-36 -47.5t-47.5 -11.5q-21 4 -35.5 17t-24.5 30.5t-16.5 36t-11.5 35t-10.5 28t-13.5 13.5q-9 2 -18 -13.5
t-12 -28.5q-3 -39 -5.5 -68t-4.5 -38t-17.5 -14t-34 -5.5t-34 4t-16.5 16.5q-5 57 0 120t15 118.5t21.5 97t19.5 57.5q6 10 18.5 11.5t25.5 -2.5t22 -12t8 -15q-1 -6 -2 -20.5t-2.5 -34.5t-3 -44.5t-2.5 -50.5l109 99q2 3 6 1.5t7 -4.5t4 -7t-2 -6z" />
    <glyph glyph-name="Lacute" unicode="&#x139;" horiz-adv-x="331" 
d="M77 572q1 6 17.5 8.5t35.5 2t34.5 -4t15.5 -9.5q-2 -26 -6 -74.5t-9 -105.5t-9 -117.5t-6 -111t-0.5 -85.5t7.5 -41q7 -8 23 -7t36 7t43 15t44 18q4 2 7.5 0t4.5 -5.5t0 -7.5t-4 -6q-20 -11 -57.5 -24t-77.5 -20.5t-74.5 -7.5t-49.5 14q-13 12 -19.5 45.5t-7.5 80.5
t3 103.5t11 115t17 115t21 102.5zM131 621q-4 -5 -12 -1t-5 12l39 94q3 7 10.5 6.5t15.5 -5t12.5 -11t1.5 -10.5z" />
    <glyph glyph-name="lacute" unicode="&#x13a;" horiz-adv-x="215" 
d="M147 408l-2 -137q-1 -53 -2.5 -97.5t-1 -77t4 -51.5t14.5 -22q12 -3 24 12.5t23 41t21 56t18 57.5q4 11 10.5 8t4.5 -11q-8 -28 -16.5 -61.5t-21 -62.5t-31.5 -49t-47 -20q-34 -1 -58 20t-38.5 58.5t-20 89t-1.5 111.5q6 90 22 151.5t38 99.5q19 32 45 44.5t45.5 7
t25.5 -28.5t-14 -61zM153 506q-2 -12 -3 -26.5t-2 -31.5l26 49q13 25 12.5 40t-7 18t-15 -8.5t-11.5 -40.5zM147 624q-4 -5 -12 -1t-5 12l39 94q3 7 10.5 6.5t15.5 -5t12.5 -11t1.5 -10.5z" />
    <glyph glyph-name="Lcommaaccent" unicode="&#x13b;" horiz-adv-x="331" 
d="M77 572q1 6 17.5 8.5t35.5 2t34.5 -4t15.5 -9.5q-2 -26 -6 -74.5t-9 -105.5t-9 -117.5t-6 -111t-0.5 -85.5t7.5 -41q7 -8 23 -7t36 7t43 15t44 18q4 2 7.5 0t4.5 -5.5t0 -7.5t-4 -6q-20 -11 -57.5 -24t-77.5 -20.5t-74.5 -7.5t-49.5 14q-13 12 -19.5 45.5t-7.5 80.5
t3 103.5t11 115t17 115t21 102.5zM163 -89q-9 9 -10 18.5t4 16.5t13.5 9.5t18.5 -1.5q10 -5 14 -14.5t1.5 -22t-12 -26t-26.5 -25.5q-6 -5 -12.5 1.5t0.5 12.5q13 11 13.5 18t-4.5 13z" />
    <glyph glyph-name="lcommaaccent" unicode="&#x13c;" horiz-adv-x="215" 
d="M147 408l-2 -137q-1 -53 -2.5 -97.5t-1 -77t4 -51.5t14.5 -22q12 -3 24 12.5t23 41t21 56t18 57.5q4 11 10.5 8t4.5 -11q-8 -28 -16.5 -61.5t-21 -62.5t-31.5 -49t-47 -20q-34 -1 -58 20t-38.5 58.5t-20 89t-1.5 111.5q6 90 22 151.5t38 99.5q19 32 45 44.5t45.5 7
t25.5 -28.5t-14 -61zM153 506q-2 -12 -3 -26.5t-2 -31.5l26 49q13 25 12.5 40t-7 18t-15 -8.5t-11.5 -40.5zM126 -89q-9 9 -10 18.5t4 16.5t13.5 9.5t18.5 -1.5q10 -5 14 -14.5t1.5 -22t-12 -26t-26.5 -25.5q-6 -5 -12.5 1.5t0.5 12.5q13 11 13.5 18t-4.5 13z" />
    <glyph glyph-name="Lcaron" unicode="&#x13d;" horiz-adv-x="331" 
d="M77 572q1 6 17.5 8.5t35.5 2t34.5 -4t15.5 -9.5q-2 -26 -6 -74.5t-9 -105.5t-9 -117.5t-6 -111t-0.5 -85.5t7.5 -41q7 -8 23 -7t36 7t43 15t44 18q4 2 7.5 0t4.5 -5.5t0 -7.5t-4 -6q-20 -11 -57.5 -24t-77.5 -20.5t-74.5 -7.5t-49.5 14q-13 12 -19.5 45.5t-7.5 80.5
t3 103.5t11 115t17 115t21 102.5zM267 378q-9 9 -10 18.5t4 16.5t13.5 9.5t18.5 -1.5q10 -5 14 -14.5t1.5 -22t-12 -26t-26.5 -25.5q-6 -5 -12.5 1.5t0.5 12.5q13 11 13.5 18t-4.5 13z" />
    <glyph glyph-name="lcaron" unicode="&#x13e;" horiz-adv-x="281" 
d="M147 409q-1 -48 -1.5 -106t-1 -111t-1.5 -96t-2 -61q-1 -11 -12.5 -18.5t-26.5 -11t-28 -2.5t-17 9q-14 28 -21.5 69t-9.5 88.5t1 98.5t11 99t20.5 88.5t28.5 68.5q19 32 45 44.5t45.5 7t25.5 -28.5t-14 -61zM180 555q-11 5 -17 -9t-9 -33.5t-4 -38.5t-1 -25l25 48
q13 25 12.5 40t-6.5 18zM217 378q-9 9 -10 18.5t4 16.5t13.5 9.5t18.5 -1.5q10 -5 14 -14.5t1.5 -22t-12 -26t-26.5 -25.5q-6 -5 -12.5 1.5t0.5 12.5q13 11 13.5 18t-4.5 13z" />
    <glyph glyph-name="Ldot" unicode="&#x13f;" horiz-adv-x="331" 
d="M77 572q1 6 17.5 8.5t35.5 2t34.5 -4t15.5 -9.5q-2 -26 -6 -74.5t-9 -105.5t-9 -117.5t-6 -111t-0.5 -85.5t7.5 -41q7 -8 23 -7t36 7t43 15t44 18q4 2 7.5 0t4.5 -5.5t0 -7.5t-4 -6q-20 -11 -57.5 -24t-77.5 -20.5t-74.5 -7.5t-49.5 14q-13 12 -19.5 45.5t-7.5 80.5
t3 103.5t11 115t17 115t21 102.5zM226 294q0 11 7.5 19t18.5 8t18.5 -8t7.5 -19t-7.5 -18.5t-18.5 -7.5t-18.5 7.5t-7.5 18.5z" />
    <glyph glyph-name="ldot" unicode="&#x140;" horiz-adv-x="268" 
d="M147 409q-1 -48 -1.5 -106t-1 -111t-1.5 -96t-2 -61q-1 -11 -12.5 -18.5t-26.5 -11t-28 -2.5t-17 9q-14 28 -21.5 69t-9.5 88.5t1 98.5t11 99t20.5 88.5t28.5 68.5q19 32 45 44.5t45.5 7t25.5 -28.5t-14 -61zM180 555q-11 5 -17 -9t-9 -33.5t-4 -38.5t-1 -25l25 48
q13 25 12.5 40t-6.5 18zM194 294q0 11 7.5 19t18.5 8t18.5 -8t7.5 -19t-7.5 -18.5t-18.5 -7.5t-18.5 7.5t-7.5 18.5z" />
    <glyph glyph-name="Lslash" unicode="&#x141;" horiz-adv-x="331" 
d="M77 572q1 6 17.5 8.5t35.5 2t34.5 -4t15.5 -9.5q-2 -20 -4.5 -51.5t-6 -70.5t-7 -83t-6.5 -87l52 17q3 1 6 -2t4.5 -7t1 -8t-4.5 -5l-60 -20q-3 -41 -4.5 -78.5t-1.5 -67t1.5 -49t6.5 -23.5q7 -8 23 -7t36 7t43 15t44 18q4 2 7.5 0t4.5 -5.5t0 -7.5t-4 -6
q-20 -11 -57.5 -24t-77.5 -20.5t-74.5 -7.5t-49.5 14q-18 17 -23.5 72t-2.5 129l-32 -10q-3 -1 -5 2t-3 7.5t-0.5 8.5t3.5 5l39 12q3 42 7.5 86.5t11 88t14 85t16.5 76.5z" />
    <glyph glyph-name="lslash" unicode="&#x142;" horiz-adv-x="215" 
d="M147 408l-2 -132l55 18q3 1 6 -2t4.5 -7t1 -8t-3.5 -5l-63 -21q-1 -49 -2.5 -90t-1 -71t4.5 -47.5t14 -19.5q12 -3 24 12.5t23 41t21 56t18 57.5q4 11 10.5 8t4.5 -11q-8 -28 -16.5 -61.5t-21 -62.5t-31.5 -49t-47 -20q-30 0 -52 15.5t-37 44.5t-22.5 69.5t-8.5 89.5
l-39 -12q-3 -1 -5 2t-3 7.5t0 8.5t4 5l43 14q0 8 0.5 17t1.5 18q6 90 22 151.5t38 99.5q19 32 45 44.5t45.5 7t25.5 -28.5t-14 -61zM153 506q-2 -12 -3 -26.5t-2 -31.5l26 49q13 25 12.5 40t-7 18t-15 -8.5t-11.5 -40.5z" />
    <glyph glyph-name="Nacute" unicode="&#x143;" horiz-adv-x="535" 
d="M66 568q1 10 17.5 14.5t35.5 3t34 -9t14 -20.5l-16 -196q12 43 29 80.5t39 65.5t51 43t65 12q39 -3 65 -27.5t42 -63t24 -86.5t12 -97.5t5 -96.5t3.5 -83.5t7.5 -59t17 -21.5q7 0 9 -7t-6 -9q-51 -12 -81 4.5t-46 51t-21 82.5t-5 100t1 103.5t-3 92t-16.5 66t-40.5 25.5
q-34 1 -62 -39.5t-50 -111.5t-39 -168.5t-28 -210.5q-1 -9 -19 -12.5t-39.5 -3t-39 6.5t-16.5 17q0 5 2.5 30t6 63t8.5 85.5t10 97t10 97t9 86t7 64.5t4 32zM286 619q-4 -5 -12 -1t-5 12l39 94q3 7 10.5 6.5t15.5 -5t12.5 -11t1.5 -10.5z" />
    <glyph glyph-name="nacute" unicode="&#x144;" horiz-adv-x="443" 
d="M53 351q2 10 15.5 13.5t29 2t29 -8t16.5 -17.5q7 -26 7 -60t-2 -70q17 60 45 92.5t80 26.5q36 -4 59 -19t36.5 -37.5t18.5 -50t4 -56.5q-1 -31 -6 -59t-9 -50.5t-5 -37.5t5 -18q10 -6 22.5 5.5t25.5 37t26 62.5t24 83q2 10 9.5 8.5t5.5 -11.5q-3 -13 -8.5 -36t-14 -49
t-20 -52t-27 -45.5t-35 -28.5t-43.5 -2q-26 8 -40 28t-19 47.5t-4.5 59t3.5 62.5q2 26 3.5 50.5t-0.5 43t-10.5 30.5t-26.5 14q-20 2 -34 -14t-24.5 -43t-18.5 -61t-14.5 -68t-13 -64t-14.5 -48q-5 -12 -17.5 -17t-27 -4.5t-27 6.5t-18.5 16q-12 20 -15 58.5t0 85.5t11 98.5
t19 96.5zM218 390q-4 -5 -12 -1t-5 12l39 94q3 7 10.5 6.5t15.5 -5t12.5 -11t1.5 -10.5z" />
    </font>
</defs>
</svg>
